<svg
  id="icon"
  width="48"
  height="48"
  viewBox="0 0 70 70"
  fill="none"
  xmlns="http://www.w3.org/2000/svg">
  <mask
    id="mask0_2530_3510"
    style="mask-type: alpha"
    maskUnits="userSpaceOnUse"
    x="2"
    y="4"
    width="55"
    height="61"
  >
    <path d="M35.058 4.24L2.116 48.392l21.841 16.296L56.9 20.536 35.058 4.24z" fill="#fff" />
  </mask>
  <g mask="url(#mask0_2530_3510)">
    <path
      d="M35.058 4.24L2.116 48.392l21.841 16.296L56.9 20.536 35.058 4.24z"
      fill="url(#paint0_linear_2530_3510)"
    />
    <path
      d="M35.058 4.24L2.116 48.392l21.841 16.296L56.9 20.536 35.058 4.24z"
      fill="url(#paint1_linear_2530_3510)"
    />
    <path d="M49.367 12.968l-33.47 21.717 2.132 1.616 38.285-18.808-6.947-4.525z" fill="#FA552D" />
    <path
      d="M49.367 12.968l-33.47 21.717 2.132 1.616 38.285-18.808-6.947-4.525z"
      fill="url(#paint2_linear_2530_3510)"
    />
    <path
      d="M49.367 12.968l-33.47 21.717 2.132 1.616 38.285-18.808-6.947-4.525z"
      fill="url(#paint3_linear_2530_3510)"
    />
    <path fill="#42AB44" d="M0.908203 41.4221H12.851203V56.5531H0.908203z" />
  </g>
  <mask
    id="mask1_2530_3510"
    style="mask-type: alpha"
    maskUnits="userSpaceOnUse"
    x="6"
    y="14"
    width="62"
    height="50"
  >
    <path d="M55.187 14.567L6.004 39.377l12.274 24.33 49.183-24.81-12.274-24.33z" fill="#fff" />
  </mask>
  <g mask="url(#mask1_2530_3510)">
    <path d="M55.187 14.567L6.004 39.377l12.274 24.33 49.183-24.81-12.274-24.33z" fill="#FFCDBD" />
    <path
      d="M55.187 14.567L6.004 39.377l12.274 24.33 49.183-24.81-12.274-24.33z"
      fill="url(#paint4_linear_2530_3510)"
    />
    <path d="M67.462 33.264l-54.495 8.05 3.982 26.958 54.495-8.05-3.982-26.958z" fill="#42AB44" />
  </g>
  <mask
    id="mask2_2530_3510"
    style="mask-type: alpha"
    maskUnits="userSpaceOnUse"
    x="4"
    y="30"
    width="59"
    height="36"
  >
    <path d="M58.603 30.767l-54.496 8.05L8.09 65.775l54.496-8.05-3.982-26.958z" fill="#fff" />
  </mask>
  <g mask="url(#mask2_2530_3510)">
    <path
      d="M58.603 30.767l-54.496 8.05L8.09 65.775l54.496-8.05-3.982-26.958z"
      fill="url(#paint5_linear_2530_3510)"
    />
    <path
      fill-rule="evenodd"
      clip-rule="evenodd"
      d="M58.603 30.765L4.107 38.814l.54 3.652 13.994-2.067 2.902 19.65-13.99 2.066.54 3.652 13.99-2.066v.007l22.709-3.355-.001-.006 17.798-2.63-.54-3.651-17.797 2.629-2.903-19.65 17.793-2.629-.539-3.651z"
      fill="url(#paint6_linear_2530_3510)"
    />
    <path
      fill-rule="evenodd"
      clip-rule="evenodd"
      d="M58.603 30.765L4.107 38.814l.54 3.652 13.994-2.067 2.902 19.65-13.99 2.066.54 3.652 13.99-2.066v.007l22.709-3.355-.001-.006 17.798-2.63-.54-3.651-17.797 2.629-2.903-19.65 17.793-2.629-.539-3.651z"
      fill="url(#paint7_linear_2530_3510)"
    />
    <path
      d="M48.36 32.281l-7.541 1.114L44.8 60.353l7.543-1.114-3.982-26.958zM56.743 38.907l-4.241.627a1.308 1.308 0 01-.382-2.587l4.241-.627a1.308 1.308 0 01.382 2.587z"
      fill="#42AB44"
    />
    <path
      d="M31.702 55.28l-2.33.344-.802-5.428-1.724.254-.166-1.128 1.724-.255-1.101-7.45 4.67-.69c.965-.142 1.822-.085 2.572.17.751.256 1.362.681 1.836 1.276.471.596.773 1.329.903 2.206.131.89.048 1.681-.252 2.376-.3.695-.787 1.26-1.462 1.7-.675.44-1.5.73-2.47.874l-2.196.324.802 5.427h-.004zm2.631-3.974l.167 1.128-7.204 1.064-.166-1.128 7.203-1.064zm-2.205-3.512a6.002 6.002 0 001.552-.43c.452-.2.795-.492 1.023-.88.229-.386.296-.905.2-1.556-.082-.554-.264-.993-.545-1.314a2.099 2.099 0 00-1.092-.651c-.446-.114-.965-.125-1.553-.038l-1.805.267.712 4.823 1.508-.223v.002z"
      fill="#fff"
    />
  </g>
  <defs>
    <linearGradient
      id="paint0_linear_2530_3510"
      x1="14.7502"
      y1="4.23757"
      x2="26.9602"
      y2="26.3432"
      gradientUnits="userSpaceOnUse"
    >
      <stop stop-color="#FEFFCF" />
      <stop offset="1" stop-color="#FFE7DA" />
    </linearGradient>
    <linearGradient
      id="paint1_linear_2530_3510"
      x1="18.587"
      y1="26.316"
      x2="32.8984"
      y2="36.8759"
      gradientUnits="userSpaceOnUse"
    >
      <stop stop-color="#DCFFE5" />
      <stop offset="1" stop-color="#EBE78C" />
    </linearGradient>
    <linearGradient
      id="paint2_linear_2530_3510"
      x1="50.4489"
      y1="15.511"
      x2="26.7341"
      y2="29.0153"
      gradientUnits="userSpaceOnUse"
    >
      <stop stop-color="#FFA183" />
      <stop offset="1" stop-color="#FFA183" stop-opacity="0" />
    </linearGradient>
    <linearGradient
      id="paint3_linear_2530_3510"
      x1="49.3436"
      y1="-56.8124"
      x2="-1.00392"
      y2="-52.0477"
      gradientUnits="userSpaceOnUse"
    >
      <stop stop-color="#42AB44" />
      <stop offset="1" stop-color="#201B37" />
    </linearGradient>
    <linearGradient
      id="paint4_linear_2530_3510"
      x1="30.5957"
      y1="26.9721"
      x2="38.6904"
      y2="42.8088"
      gradientUnits="userSpaceOnUse"
    >
      <stop stop-color="#DCFFE5" />
      <stop offset="1" stop-color="#EBE78C" />
    </linearGradient>
    <linearGradient
      id="paint5_linear_2530_3510"
      x1="4.59823"
      y1="42.1396"
      x2="53.0558"
      y2="55.1262"
      gradientUnits="userSpaceOnUse"
    >
      <stop stop-color="#FFF7F4" />
      <stop offset="0.34234" stop-color="#FEFFCF" />
      <stop offset="1" stop-color="#FFE7DA" />
      <stop offset="1" stop-color="#FFE7DA" />
    </linearGradient>
    <linearGradient
      id="paint6_linear_2530_3510"
      x1="19.1708"
      y1="32.1466"
      x2="29.8454"
      y2="57.3534"
      gradientUnits="userSpaceOnUse"
    >
      <stop stop-color="#FFCA42" />
      <stop offset="1" stop-color="#FFA183" />
    </linearGradient>
    <linearGradient
      id="paint7_linear_2530_3510"
      x1="20.2683"
      y1="42.9389"
      x2="26.6235"
      y2="64.3382"
      gradientUnits="userSpaceOnUse"
    >
      <stop stop-color="#7DC15D" />
      <stop offset="1" stop-color="#FEE54F" />
    </linearGradient>
  </defs>
</svg>
