<svg width="24" height="24" fill="none" xmlns="http://www.w3.org/2000/svg">
  <g clip-path="url(#a)">
    <path
      d="M19.406 12.761c-.023-3.028 2.793-4.511 2.93-4.572-1.603-2.073-4.075-2.357-4.968-2.377-2.083-.204-4.098 1.117-5.174 1.117-1.076 0-2.725-1.097-4.488-1.056-2.266.04-4.395 1.198-5.563 3.007-2.404 3.698-.618 9.124 1.694 12.09 1.145 1.464 2.496 3.09 4.259 3.028 1.717-.06 2.358-.975 4.441-.975 2.06 0 2.656.975 4.465.935 1.854-.02 3.022-1.463 4.12-2.947 1.329-1.666 1.855-3.332 1.878-3.413 0 0-3.549-1.2-3.594-4.837Zm-3.389-8.92c.916-1.037 1.557-2.419 1.374-3.841-1.35.061-3.022.833-3.984 1.829-.847.894-1.625 2.337-1.42 3.698 1.512.102 3.069-.67 4.03-1.686Z"
      fill="#42AB44"
    />
  </g>
  <defs>
    <clipPath id="a">
      <rect width="24" height="24" rx="6" fill="#fff" />
    </clipPath>
  </defs>
</svg>
