<svg
  width="70"
  height="70"
  viewBox="0 0 70 70"
  fill="none"
  xmlns="http://www.w3.org/2000/svg">
  <path
    d="M39.5 67C54.6878 67 67 65.2091 67 63C67 60.7909 54.6878 59 39.5 59C24.3122 59 12 60.7909 12 63C12 65.2091 24.3122 67 39.5 67Z"
    fill="#050304"
  />
  <path
    d="M39.5 67C54.6878 67 67 65.2091 67 63C67 60.7909 54.6878 59 39.5 59C24.3122 59 12 60.7909 12 63C12 65.2091 24.3122 67 39.5 67Z"
    fill="url(#paint0_linear_2517_330)"
  />
  <path
    d="M39.5 67C54.6878 67 67 65.2091 67 63C67 60.7909 54.6878 59 39.5 59C24.3122 59 12 60.7909 12 63C12 65.2091 24.3122 67 39.5 67Z"
    fill="#050304"
  />
  <path
    d="M39.5 67C54.6878 67 67 65.2091 67 63C67 60.7909 54.6878 59 39.5 59C24.3122 59 12 60.7909 12 63C12 65.2091 24.3122 67 39.5 67Z"
    fill="url(#paint1_linear_2517_330)"
  />
  <path
    d="M33.2694 9.95129C33.6521 9.95129 36.5671 9.95129 36.9498 9.95129C49.943 9.95129 60.4804 20.4887 60.4804 33.4819C60.4804 46.4751 49.943 57.0125 36.9435 57.0125H33.263C20.2698 57.0125 9.73242 46.4751 9.73242 33.4819C9.73242 20.4887 20.2698 9.95129 33.2694 9.95129Z"
    fill="#42AB44"
  />
  <path
    d="M33.2694 9.95129C33.6521 9.95129 36.5671 9.95129 36.9498 9.95129C49.943 9.95129 60.4804 20.4887 60.4804 33.4819C60.4804 46.4751 49.943 57.0125 36.9435 57.0125H33.263C20.2698 57.0125 9.73242 46.4751 9.73242 33.4819C9.73242 20.4887 20.2698 9.95129 33.2694 9.95129Z"
    fill="url(#paint2_radial_2517_330)"
  />
  <path
    d="M33.2694 9.95129C33.6521 9.95129 36.5671 9.95129 36.9498 9.95129C49.943 9.95129 60.4804 20.4887 60.4804 33.4819C60.4804 46.4751 49.943 57.0125 36.9435 57.0125H33.263C20.2698 57.0125 9.73242 46.4751 9.73242 33.4819C9.73242 20.4887 20.2698 9.95129 33.2694 9.95129Z"
    fill="url(#paint3_linear_2517_330)"
  />
  <path
    d="M36.9435 9.95129C36.5608 9.95129 33.6458 9.95129 33.2631 9.95129C46.2562 9.95129 56.7937 20.4887 56.7937 33.4819C56.7937 46.4751 46.2626 57.0125 33.2631 57.0125H36.9371C49.9303 57.0125 60.4677 46.4751 60.4677 33.4819C60.4677 20.4887 49.9431 9.95129 36.9435 9.95129Z"
    fill="url(#paint4_linear_2517_330)"
  />
  <path
    d="M30.3418 3.10706H32.1788H36.191H38.028C39.2654 3.10706 40.2669 4.10849 40.2669 5.34594C40.2669 6.58338 39.2654 7.58482 38.028 7.58482H36.191H32.1788H30.3418C29.1043 7.58482 28.1029 6.58338 28.1029 5.34594C28.1029 4.10849 29.1043 3.10706 30.3418 3.10706Z"
    fill="#FFCA42"
  />
  <path
    d="M30.3418 3.10706H32.1788H36.191H38.028C39.2654 3.10706 40.2669 4.10849 40.2669 5.34594C40.2669 6.58338 39.2654 7.58482 38.028 7.58482H36.191H32.1788H30.3418C29.1043 7.58482 28.1029 6.58338 28.1029 5.34594C28.1029 4.10849 29.1043 3.10706 30.3418 3.10706Z"
    fill="url(#paint5_linear_2517_330)"
  />
  <path
    d="M38.0345 3.10706H36.6759C37.5753 3.45788 38.2068 4.32537 38.2068 5.34594C38.2068 6.36651 37.5689 7.234 36.6759 7.58482H38.0345C39.272 7.58482 40.2734 6.58338 40.2734 5.34594C40.2734 4.10849 39.272 3.10706 38.0345 3.10706Z"
    fill="#2A473B"
  />
  <path
    d="M32.3511 5.48009C34.1759 5.48009 35.6552 5.10312 35.6552 4.63812C35.6552 4.17311 34.1759 3.79614 32.3511 3.79614C30.5263 3.79614 29.047 4.17311 29.047 4.63812C29.047 5.10312 30.5263 5.48009 32.3511 5.48009Z"
    fill="white"
  />
  <path
    d="M31.0499 7.591H32.887H35.4894H37.3264C37.3264 8.80931 38.0919 9.5875 38.6468 9.98935C38.7935 10.0978 38.717 10.3274 38.5384 10.3274H37.3775H31.0053H29.8444C29.6594 10.3274 29.5828 10.0978 29.7359 9.98935C30.2845 9.58112 31.0499 8.80293 31.0499 7.591Z"
    fill="#ABBC43"
  />
  <path
    d="M37.371 10.3274H38.5319C38.7168 10.3274 38.7934 10.0978 38.6403 9.98935C38.0854 9.5875 37.3199 8.80931 37.3199 7.591H35.4893H32.8868H31.0498C31.0498 7.81425 31.0243 8.01837 30.9796 8.20973C32.2553 8.2161 34.2072 8.25438 34.8897 8.44573C35.9294 8.73915 36.5481 9.07084 36.529 9.77248C36.5226 9.93832 36.4971 10.1361 36.4652 10.3338H37.371V10.3274Z"
    fill="#050304"
  />
  <path
    d="M33.2692 53.0258C44.0631 53.0258 52.8132 44.2757 52.8132 33.4819C52.8132 22.688 44.0631 13.9379 33.2692 13.9379C22.4754 13.9379 13.7252 22.688 13.7252 33.4819C13.7252 44.2757 22.4754 53.0258 33.2692 53.0258Z"
    fill="#FFCA42"
  />
  <path
    d="M33.2692 53.0258C44.0631 53.0258 52.8132 44.2757 52.8132 33.4819C52.8132 22.688 44.0631 13.9379 33.2692 13.9379C22.4754 13.9379 13.7252 22.688 13.7252 33.4819C13.7252 44.2757 22.4754 53.0258 33.2692 53.0258Z"
    fill="url(#paint6_linear_2517_330)"
  />
  <path
    d="M39.6431 36.0148C42.6555 36.0148 45.0976 33.5728 45.0976 30.5604C45.0976 27.548 42.6555 25.106 39.6431 25.106C36.6308 25.106 34.1887 27.548 34.1887 30.5604C34.1887 33.5728 36.6308 36.0148 39.6431 36.0148Z"
    fill="#FFCA42"
  />
  <path
    d="M36.1906 46.3858C30.9538 46.3858 26.3421 43.7132 23.644 39.6628L20.3207 41.7996C19.6637 42.2206 19.5234 43.1072 19.9954 43.726C23.0635 47.6934 27.8666 50.2449 33.2693 50.2449C40.5089 50.2449 46.6834 45.6523 49.0244 39.2163C46.3709 43.5219 41.6188 46.3858 36.1906 46.3858Z"
    fill="url(#paint7_linear_2517_330)"
  />
  <path
    d="M33.7478 30.5603C32.1341 30.5603 30.8201 31.8679 30.8201 33.4881C30.8201 33.7687 30.8647 34.0366 30.9349 34.2918L20.3847 41.5123C20.238 41.6144 20.1997 41.8121 20.2954 41.9652C20.3911 42.1183 20.5952 42.1629 20.7483 42.0673L31.7131 35.5802C32.2425 36.0905 32.9569 36.4095 33.7542 36.4095C35.368 36.4095 36.682 35.1019 36.682 33.4817C36.6692 31.8679 35.3616 30.5603 33.7478 30.5603Z"
    fill="#050304"
  />
  <path
    d="M33.2692 50.2449C32.9566 50.2449 32.7015 49.9898 32.7015 49.6772V48.0826C32.7015 47.77 32.9566 47.5149 33.2692 47.5149C33.5817 47.5149 33.8305 47.7764 33.8305 48.089V49.6836C33.8305 49.9898 33.5817 50.2449 33.2692 50.2449ZM33.2692 19.4427C32.9566 19.4427 32.7015 19.1876 32.7015 18.875V17.2804C32.7015 16.9679 32.9566 16.7127 33.2692 16.7127C33.5817 16.7127 33.8305 16.9742 33.8305 17.2868V18.8814C33.8305 19.194 33.5817 19.4427 33.2692 19.4427ZM21.8132 45.4993C21.6665 45.4993 21.5262 45.4419 21.4114 45.3334C21.1881 45.1102 21.1881 44.753 21.4114 44.5361L22.5404 43.4071C22.7636 43.1838 23.1208 43.1838 23.3377 43.4071C23.561 43.6303 23.561 43.9875 23.3377 44.2044L22.2087 45.3334C22.1067 45.4482 21.9599 45.4993 21.8132 45.4993ZM43.5961 23.7228C43.4494 23.7228 43.3091 23.6654 43.1943 23.5569C42.971 23.3337 42.971 22.9765 43.1943 22.7596L44.3233 21.6306C44.5465 21.4073 44.9037 21.4073 45.1206 21.6306C45.3438 21.8538 45.3438 22.211 45.1206 22.4279L43.9916 23.5569C43.8831 23.6654 43.7364 23.7228 43.5961 23.7228ZM49.4644 34.0497H47.8698C47.5572 34.0497 47.3021 33.7946 47.3021 33.482C47.3021 33.1695 47.5572 32.9143 47.8698 32.9143H49.4644C49.777 32.9143 50.0321 33.1695 50.0321 33.482C50.0321 33.7946 49.777 34.0497 49.4644 34.0497ZM18.6622 34.0497H17.0676C16.755 34.0497 16.4999 33.7946 16.4999 33.482C16.4999 33.1695 16.755 32.9143 17.0676 32.9143H18.6622C18.9748 32.9143 19.2299 33.1695 19.2299 33.482C19.2299 33.7946 18.9748 34.0497 18.6622 34.0497ZM44.7187 45.4993C44.572 45.4993 44.4317 45.4419 44.3169 45.3334L43.1879 44.2044C42.9646 43.9812 42.9646 43.624 43.1879 43.4071C43.4111 43.1838 43.7683 43.1838 43.9852 43.4071L45.1142 44.5361C45.3375 44.7593 45.3375 45.1165 45.1142 45.3334C45.0122 45.4482 44.8654 45.4993 44.7187 45.4993ZM22.9422 23.7228C22.7955 23.7228 22.6552 23.6654 22.5404 23.5569L21.4114 22.4279C21.1881 22.2047 21.1881 21.8475 21.4114 21.6306C21.6346 21.4073 21.9918 21.4073 22.2087 21.6306L23.3377 22.7596C23.561 22.9829 23.561 23.3401 23.3377 23.5569C23.2293 23.6654 23.089 23.7228 22.9422 23.7228Z"
    fill="#050304"
  />
  <path
    d="M55.8418 15.0964L53.88 13.1072L51.1551 15.7946L53.1169 17.7838L55.8418 15.0964Z"
    fill="#253139"
  />
  <path
    d="M56.6468 15.9086L53.0748 12.2856C52.5645 11.7689 52.5709 10.9334 53.0876 10.4167L53.9295 9.58109C54.4462 9.07081 55.2818 9.07719 55.7985 9.59385L59.3705 13.2169C59.8808 13.7336 59.8744 14.5691 59.3577 15.0858L58.5157 15.9214C57.9927 16.4317 57.1571 16.4253 56.6468 15.9086Z"
    fill="#FFCA42"
  />
  <path
    d="M56.6468 15.9086L53.0748 12.2856C52.5645 11.7689 52.5709 10.9334 53.0876 10.4167L53.9295 9.58109C54.4462 9.07081 55.2818 9.07719 55.7985 9.59385L59.3705 13.2169C59.8808 13.7336 59.8744 14.5691 59.3577 15.0858L58.5157 15.9214C57.9927 16.4317 57.1571 16.4253 56.6468 15.9086Z"
    fill="url(#paint8_linear_2517_330)"
  />
  <path
    d="M56.4197 12.2408C56.7411 11.9195 56.5371 11.1946 55.9642 10.6216C55.3913 10.0487 54.6663 9.84476 54.345 10.1661C54.0237 10.4874 54.2276 11.2124 54.8006 11.7853C55.3735 12.3582 56.0984 12.5622 56.4197 12.2408Z"
    fill="white"
  />
  <defs>
    <linearGradient
      id="paint0_linear_2517_330"
      x1="67.0001"
      y1="67"
      x2="12.0591"
      y2="67"
      gradientUnits="userSpaceOnUse"
    >
      <stop offset="0.135417" stop-color="#0057D6" />
      <stop offset="0.515625" stop-color="#0057D6" stop-opacity="0" />
      <stop offset="0.739583" stop-color="#FA552D" stop-opacity="0" />
      <stop offset="1" stop-color="#FA552D" />
    </linearGradient>
    <linearGradient
      id="paint1_linear_2517_330"
      x1="67.0001"
      y1="67"
      x2="12.0591"
      y2="67"
      gradientUnits="userSpaceOnUse"
    >
      <stop stop-color="#04D600" />
      <stop offset="0.296875" stop-color="#00D63C" stop-opacity="0" />
      <stop offset="0.832638" stop-color="#FA552D" stop-opacity="0" />
      <stop offset="1" stop-color="#FA552D" />
    </linearGradient>
    <radialGradient
      id="paint2_radial_2517_330"
      cx="0"
      cy="0"
      r="1"
      gradientUnits="userSpaceOnUse"
      gradientTransform="translate(36.068 34.7611) rotate(51.5681) scale(25.4564 26.5281)"
    >
      <stop offset="0.892063" stop-color="#FFCA42" stop-opacity="0" />
      <stop offset="1" stop-color="#FFCA42" />
    </radialGradient>
    <linearGradient
      id="paint3_linear_2517_330"
      x1="48.7928"
      y1="52.0122"
      x2="38.4972"
      y2="33.4819"
      gradientUnits="userSpaceOnUse"
    >
      <stop stop-color="#93BE4C" />
      <stop offset="1" stop-color="#93BE4C" stop-opacity="0" />
    </linearGradient>
    <linearGradient
      id="paint4_linear_2517_330"
      x1="77.2146"
      y1="39.3597"
      x2="42.1324"
      y2="25.6913"
      gradientUnits="userSpaceOnUse"
    >
      <stop stop-color="#42AB44" />
      <stop offset="1" stop-color="#201B37" />
    </linearGradient>
    <linearGradient
      id="paint5_linear_2517_330"
      x1="28.1029"
      y1="7.58482"
      x2="31.7789"
      y2="7.58482"
      gradientUnits="userSpaceOnUse"
    >
      <stop stop-color="#FA552D" />
      <stop offset="1" stop-color="#FA552D" stop-opacity="0" />
    </linearGradient>
    <linearGradient
      id="paint6_linear_2517_330"
      x1="28.7383"
      y1="31.6662"
      x2="21.2288"
      y2="15.8961"
      gradientUnits="userSpaceOnUse"
    >
      <stop stop-color="#FEFFCF" />
      <stop offset="1" stop-color="#FEFFCF" stop-opacity="0" />
    </linearGradient>
    <linearGradient
      id="paint7_linear_2517_330"
      x1="23.0666"
      y1="42.0457"
      x2="45.8493"
      y2="50.2449"
      gradientUnits="userSpaceOnUse"
    >
      <stop stop-color="#CBE482" />
      <stop offset="1" stop-color="#7DC15D" />
    </linearGradient>
    <linearGradient
      id="paint8_linear_2517_330"
      x1="52.696"
      y1="13.3136"
      x2="54.341"
      y2="9.20233"
      gradientUnits="userSpaceOnUse"
    >
      <stop stop-color="#FA552D" />
      <stop offset="1" stop-color="#FA552D" stop-opacity="0" />
    </linearGradient>
  </defs>
</svg>
