<svg id="icon" width="70" height="54" fill="none" xmlns="http://www.w3.org/2000/svg"><path d="M66.478 34.563H19.042a3.53 3.53 0 0 1-3.52-3.52V4.465a3.53 3.53 0 0 1 3.52-3.52h47.436a3.53 3.53 0 0 1 3.52 3.52V31.06c0 1.936-1.584 3.502-3.52 3.502Z" fill="#39486D"/><path d="M66.478 34.563H19.042a3.53 3.53 0 0 1-3.52-3.52V4.465a3.53 3.53 0 0 1 3.52-3.52h47.436a3.53 3.53 0 0 1 3.52 3.52V31.06c0 1.936-1.584 3.502-3.52 3.502Z" fill="url(#a)"/><path d="M66.478 34.563H19.042a3.53 3.53 0 0 1-3.52-3.52V4.465a3.53 3.53 0 0 1 3.52-3.52h47.436a3.53 3.53 0 0 1 3.52 3.52V31.06c0 1.936-1.584 3.502-3.52 3.502Z" fill="url(#b)"/><mask id="c" style="mask-type:alpha" maskUnits="userSpaceOnUse" x="14" y="0" width="56" height="35"><path d="M65.615 34.563H18.179a3.53 3.53 0 0 1-3.52-3.52V4.465a3.53 3.53 0 0 1 3.52-3.52h47.436a3.53 3.53 0 0 1 3.52 3.52V31.06a3.504 3.504 0 0 1-3.52 3.502Z" fill="#fff"/></mask><g mask="url(#c)"><path d="M65.615 34.565H18.179a3.53 3.53 0 0 1-3.52-3.52V4.464a3.53 3.53 0 0 1 3.52-3.52h47.436a3.53 3.53 0 0 1 3.52 3.52v26.597a3.504 3.504 0 0 1-3.52 3.503Z" fill="#7DC15D"/><path d="M65.615 34.565H18.179a3.53 3.53 0 0 1-3.52-3.52V4.464a3.53 3.53 0 0 1 3.52-3.52h47.436a3.53 3.53 0 0 1 3.52 3.52v26.597a3.504 3.504 0 0 1-3.52 3.503Z" fill="url(#d)"/><path d="M46.625 47.8H-.812a3.53 3.53 0 0 1-3.52-3.52V17.682a3.53 3.53 0 0 1 3.52-3.52h47.437a3.53 3.53 0 0 1 3.52 3.52V44.28a3.53 3.53 0 0 1-3.52 3.52Z" fill="url(#e)"/><path d="M46.625 47.8H-.812a3.53 3.53 0 0 1-3.52-3.52V17.682a3.53 3.53 0 0 1 3.52-3.52h47.437a3.53 3.53 0 0 1 3.52 3.52V44.28a3.53 3.53 0 0 1-3.52 3.52Z" fill="url(#f)"/><path d="M69.137 8.495H14.66v6.742h54.477V8.495Z" fill="url(#g)"/><path d="M64.455 21.116H58.4a1.16 1.16 0 1 1 0-2.323h6.055a1.16 1.16 0 0 1 1.162 1.162c0 .633-.528 1.161-1.162 1.161Z" fill="#83B83E"/></g><path d="M51.816 53.15H4.38a3.53 3.53 0 0 1-3.52-3.52V23.034a3.53 3.53 0 0 1 3.52-3.52h47.436a3.53 3.53 0 0 1 3.52 3.52V49.63a3.52 3.52 0 0 1-3.52 3.52Z" fill="#39486D"/><path d="M51.816 53.15H4.38a3.53 3.53 0 0 1-3.52-3.52V23.034a3.53 3.53 0 0 1 3.52-3.52h47.436a3.53 3.53 0 0 1 3.52 3.52V49.63a3.52 3.52 0 0 1-3.52 3.52Z" fill="url(#h)"/><path d="M51.816 53.15H4.38a3.53 3.53 0 0 1-3.52-3.52V23.034a3.53 3.53 0 0 1 3.52-3.52h47.436a3.53 3.53 0 0 1 3.52 3.52V49.63a3.52 3.52 0 0 1-3.52 3.52Z" fill="url(#i)"/><mask id="j" style="mask-type:alpha" maskUnits="userSpaceOnUse" x="-1" y="19" width="56" height="35"><path d="M50.953 53.15H3.516a3.53 3.53 0 0 1-3.52-3.52V23.034a3.53 3.53 0 0 1 3.52-3.52h47.437a3.53 3.53 0 0 1 3.52 3.52V49.63a3.52 3.52 0 0 1-3.52 3.52Z" fill="#fff"/></mask><g mask="url(#j)"><path d="M50.953 53.15H3.516a3.53 3.53 0 0 1-3.52-3.52V23.034a3.53 3.53 0 0 1 3.52-3.52h47.437a3.53 3.53 0 0 1 3.52 3.52V49.63a3.52 3.52 0 0 1-3.52 3.52Z" fill="#C4D7D8"/><path d="M50.953 53.15H3.516a3.53 3.53 0 0 1-3.52-3.52V23.034a3.53 3.53 0 0 1 3.52-3.52h47.437a3.53 3.53 0 0 1 3.52 3.52V49.63a3.52 3.52 0 0 1-3.52 3.52Z" fill="url(#k)"/><path d="M50.953 53.15H3.516a3.53 3.53 0 0 1-3.52-3.52V23.034a3.53 3.53 0 0 1 3.52-3.52h47.437a3.53 3.53 0 0 1 3.52 3.52V49.63a3.52 3.52 0 0 1-3.52 3.52Z" fill="url(#l)"/><path d="M49.564 62.514H29.586L55.619 25.64h19.978L49.564 62.514Z" fill="#fff"/><path d="M49.564 62.514H29.586L55.619 25.64h19.978L49.564 62.514Z" fill="url(#m)"/><path d="M-8.345 49.19h-3.292l26.033-36.875h3.31L-8.346 49.19Z" fill="#fff"/><path d="M21.365 47.87H6.545a1.16 1.16 0 1 1 0-2.323h14.838a1.16 1.16 0 0 1 1.161 1.162c0 .633-.528 1.161-1.179 1.161Z" fill="#39486D"/><path d="M21.365 47.87H6.545a1.16 1.16 0 1 1 0-2.323h14.838a1.16 1.16 0 0 1 1.161 1.162c0 .633-.528 1.161-1.179 1.161Z" fill="#004B1A"/><path d="M12.584 42.009h-5.88a1.16 1.16 0 1 1 0-2.323h5.88a1.16 1.16 0 0 1 1.161 1.161 1.16 1.16 0 0 1-1.161 1.162Zm12.902-1.18a1.16 1.16 0 0 0-1.162-1.161h-5.879a1.16 1.16 0 1 0 0 2.323h5.879c.634.018 1.162-.51 1.162-1.161Zm11.722 0a1.16 1.16 0 0 0-1.161-1.161h-5.88a1.16 1.16 0 1 0 0 2.323h5.88c.633.018 1.161-.51 1.161-1.161Zm11.74 0a1.16 1.16 0 0 0-1.161-1.161h-5.879a1.16 1.16 0 1 0 0 2.323h5.879c.634.018 1.162-.51 1.162-1.161Z" fill="#39486D"/><path d="M12.584 42.009h-5.88a1.16 1.16 0 1 1 0-2.323h5.88a1.16 1.16 0 0 1 1.161 1.161 1.16 1.16 0 0 1-1.161 1.162Zm12.902-1.18a1.16 1.16 0 0 0-1.162-1.161h-5.879a1.16 1.16 0 1 0 0 2.323h5.879c.634.018 1.162-.51 1.162-1.161Zm11.722 0a1.16 1.16 0 0 0-1.161-1.161h-5.88a1.16 1.16 0 1 0 0 2.323h5.88c.633.018 1.161-.51 1.161-1.161Zm11.74 0a1.16 1.16 0 0 0-1.161-1.161h-5.879a1.16 1.16 0 1 0 0 2.323h5.879c.634.018 1.162-.51 1.162-1.161Z" fill="#004B1A"/><path d="M11.983 33.824H7.32c-.968 0-1.76-.793-1.76-1.76v-4.665c0-.968.792-1.76 1.76-1.76h4.664c.968 0 1.76.792 1.76 1.76v4.664c0 .968-.792 1.76-1.76 1.76Z" fill="#39486D"/><path d="M11.983 33.824H7.32c-.968 0-1.76-.793-1.76-1.76v-4.665c0-.968.792-1.76 1.76-1.76h4.664c.968 0 1.76.792 1.76 1.76v4.664c0 .968-.792 1.76-1.76 1.76Z" fill="#004B1A"/><path d="M44.828 33.841a4.101 4.101 0 1 0 0-8.202 4.101 4.101 0 0 0 0 8.202Z" fill="#83B83E"/></g><defs><linearGradient id="a" x1="69.999" y1="34.563" x2="69.999" y2="17.754" gradientUnits="userSpaceOnUse"><stop stop-color="#0057D6"/><stop offset="1" stop-color="#0057D6" stop-opacity="0"/></linearGradient><linearGradient id="b" x1="50.316" y1="-79.203" x2="-2.573" y2="-70.699" gradientUnits="userSpaceOnUse"><stop stop-color="#00910E"/><stop offset=".622" stop-color="#003F1D"/><stop offset="1" stop-color="#002B9A"/></linearGradient><linearGradient id="d" x1=".243" y1="-13.056" x2="53.812" y2="38.382" gradientUnits="userSpaceOnUse"><stop stop-color="#FFCA42"/><stop offset="1" stop-color="#FFCA42" stop-opacity="0"/></linearGradient><linearGradient id="e" x1="50.145" y1="34.899" x2="37.873" y2="23.856" gradientUnits="userSpaceOnUse"><stop stop-color="#0057D6"/><stop offset="1" stop-color="#0057D6" stop-opacity="0"/></linearGradient><linearGradient id="f" x1="83.087" y1="1.86" x2="57.23" y2="55.782" gradientUnits="userSpaceOnUse"><stop stop-color="#00910E"/><stop offset=".622" stop-color="#003F1D"/><stop offset="1" stop-color="#002B9A"/></linearGradient><linearGradient id="g" x1="49.455" y1="-7.576" x2="16.431" y2="18.904" gradientUnits="userSpaceOnUse"><stop stop-color="#00910E"/><stop offset=".622" stop-color="#003F1D"/><stop offset="1" stop-color="#9A2500"/></linearGradient><linearGradient id="h" x1="55.337" y1="53.151" x2="55.337" y2="36.332" gradientUnits="userSpaceOnUse"><stop stop-color="#0057D6"/><stop offset="1" stop-color="#0057D6" stop-opacity="0"/></linearGradient><linearGradient id="i" x1="35.654" y1="-60.675" x2="-17.236" y2="-52.176" gradientUnits="userSpaceOnUse"><stop stop-color="#00910E"/><stop offset=".622" stop-color="#003F1D"/><stop offset="1" stop-color="#002B9A"/></linearGradient><linearGradient id="k" x1="1.13" y1="20.456" x2="54.473" y2="53.151" gradientUnits="userSpaceOnUse"><stop stop-color="#D5F5C5"/><stop offset="1" stop-color="#D5F5C5" stop-opacity="0"/></linearGradient><linearGradient id="m" x1="55.355" y1="27.807" x2="55.355" y2="52.621" gradientUnits="userSpaceOnUse"><stop stop-color="#FEFFCF"/><stop offset="1" stop-color="#FEFFCF" stop-opacity="0"/></linearGradient><radialGradient id="l" cx="0" cy="0" r="1" gradientUnits="userSpaceOnUse" gradientTransform="rotate(30.527 -56.692 54.365) scale(20.5704 84.065)"><stop stop-color="#FFE7DA"/><stop offset="1" stop-color="#FFE7DA" stop-opacity="0"/></radialGradient></defs></svg>
