<svg width="24" height="24" viewBox="0 0 24 24" fill="none" xmlns="http://www.w3.org/2000/svg">
  <path
    d="M12 24C18.6274 24 24 18.6274 24 12C24 5.37258 18.6274 0 12 0C5.37258 0 0 5.37258 0 12C0 18.6274 5.37258 24 12 24Z"
    fill="#46B448"
  />
  <path
    d="M14.58 14.5193C14.58 12.0548 7.8413 13.521 7.8413 9.52803C7.8413 8.07753 9.1358 6.82953 11.1165 6.51753V5.26953H12.9105V6.48603C14.3303 6.62703 15.531 7.18803 16.3418 7.99953L15.3128 9.34053C14.3768 8.56053 13.3785 8.20203 12.0683 8.20203C10.914 8.20203 9.7913 8.56053 9.7913 9.48078C9.7913 11.6805 16.5293 10.3703 16.5293 14.3783C16.5293 16.1408 14.9385 17.3895 12.9105 17.5763V18.918H11.1165V17.4975C9.6038 17.2328 8.26205 16.4835 7.5293 15.6105L8.65205 14.2845C9.58805 15.267 10.977 15.8445 12.5048 15.8445C13.815 15.8445 14.5793 15.345 14.5793 14.5185L14.58 14.5193Z"
    fill="white"
  />
</svg>
