<svg width="70" height="70" fill="none" xmlns="http://www.w3.org/2000/svg"><path d="M38.528 62.959c-17.382 0-31.473-14.091-31.473-31.473C7.055 14.104 21.145.014 38.528.014 55.909.014 70 14.104 70 31.486S55.91 62.96 38.528 62.96Z" fill="url(#a)"/><g style="mix-blend-mode:color-burn"><path d="M55.47 20.3c2.851-2.194-4.496-7.348-3.948-12.337.549-4.825 7.457-.33 7.896 0C65.888 13.72 70 22.109 70 31.485c0 10.143-4.825 19.19-12.282 24.947 5.428-7.73-.164-8.773-6.196-9.32-6.031-.55-5.702 7.182-7.895 5.866-2.193-1.261-3.29-4.386.164-6.415 3.51-2.029 3.674-5.483.165-6.635-3.51-1.096-7.347 0-6.25-4.605 1.096-4.606-4.387-.548-6.032-7.731-1.645-7.183 20.945-5.1 23.796-7.293Z" fill="#3B4B80"/><path d="M55.47 20.3c2.851-2.194-4.496-7.348-3.948-12.337.549-4.825 7.457-.33 7.896 0C65.888 13.72 70 22.109 70 31.485c0 10.143-4.825 19.19-12.282 24.947 5.428-7.73-.164-8.773-6.196-9.32-6.031-.55-5.702 7.182-7.895 5.866-2.193-1.261-3.29-4.386.164-6.415 3.51-2.029 3.674-5.483.165-6.635-3.51-1.096-7.347 0-6.25-4.605 1.096-4.606-4.387-.548-6.032-7.731-1.645-7.183 20.945-5.1 23.796-7.293Z" fill="url(#b)"/></g><g style="mix-blend-mode:color-burn"><path d="M23.034 4.125A31.492 31.492 0 0 0 7.462 26.77c.549 3.235 2.413-6.909 4.441 2.906.658 3.235 2.358 1.151 2.358 1.151.658-.822-.274-2.796.877-3.509 3.126-1.864 5.538-1.974 5.758-5.483.219-4.77-3.345-3.016-1.865-7.621 1.48-4.606 6.964-2.248 6.854-5.757-.11-1.645-1.426-3.18-2.851-4.332Z" fill="#3B4B80"/><path d="M23.034 4.125A31.492 31.492 0 0 0 7.462 26.77c.549 3.235 2.413-6.909 4.441 2.906.658 3.235 2.358 1.151 2.358 1.151.658-.822-.274-2.796.877-3.509 3.126-1.864 5.538-1.974 5.758-5.483.219-4.77-3.345-3.016-1.865-7.621 1.48-4.606 6.964-2.248 6.854-5.757-.11-1.645-1.426-3.18-2.851-4.332Z" fill="url(#c)"/></g><path d="M38.527 70.25c15.384 0 27.854-1.005 27.854-2.247s-12.47-2.248-27.854-2.248c-15.383 0-27.853 1.006-27.853 2.248 0 1.242 12.47 2.248 27.853 2.248Z" fill="#050304"/><path d="M38.527 70.25c15.384 0 27.854-1.005 27.854-2.247s-12.47-2.248-27.854-2.248c-15.383 0-27.853 1.006-27.853 2.248 0 1.242 12.47 2.248 27.853 2.248Z" fill="url(#d)"/><path d="M38.527 70.25c15.384 0 27.854-1.005 27.854-2.247s-12.47-2.248-27.854-2.248c-15.383 0-27.853 1.006-27.853 2.248 0 1.242 12.47 2.248 27.853 2.248Z" fill="url(#e)"/><path d="M32.076 8.434s10.301 21.379 7.13 39.564c-5.329 30.532-26.925 6.057-29.651-6.064-2.727-12.12 22.52-33.5 22.52-33.5Z" fill="url(#f)"/><path d="M32.076 8.434s10.301 21.379 7.13 39.564c-5.329 30.532-26.925 6.057-29.651-6.064-2.727-12.12 22.52-33.5 22.52-33.5Z" fill="url(#g)"/><path d="M29.775 4.986s10.301 21.379 7.13 39.564C31.576 75.082 9.98 50.607 7.254 38.486c-2.726-12.121 22.521-33.5 22.521-33.5Z" fill="url(#h)"/><g style="mix-blend-mode:color-burn"><path d="M29.775 4.983s10.301 21.379 7.13 39.564c-5.418 21.288-16.014 17.051-18.74 4.93-2.726-12.12 11.61-44.494 11.61-44.494Z" fill="url(#i)"/><path d="M29.775 4.983s10.301 21.379 7.13 39.564c-5.418 21.288-16.014 17.051-18.74 4.93-2.726-12.12 11.61-44.494 11.61-44.494Z" fill="url(#j)"/></g><path d="M29.67 55.56C31.455 43.243 7.64 28.197 7.64 28.197s-5.353 9.13-.91 21.482c4.443 12.353 21.558 15.143 22.94 5.88Z" fill="url(#k)"/><path d="M27.37 54.409C29.154 42.094 5.34 27.048 5.34 27.048s-5.354 9.13-.91 21.482c4.442 12.352 21.558 15.143 22.94 5.879Z" fill="url(#l)"/><path d="M27.37 54.409C29.154 42.094 5.34 27.048 5.34 27.048s5.823 12.246 10.266 24.598C20.049 64 25.919 59.346 27.37 54.41Z" fill="url(#m)"/><path d="M27.37 54.409C29.154 42.094 5.34 27.048 5.34 27.048s5.823 12.246 10.266 24.598C20.049 64 25.919 59.346 27.37 54.41Z" fill="url(#n)"/><defs><linearGradient id="b" x1="59.539" y1="1.64" x2="43.692" y2="10.175" gradientUnits="userSpaceOnUse"><stop stop-color="#42AB44"/><stop offset="1" stop-color="#42AB44" stop-opacity="0"/></linearGradient><linearGradient id="c" x1="20.869" y1="1.91" x2="12.89" y2="5.728" gradientUnits="userSpaceOnUse"><stop stop-color="#42AB44"/><stop offset="1" stop-color="#42AB44" stop-opacity="0"/></linearGradient><linearGradient id="d" x1="66.588" y1="65.755" x2="66.434" y2="69.252" gradientUnits="userSpaceOnUse"><stop stop-color="#04D600"/><stop offset="1" stop-color="#00D63C" stop-opacity="0"/></linearGradient><linearGradient id="e" x1="66.587" y1="68.244" x2="33.714" y2="68.244" gradientUnits="userSpaceOnUse"><stop stop-color="#AA5200"/><stop offset="1" stop-color="#FF6B00" stop-opacity="0"/></linearGradient><linearGradient id="f" x1="21.746" y1="26.144" x2="2.92" y2="40.884" gradientUnits="userSpaceOnUse"><stop stop-color="#0D1222"/><stop offset="1" stop-color="#3137C5"/></linearGradient><linearGradient id="g" x1="24.037" y1="18.939" x2="3.527" y2="37.542" gradientUnits="userSpaceOnUse"><stop offset=".056"/><stop offset="1" stop-color="#C53131"/></linearGradient><linearGradient id="h" x1="20.39" y1="16.35" x2="28.933" y2="44.943" gradientUnits="userSpaceOnUse"><stop stop-color="#FEE54F"/><stop offset="1" stop-color="#42AB44"/></linearGradient><linearGradient id="i" x1="28.66" y1="32.223" x2="37.624" y2="29.528" gradientUnits="userSpaceOnUse"><stop stop-color="#127619"/><stop offset="1" stop-color="#C17845"/></linearGradient><linearGradient id="j" x1="28.967" y1=".657" x2="19.01" y2="4.284" gradientUnits="userSpaceOnUse"><stop stop-color="#42AB44"/><stop offset="1" stop-color="#42AB44" stop-opacity="0"/></linearGradient><linearGradient id="k" x1="17.118" y1="33.595" x2="3.932" y2="48.213" gradientUnits="userSpaceOnUse"><stop offset=".056"/><stop offset="1" stop-color="#C53131"/></linearGradient><linearGradient id="l" x1="6.838" y1="32.276" x2="18.815" y2="45.209" gradientUnits="userSpaceOnUse"><stop stop-color="#FEE54F"/><stop offset="1" stop-color="#42AB44"/></linearGradient><linearGradient id="m" x1="18.328" y1="42.911" x2="26.409" y2="39.509" gradientUnits="userSpaceOnUse"><stop stop-color="#127619"/><stop offset="1" stop-color="#C17845"/></linearGradient><linearGradient id="n" x1="19.524" y1="23.097" x2="10.867" y2="27.61" gradientUnits="userSpaceOnUse"><stop stop-color="#42AB44"/><stop offset="1" stop-color="#42AB44" stop-opacity="0"/></linearGradient><radialGradient id="a" cx="0" cy="0" r="1" gradientUnits="userSpaceOnUse" gradientTransform="matrix(33.32136 -28.59185 29.20502 34.03595 21.838 29.956)"><stop stop-color="#fff"/><stop offset=".521" stop-color="#FFF9EA"/><stop offset=".828" stop-color="#DBC656"/><stop offset="1" stop-color="#A6CE39"/></radialGradient></defs></svg>