<svg id="icon" width="24" height="24" viewBox="0 0 24 24" fill="none" xmlns="http://www.w3.org/2000/svg">
  <path
    d="M12 24C18.6274 24 24 18.6274 24 12C24 5.37258 18.6274 0 12 0C5.37258 0 0 5.37258 0 12C0 18.6274 5.37258 24 12 24Z"
    fill="#3060BF"
  />
  <path
    d="M6.19238 11.4759L6.76988 10.0254H7.77638C8.45738 8.0867 10.1891 6.71045 12.5576 6.71045C13.6526 6.71045 14.5556 6.9467 15.1924 7.3907L14.5556 8.7377C14.0381 8.4272 13.3864 8.24945 12.5576 8.24945C11.2699 8.24945 10.2334 8.91545 9.70013 10.0254H14.2451L13.6976 11.4759H9.27038C9.25538 11.6687 9.24038 11.9799 9.24038 12.2019C9.24038 12.2904 9.24038 12.3497 9.25538 12.4532H13.4156L12.9416 13.9037H9.59663C10.0406 15.0587 11.2691 15.7839 12.7196 15.7839C13.2371 15.7839 14.0516 15.6212 14.5256 15.3099L14.9696 16.6869C14.5549 17.0274 13.5484 17.3087 12.6746 17.3087C10.1584 17.3087 8.39738 16.0802 7.70213 13.9037H6.22088L6.76838 12.4532C7.46438 12.4532 7.46438 12.4382 7.46438 12.4382C7.46438 12.3939 7.44938 12.2754 7.44938 12.1719C7.44938 11.8464 7.46438 11.6544 7.47938 11.4759H6.19238Z"
    fill="white"
  />
</svg>
