<svg id="icon" xmlns="http://www.w3.org/2000/svg" viewBox="0 0 32 33">
    <rect width="32" height="32" y=".5" rx="16"/>
    <path fill="#1C1C1C" d="M13 11.5a1.5 1.5 0 1 1-3 0 1.5 1.5 0 0 1 3 0ZM13 16.5a1.5 1.5 0 1 1-3 0 1.5 1.5 0 0 1 3 0ZM11.5 23a1.5 1.5 0 1 0 0-3 1.5 1.5 0 0 0 0 3ZM18 11.5a1.5 1.5 0 1 1-3 0 1.5 1.5 0 0 1 3 0ZM16.5 18a1.5 1.5 0 1 0 0-3 1.5 1.5 0 0 0 0 3ZM18 21.5a1.5 1.5 0 1 1-3 0 1.5 1.5 0 0 1 3 0ZM21.5 13a1.5 1.5 0 1 0 0-3 1.5 1.5 0 0 0 0 3ZM23 16.5a1.5 1.5 0 1 1-3 0 1.5 1.5 0 0 1 3 0ZM21.5 23a1.5 1.5 0 1 0 0-3 1.5 1.5 0 0 0 0 3Z"/>
</svg>