<svg id="icon" width="61" height="66" fill="none" xmlns="http://www.w3.org/2000/svg"><path d="M30.962 65.265c16.59 0 30.038-1.771 30.038-3.956 0-2.184-13.449-3.956-30.038-3.956-16.59 0-30.038 1.771-30.038 3.956s13.448 3.956 30.038 3.956Z" fill="#050304"/><path d="M30.962 65.265c16.59 0 30.038-1.771 30.038-3.956 0-2.184-13.449-3.956-30.038-3.956-16.59 0-30.038 1.771-30.038 3.956s13.448 3.956 30.038 3.956Z" fill="url(#a)"/><path d="M15.043 38.124V60.02c0 .71-.58 1.29-1.29 1.29H7.763c-.71 0-1.29-.58-1.29-1.29V38.124c0-.71.58-1.29 1.29-1.29h5.988c.71 0 1.291.574 1.291 1.29Zm11.79-13.273h-5.989c-.71 0-1.29.58-1.29 1.29V60.02c0 .71.58 1.29 1.29 1.29h5.988c.71 0 1.29-.58 1.29-1.29V26.14c0-.71-.573-1.29-1.29-1.29Zm13.086-12.5H33.93c-.71 0-1.291.581-1.291 1.291v46.377c0 .71.58 1.29 1.29 1.29h5.989c.71 0 1.29-.58 1.29-1.29V13.642c0-.71-.58-1.29-1.29-1.29ZM53.005.736h-5.988c-.71 0-1.29.581-1.29 1.29V60.02c0 .71.58 1.29 1.29 1.29h5.988c.71 0 1.29-.58 1.29-1.29V2.027c0-.71-.58-1.29-1.29-1.29Z" fill="#050304"/><path d="M15.043 38.124V60.02c0 .71-.58 1.29-1.29 1.29H7.763c-.71 0-1.29-.58-1.29-1.29V38.124c0-.71.58-1.29 1.29-1.29h5.988c.71 0 1.291.574 1.291 1.29Zm11.79-13.273h-5.989c-.71 0-1.29.58-1.29 1.29V60.02c0 .71.58 1.29 1.29 1.29h5.988c.71 0 1.29-.58 1.29-1.29V26.14c0-.71-.573-1.29-1.29-1.29Zm13.086-12.5H33.93c-.71 0-1.291.581-1.291 1.291v46.377c0 .71.58 1.29 1.29 1.29h5.989c.71 0 1.29-.58 1.29-1.29V13.642c0-.71-.58-1.29-1.29-1.29ZM53.005.736h-5.988c-.71 0-1.29.581-1.29 1.29V60.02c0 .71.58 1.29 1.29 1.29h5.988c.71 0 1.29-.58 1.29-1.29V2.027c0-.71-.58-1.29-1.29-1.29Z" fill="url(#b)"/><mask id="c" style="mask-type:alpha" maskUnits="userSpaceOnUse" x="4" y="0" width="49" height="62"><path d="M13.39 38.124V60.02c0 .71-.58 1.29-1.29 1.29H6.112c-.71 0-1.29-.58-1.29-1.29V38.124c0-.71.58-1.29 1.29-1.29H12.1c.716 0 1.29.574 1.29 1.29Zm11.796-13.273h-5.988c-.71 0-1.29.58-1.29 1.29V60.02c0 .71.58 1.29 1.29 1.29h5.988c.71 0 1.291-.58 1.291-1.29V26.14c0-.71-.58-1.29-1.29-1.29Zm13.087-12.5h-5.988c-.71 0-1.291.581-1.291 1.291v46.377c0 .71.58 1.29 1.29 1.29h5.989c.71 0 1.29-.58 1.29-1.29V13.642c0-.71-.58-1.29-1.29-1.29ZM51.353.736h-5.989c-.71 0-1.29.581-1.29 1.29V60.02c0 .71.58 1.29 1.29 1.29h5.989c.71 0 1.29-.58 1.29-1.29V2.027c0-.71-.574-1.29-1.29-1.29Z" fill="#91BD65"/></mask><g mask="url(#c)"><path d="M13.39 38.124V60.02c0 .71-.58 1.29-1.29 1.29H6.112c-.71 0-1.29-.58-1.29-1.29V38.124c0-.71.58-1.29 1.29-1.29H12.1c.716 0 1.29.574 1.29 1.29Zm11.796-13.273h-5.988c-.71 0-1.29.58-1.29 1.29V60.02c0 .71.58 1.29 1.29 1.29h5.988c.71 0 1.291-.58 1.291-1.29V26.14c0-.71-.58-1.29-1.29-1.29Zm13.087-12.5h-5.988c-.71 0-1.291.581-1.291 1.291v46.377c0 .71.58 1.29 1.29 1.29h5.989c.71 0 1.29-.58 1.29-1.29V13.642c0-.71-.58-1.29-1.29-1.29ZM51.353.736h-5.989c-.71 0-1.29.581-1.29 1.29V60.02c0 .71.58 1.29 1.29 1.29h5.989c.71 0 1.29-.58 1.29-1.29V2.027c0-.71-.574-1.29-1.29-1.29Z" fill="#42AB44"/><path fill-rule="evenodd" clip-rule="evenodd" d="M43.965-.602h8.89v43.178h-8.89V-.602ZM26.68 24.16h-8.89v21.883h8.89V24.159ZM13.568 36.266h-8.89v14.796h8.89V36.266Zm26.2-24.168h-8.89v15.87h8.89v-15.87Z" fill="url(#d)"/></g><path d="M13.391 38.124v.787l-8.563 5.447v-6.234c0-.71.58-1.29 1.29-1.29h5.989c.71 0 1.284.574 1.284 1.29Zm13.086-11.983v2.155l-8.569 5.447V26.14c0-.71.58-1.29 1.29-1.29h5.989c.71 0 1.29.58 1.29 1.29Zm13.087-12.499v1.123l-8.57 5.446v-6.569c0-.71.581-1.29 1.291-1.29h5.988c.71 0 1.29.58 1.29 1.29Zm13.08-11.615v11.538l-8.57 5.446V2.027c0-.71.581-1.29 1.29-1.29h5.99c.715 0 1.29.58 1.29 1.29ZM26.477 38.324l-8.569 5.446v-2.168l8.57-5.446v2.168ZM52.644 24.69l-8.57 5.447V20.3l8.57-5.446v9.834Z" fill="#FFCA42"/><path d="M13.391 38.124v.787l-8.563 5.447v-6.234c0-.71.58-1.29 1.29-1.29h5.989c.71 0 1.284.574 1.284 1.29Zm13.086-11.983v2.155l-8.569 5.447V26.14c0-.71.58-1.29 1.29-1.29h5.989c.71 0 1.29.58 1.29 1.29Zm13.087-12.499v1.123l-8.57 5.446v-6.569c0-.71.581-1.29 1.291-1.29h5.988c.71 0 1.29.58 1.29 1.29Zm13.08-11.615v11.538l-8.57 5.446V2.027c0-.71.581-1.29 1.29-1.29h5.99c.715 0 1.29.58 1.29 1.29ZM26.477 38.324l-8.569 5.446v-2.168l8.57-5.446v2.168ZM52.644 24.69l-8.57 5.447V20.3l8.57-5.446v9.834Z" fill="url(#e)"/><defs><linearGradient id="a" x1="61" y1="65.265" x2=".988" y2="65.265" gradientUnits="userSpaceOnUse"><stop stop-color="#04D600"/><stop offset=".297" stop-color="#00D63C" stop-opacity="0"/><stop offset=".833" stop-color="#FA552D" stop-opacity="0"/><stop offset="1" stop-color="#FA552D"/></linearGradient><linearGradient id="b" x1="46.271" y1="79.856" x2="45.143" y2="31.023" gradientUnits="userSpaceOnUse"><stop stop-color="#00D615"/><stop offset="1" stop-color="#00C9D6" stop-opacity="0"/></linearGradient><linearGradient id="d" x1="15.83" y1="23.321" x2="29.889" y2="49.948" gradientUnits="userSpaceOnUse"><stop stop-color="#FFCA42"/><stop offset="1" stop-color="#CBE482"/></linearGradient><linearGradient id="e" x1="20.877" y1="22.948" x2="36.649" y2="73.644" gradientUnits="userSpaceOnUse"><stop stop-color="#FEFFCF"/><stop offset="1" stop-color="#FEFFCF" stop-opacity="0"/></linearGradient></defs></svg>
