<svg width="56" height="56" viewBox="0 0 56 56" fill="none" xmlns="http://www.w3.org/2000/svg">
<rect width="56" height="56" fill="white"/>
<path d="M45.0453 35.6512C45.0453 38.5251 42.6697 40.8653 39.7522 40.8653H10.9531V20.2141C10.9531 17.3402 13.3287 15 16.2462 15H45.0453V35.6512Z" fill="white"/>
<path d="M35.668 30.355H37.856C37.9185 30.355 38.0644 30.3344 38.1269 30.3344C38.5437 30.2523 38.898 29.8828 38.898 29.3696C38.898 28.8769 38.5437 28.5074 38.1269 28.4048C38.0644 28.3843 37.9394 28.3843 37.856 28.3843H35.668V30.355Z" fill="url(#paint0_linear_3410_161865)"/>
<path d="M37.6065 16.7441C35.5226 16.7441 33.8138 18.4069 33.8138 20.4802V24.36H39.1694C39.2944 24.36 39.4403 24.36 39.5445 24.3806C40.7531 24.4421 41.6492 25.058 41.6492 26.1254C41.6492 26.9671 41.0448 27.6856 39.9196 27.8293V27.8703C41.149 27.9524 42.0868 28.6298 42.0868 29.6768C42.0868 30.8058 41.0448 31.5448 39.6695 31.5448H33.793V39.1402H39.3569C41.4408 39.1402 43.1496 37.4774 43.1496 35.4041V16.7441H37.6065Z" fill="url(#paint1_linear_3410_161865)"/>
<path d="M38.6271 26.372C38.6271 25.8793 38.2728 25.5509 37.856 25.4893C37.8144 25.4893 37.7102 25.4688 37.6476 25.4688H35.668V27.2752H37.6476C37.7102 27.2752 37.8352 27.2752 37.856 27.2547C38.2728 27.1931 38.6271 26.8647 38.6271 26.372Z" fill="url(#paint2_linear_3410_161865)"/>
<path d="M16.6416 16.7441C14.5577 16.7441 12.849 18.4069 12.849 20.4802V29.6973C13.9117 30.2105 15.0162 30.5389 16.1206 30.5389C17.4335 30.5389 18.142 29.7589 18.142 28.6914V24.3395H21.3928V28.6709C21.3928 30.3542 20.3301 31.7296 16.725 31.7296C14.5369 31.7296 12.8281 31.2574 12.8281 31.2574V39.1197H18.3921C20.4759 39.1197 22.1847 37.4569 22.1847 35.3836V16.7441H16.6416Z" fill="url(#paint3_linear_3410_161865)"/>
<path d="M27.1227 16.7441C25.0389 16.7441 23.3301 18.4069 23.3301 20.4802V25.3659C24.2887 24.5653 25.9558 24.0521 28.644 24.1753C30.0818 24.2369 31.6239 24.6269 31.6239 24.6269V26.2075C30.8529 25.8175 29.936 25.4685 28.7481 25.3864C26.706 25.2427 25.4765 26.2281 25.4765 27.9524C25.4765 29.6973 26.706 30.6826 28.7481 30.5184C29.936 30.4363 30.8529 30.0668 31.6239 29.6973V31.278C31.6239 31.278 30.1027 31.668 28.644 31.7296C25.9558 31.8527 24.2887 31.3395 23.3301 30.5389V39.1607H28.894C30.9779 39.1607 32.6867 37.4979 32.6867 35.4246V16.7441H27.1227Z" fill="url(#paint4_linear_3410_161865)"/>
<defs>
<linearGradient id="paint0_linear_3410_161865" x1="33.8098" y1="29.3721" x2="43.1742" y2="29.3721" gradientUnits="userSpaceOnUse">
<stop stop-color="#007940"/>
<stop offset="0.2285" stop-color="#00873F"/>
<stop offset="0.7433" stop-color="#40A737"/>
<stop offset="1" stop-color="#5CB531"/>
</linearGradient>
<linearGradient id="paint1_linear_3410_161865" x1="33.81" y1="27.9332" x2="43.1751" y2="27.9332" gradientUnits="userSpaceOnUse">
<stop stop-color="#007940"/>
<stop offset="0.2285" stop-color="#00873F"/>
<stop offset="0.7433" stop-color="#40A737"/>
<stop offset="1" stop-color="#5CB531"/>
</linearGradient>
<linearGradient id="paint2_linear_3410_161865" x1="33.8096" y1="26.3694" x2="43.1743" y2="26.3694" gradientUnits="userSpaceOnUse">
<stop stop-color="#007940"/>
<stop offset="0.2285" stop-color="#00873F"/>
<stop offset="0.7433" stop-color="#40A737"/>
<stop offset="1" stop-color="#5CB531"/>
</linearGradient>
<linearGradient id="paint3_linear_3410_161865" x1="12.8446" y1="27.9332" x2="22.3539" y2="27.9332" gradientUnits="userSpaceOnUse">
<stop stop-color="#1F286F"/>
<stop offset="0.4751" stop-color="#004E94"/>
<stop offset="0.8261" stop-color="#0066B1"/>
<stop offset="1" stop-color="#006FBC"/>
</linearGradient>
<linearGradient id="paint4_linear_3410_161865" x1="23.2762" y1="27.9332" x2="32.512" y2="27.9332" gradientUnits="userSpaceOnUse">
<stop stop-color="#6C2C2F"/>
<stop offset="0.1735" stop-color="#882730"/>
<stop offset="0.5731" stop-color="#BE1833"/>
<stop offset="0.8585" stop-color="#DC0436"/>
<stop offset="1" stop-color="#E60039"/>
</linearGradient>
</defs>
</svg>
