<svg id="icon" width="56" height="56" viewBox="0 0 56 56" fill="none" xmlns="http://www.w3.org/2000/svg">
<rect width="56" height="56" fill="white"/>
<path d="M32.7399 18.8516H23.2324V36.1479H32.7399V18.8516Z" fill="#FF5F00"/>
<path d="M23.8365 27.5C23.835 25.8342 24.2079 24.1899 24.9269 22.6916C25.6459 21.1933 26.6922 19.8802 27.9865 18.8518C26.3836 17.5763 24.4586 16.7831 22.4314 16.5628C20.4043 16.3426 18.3568 16.7041 16.523 17.6062C14.6893 18.5083 13.1432 19.9145 12.0615 21.664C10.9799 23.4136 10.4063 25.436 10.4062 27.5C10.4062 29.564 10.9799 31.5864 12.0615 33.3359C13.1432 35.0855 14.6893 36.4917 16.523 37.3938C18.3568 38.2958 20.4043 38.6574 22.4314 38.4371C24.4586 38.2169 26.3836 37.4237 27.9865 36.1482C26.6922 35.1197 25.6459 33.8066 24.9269 32.3083C24.2079 30.81 23.835 29.1657 23.8365 27.5Z" fill="#EB001B"/>
<path d="M45.5661 27.5C45.5662 29.564 44.9926 31.5863 43.911 33.3359C42.8294 35.0855 41.2834 36.4917 39.4496 37.3937C37.6159 38.2958 35.5685 38.6574 33.5413 38.4371C31.5142 38.2169 29.5892 37.4237 27.9863 36.1482C29.2796 35.1187 30.325 33.8054 31.0439 32.3073C31.7628 30.8092 32.1363 29.1655 32.1363 27.5C32.1363 25.8345 31.7628 24.1907 31.0439 22.6926C30.325 21.1946 29.2796 19.8813 27.9863 18.8518C29.5892 17.5763 31.5142 16.7831 33.5413 16.5628C35.5685 16.3426 37.6159 16.7041 39.4496 17.6062C41.2834 18.5083 42.8294 19.9145 43.911 21.6641C44.9926 23.4136 45.5662 25.436 45.5661 27.5Z" fill="#F79E1B"/>
</svg>
