<svg id="icon" width="56" height="56" viewBox="0 0 56 56" fill="none" xmlns="http://www.w3.org/2000/svg">
<rect width="56" height="56" fill="white"/>
<path fill-rule="evenodd" clip-rule="evenodd" d="M16.7432 20V20.0066C16.7369 20.0066 14.7511 20 14.2215 21.9717C13.7361 23.7796 12.3681 28.7709 12.3303 28.9085H11.952C11.952 28.9085 10.5525 23.8058 10.0607 21.9651C9.53118 19.9934 7.53904 20 7.53904 20H3V35.0003H7.53904V26.0918H7.72817H7.9173L10.5651 35.0003H13.7172L16.365 26.0984H16.7432V35.0003H21.2823V20H16.7432Z" fill="#4DB45E"/>
<path fill-rule="evenodd" clip-rule="evenodd" d="M33.3231 20C33.3231 20 31.9929 20.1245 31.3688 21.5721L28.1536 28.9085H27.7754V20H23.2363V35.0003H27.5232C27.5232 35.0003 28.9164 34.8693 29.5406 33.4283L32.6927 26.0918H33.0709V35.0003H37.61V20H33.3231Z" fill="#4DB45E"/>
<path fill-rule="evenodd" clip-rule="evenodd" d="M39.627 26.812V35H44.166V30.2182H49.0833C51.2267 30.2182 53.0423 28.7968 53.7169 26.812H39.627Z" fill="#4DB45E"/>
<path fill-rule="evenodd" clip-rule="evenodd" d="M49.0833 20H38.9902C39.4946 22.856 41.5561 25.1486 44.2227 25.8953C44.8279 26.0656 45.4647 26.1573 46.1203 26.1573H53.8997C53.9691 25.8167 54.0006 25.4696 54.0006 25.1093C54.0006 22.2861 51.8004 20 49.0833 20Z" fill="url(#paint0_linear_3410_161850)"/>
<defs>
<linearGradient id="paint0_linear_3410_161850" x1="38.9915" y1="23.0787" x2="54.0006" y2="23.0787" gradientUnits="userSpaceOnUse">
<stop offset="0.3" stop-color="#00B4E6"/>
<stop offset="1" stop-color="#088CCB"/>
</linearGradient>
</defs>
</svg>
