<svg id="icon" width="24" height="24" fill="none" xmlns="http://www.w3.org/2000/svg">
  <path
    stroke="#fff"
    stroke-width="2"
    stroke-linecap="round"
    stroke-linejoin="round"
    d="M2 13.05V15c0 5 2 7 7 7h6c5 0 7-2 7-7V9c0-5-2-7-7-7H9C4 2 2 4 2 9M8.32 15.27l6.54-6.54"
  />
  <path
    stroke="#fff"
    stroke-width="2"
    stroke-linecap="round"
    stroke-linejoin="round"
    d="M8.73 10.37a1.23 1.23 0 1 0 0-2.46 1.23 1.23 0 0 0 0 2.46ZM15.27 16.09a1.23 1.23 0 1 0 0-2.46 1.23 1.23 0 0 0 0 2.46Z"
  />
  </svg>
