<svg id="icon" width="56" height="56" viewBox="0 0 56 56" fill="none" xmlns="http://www.w3.org/2000/svg">
<rect width="56" height="56" fill="white"/>
<path d="M17.4668 17H26.0772C27.2791 17 28.0267 17.9975 27.7463 19.2253L23.7375 36.7495C23.4546 37.9731 22.2512 38.9714 21.0485 38.9714H12.4389C11.2386 38.9714 10.4894 37.9731 10.7698 36.7495L14.7802 19.2253C15.0606 17.9975 16.2634 17 17.4668 17Z" fill="#E21836"/>
<path d="M25.3608 17H35.2625C36.4643 17 35.9224 17.9975 35.6397 19.2253L31.6315 36.7495C31.3503 37.9731 31.438 38.9714 30.2338 38.9714H20.332C19.1278 38.9714 18.3825 37.9731 18.6654 36.7495L22.6734 19.2253C22.9579 17.9975 24.1582 17 25.3608 17Z" fill="#00447C"/>
<path d="M34.8701 17H43.4806C44.6842 17 45.4317 17.9975 45.149 19.2253L41.1409 36.7495C40.858 37.9731 39.6537 38.9714 38.4503 38.9714H29.8439C28.6397 38.9714 27.8927 37.9731 28.1748 36.7495L32.1836 19.2253C32.4639 17.9975 33.6659 17 34.8701 17Z" fill="#007B84"/>
<path d="M19.7146 22.6159C18.8291 22.6251 18.5676 22.6159 18.4841 22.5958C18.452 22.7512 17.8545 25.5575 17.8528 25.5599C17.7242 26.1277 17.6306 26.5324 17.3126 26.7937C17.1321 26.9456 16.9214 27.0189 16.6771 27.0189C16.2844 27.0189 16.0557 26.8204 16.0173 26.4439L16.0099 26.3146C16.0099 26.3146 16.1295 25.5541 16.1295 25.5498C16.1295 25.5498 16.7566 22.9924 16.8689 22.6544C16.8748 22.6351 16.8765 22.6251 16.878 22.6159C15.6573 22.6268 15.441 22.6159 15.4261 22.5958C15.4179 22.6234 15.3876 22.7819 15.3876 22.7819L14.7473 25.6644L14.6923 25.9088L14.5859 26.7085C14.5859 26.9456 14.6317 27.1393 14.7228 27.3029C15.0145 27.822 15.8466 27.8998 16.3174 27.8998C16.9239 27.8998 17.4929 27.7686 17.8774 27.529C18.5448 27.1275 18.7194 26.4999 18.8751 25.9422L18.9473 25.656C18.9473 25.656 19.5933 22.9999 19.703 22.6544C19.7072 22.6351 19.7089 22.6251 19.7146 22.6159ZM21.9125 24.7586C21.7568 24.7586 21.4722 24.7971 21.2166 24.9247C21.1238 24.9732 21.0361 25.0292 20.9435 25.0849L21.0271 24.7779L20.9813 24.7262C20.4392 24.8379 20.3179 24.8529 19.8171 24.9247L19.7752 24.9531C19.717 25.4439 19.6654 25.813 19.4499 26.7778C19.3678 27.1334 19.2826 27.4923 19.1972 27.8471L19.2203 27.8922C19.7334 27.8646 19.8891 27.8646 20.3351 27.8721L20.3712 27.8321C20.4279 27.5366 20.4352 27.4673 20.5607 26.8688C20.6197 26.585 20.7427 25.9615 20.8033 25.7395C20.9148 25.6869 21.0248 25.6352 21.1297 25.6352C21.3796 25.6352 21.3492 25.8572 21.3396 25.9457C21.3289 26.0942 21.2378 26.5793 21.1444 26.9957L21.082 27.2646C21.0386 27.4631 20.991 27.656 20.9475 27.8528L20.9664 27.8922C21.4722 27.8646 21.6265 27.8646 22.0584 27.8721L22.1092 27.8321C22.1872 27.3705 22.2101 27.247 22.3486 26.575L22.4183 26.2662C22.5537 25.6619 22.6217 25.3555 22.5193 25.1059C22.411 24.8262 22.1511 24.7586 21.9125 24.7586ZM24.3678 25.3913C24.099 25.4439 23.9275 25.479 23.7571 25.5016C23.5882 25.5292 23.4234 25.5542 23.1636 25.5909L23.143 25.6099L23.1241 25.6251C23.0971 25.8221 23.0782 25.9925 23.0423 26.1927C23.0119 26.3997 22.9651 26.635 22.8889 26.9731C22.8299 27.2318 22.7995 27.322 22.7659 27.413C22.7332 27.5041 22.6971 27.5925 22.6307 27.847L22.6463 27.8706L22.6593 27.8921C22.9021 27.8804 23.061 27.8721 23.2243 27.8706C23.3873 27.8646 23.5563 27.8706 23.8178 27.8721L23.8407 27.853L23.8652 27.8321C23.903 27.6026 23.9086 27.5408 23.9317 27.4289C23.9546 27.3088 23.9941 27.1425 24.0908 26.6985C24.1366 26.4899 24.1876 26.282 24.235 26.0692C24.2843 25.8572 24.3359 25.6484 24.3851 25.4399L24.3777 25.4146L24.3678 25.3913ZM24.3736 24.5383C24.1293 24.3915 23.7005 24.438 23.4119 24.6408C23.1242 24.8396 23.0915 25.1216 23.3349 25.2704C23.575 25.4131 24.0055 25.3706 24.2915 25.1661C24.5786 24.9631 24.6145 24.6836 24.3736 24.5383ZM25.851 27.9381C26.3452 27.9381 26.8519 27.7995 27.2332 27.3879C27.5266 27.0541 27.6611 26.5575 27.7077 26.353C27.8595 25.6752 27.7413 25.3587 27.5929 25.166C27.3675 24.8721 26.9692 24.7779 26.5559 24.7779C26.3074 24.7779 25.7156 24.8029 25.2533 25.2369C24.9212 25.55 24.7678 25.9748 24.6753 26.3821C24.5819 26.7971 24.4744 27.5441 25.1492 27.8221C25.3574 27.9131 25.6575 27.9381 25.851 27.9381ZM25.8124 26.4131C25.9263 25.8998 26.0608 25.469 26.4042 25.469C26.6733 25.469 26.6928 25.7895 26.5731 26.3045C26.5517 26.4188 26.4535 26.8438 26.3207 27.0248C26.2279 27.1584 26.1181 27.2394 25.9968 27.2394C25.9607 27.2394 25.746 27.2394 25.7427 26.9148C25.741 26.7545 25.7731 26.5908 25.8124 26.4131ZM28.9432 27.8721L28.9818 27.8322C29.0366 27.5366 29.0456 27.4672 29.167 26.8689C29.2276 26.5851 29.3531 25.9616 29.4121 25.7395C29.5237 25.6867 29.6318 25.635 29.7401 25.635C29.9884 25.635 29.9582 25.8571 29.9483 25.9455C29.9393 26.0943 29.8482 26.5791 29.7531 26.9956L29.6942 27.2644C29.649 27.4631 29.5999 27.6559 29.5565 27.8529L29.5754 27.8922C30.0828 27.8647 30.2312 27.8647 30.6657 27.8721L30.7181 27.8322C30.7943 27.3704 30.8149 27.2469 30.9576 26.575L31.0256 26.2661C31.1616 25.6617 31.2304 25.3555 31.1297 25.1059C31.0182 24.8262 30.7567 24.7587 30.5215 24.7587C30.3655 24.7587 30.0795 24.797 29.8253 24.9247C29.7344 24.9732 29.6434 25.029 29.554 25.085L29.6318 24.7779L29.5901 24.726C29.0482 24.838 28.9243 24.8529 28.4242 24.9247L28.3858 24.9532C28.3252 25.444 28.2758 25.8128 28.0603 26.7778C27.9782 27.1334 27.893 27.4924 27.8078 27.8471L27.8307 27.8922C28.3447 27.8647 28.4981 27.8647 28.9432 27.8721ZM32.6717 27.8921C32.7036 27.7336 32.8931 26.7938 32.8948 26.7938C32.8948 26.7938 33.0562 26.1042 33.0661 26.0792C33.0661 26.0792 33.1169 26.0074 33.1676 25.979H33.2424C33.9473 25.979 34.7434 25.979 35.3673 25.5116C35.7919 25.1911 36.0821 24.7178 36.2116 24.1425C36.2452 24.0015 36.27 23.8338 36.27 23.666C36.27 23.4457 36.2265 23.2277 36.101 23.0574C35.7829 22.6042 35.1493 22.5959 34.4179 22.5924C34.4155 22.5924 34.0573 22.5959 34.0573 22.5959C33.1211 22.6076 32.7456 22.6042 32.5913 22.585C32.5783 22.6544 32.5538 22.7779 32.5538 22.7779C32.5538 22.7779 32.2184 24.3605 32.2184 24.3631C32.2184 24.3631 31.4158 27.7278 31.3781 27.8863C32.1955 27.8763 32.5307 27.8763 32.6717 27.8921ZM33.2931 25.0808C33.2931 25.0808 33.6497 23.5015 33.648 23.5075L33.6596 23.4265L33.6646 23.3647L33.8071 23.3797C33.8071 23.3797 34.5425 23.444 34.5597 23.4457C34.85 23.56 34.9696 23.8547 34.8861 24.2393C34.8099 24.5909 34.586 24.8864 34.2982 25.0291C34.0613 25.1501 33.771 25.1601 33.472 25.1601H33.2785L33.2931 25.0808ZM35.5133 26.4423C35.419 26.8513 35.3107 27.5984 35.9821 27.8646C36.1962 27.9574 36.388 27.9849 36.583 27.9749C36.7889 27.9636 36.9796 27.8584 37.1563 27.7071C37.1404 27.7693 37.1244 27.8315 37.1085 27.8939L37.1389 27.9338C37.6218 27.9131 37.7717 27.9131 38.2949 27.9172L38.3423 27.8804C38.4187 27.4231 38.4907 26.9791 38.6893 26.1043C38.786 25.6852 38.8825 25.2702 38.9818 24.8529L38.9663 24.807C38.4261 24.9089 38.2817 24.9307 37.762 25.0057L37.7226 25.0384C37.7173 25.0809 37.7119 25.1217 37.7068 25.1625C37.626 25.0296 37.5089 24.9161 37.3282 24.8454C37.0972 24.7529 36.5544 24.8721 36.0879 25.3046C35.7601 25.6134 35.6027 26.0365 35.5133 26.4423ZM36.6478 26.4673C36.7635 25.9632 36.8963 25.5367 37.2405 25.5367C37.4581 25.5367 37.5727 25.7412 37.5494 26.0899C37.531 26.1769 37.511 26.2686 37.4873 26.3722C37.4529 26.522 37.4155 26.6705 37.3792 26.8193C37.3423 26.921 37.2993 27.0169 37.2521 27.0808C37.1635 27.2086 36.9528 27.2879 36.8315 27.2879C36.797 27.2879 36.5847 27.2879 36.5773 26.969C36.5756 26.8103 36.6077 26.6468 36.6478 26.4673ZM42.5726 24.8029L42.5309 24.7544C41.9963 24.8646 41.8996 24.8821 41.4085 24.9497L41.3724 24.9864C41.3707 24.9924 41.3692 25.0016 41.3667 25.0099L41.365 25.0016C40.9994 25.8604 41.0101 25.6751 40.7125 26.3513C40.7108 26.3205 40.7108 26.3013 40.7092 26.2686L40.6347 24.8029L40.5879 24.7544C40.0279 24.8646 40.0147 24.8821 39.4976 24.9497L39.4573 24.9864C39.4516 25.004 39.4516 25.0232 39.4483 25.0441L39.4516 25.0516C39.5163 25.3879 39.5007 25.3129 39.5656 25.8437C39.5958 26.1042 39.6361 26.3662 39.6663 26.6235C39.7173 27.0541 39.7459 27.2661 39.8082 27.9231C39.459 28.5099 39.3763 28.732 39.0401 29.2469L39.0424 29.2521L38.8056 29.6333C38.7786 29.6735 38.754 29.701 38.7196 29.7128C38.6818 29.7318 38.6327 29.7352 38.5645 29.7352H38.4333L38.2383 30.3955L38.9072 30.4073C39.2999 30.4056 39.5467 30.2186 39.6795 29.9673L40.1001 29.2335H40.0934L40.1377 29.1818C40.4206 28.5616 42.5726 24.8029 42.5726 24.8029ZM35.5132 33.4749H35.2295L36.2797 29.9381H36.6281L36.7387 29.5738L36.7494 29.9789C36.7364 30.2294 36.9299 30.4514 37.4382 30.4146H38.026L38.2284 29.7336H38.0071C37.88 29.7336 37.821 29.7009 37.8283 29.6308L37.8176 29.2186H36.729V29.2208C36.3771 29.2282 35.326 29.2552 35.1132 29.3129C34.8557 29.3804 34.5843 29.5791 34.5843 29.5791L34.691 29.2144H33.6727L33.4605 29.9381L32.3962 33.5289H32.1897L31.9872 34.205H34.0154L33.9474 34.4305H34.9468L35.0131 34.205H35.2935L35.5132 33.4749ZM34.6811 30.6567C34.518 30.7027 34.2145 30.842 34.2145 30.842L34.4844 29.9381H35.2935L35.0983 30.5967C35.0983 30.5967 34.8484 30.6117 34.6811 30.6567ZM34.6966 31.9481C34.6966 31.9481 34.4425 31.9805 34.2752 32.019C34.1105 32.0699 33.8015 32.2301 33.8015 32.2301L34.0802 31.2895H34.8935L34.6966 31.9481ZM34.2433 33.4832H33.4317L33.667 32.6893H34.476L34.2433 33.4832ZM36.1978 31.2895H37.3676L37.1995 31.8438H36.0141L35.8361 32.4498H36.8733L36.088 33.5757C36.033 33.6584 35.9837 33.6877 35.9289 33.711C35.8739 33.7394 35.8017 33.7727 35.7182 33.7727H35.4305L35.2328 34.4365H35.9854C36.3766 34.4365 36.6076 34.2553 36.7783 34.0174L37.3168 33.2669L37.4324 34.029C37.457 34.1717 37.5577 34.2553 37.6259 34.2877C37.7013 34.3262 37.7791 34.3922 37.8891 34.4021C38.0071 34.4072 38.0923 34.4112 38.1489 34.4112H38.5187L38.7408 33.6685H38.5949C38.5112 33.6685 38.367 33.6542 38.3424 33.6274C38.3179 33.595 38.3179 33.545 38.3047 33.4689L38.1873 32.7052H37.7069L37.9177 32.4498H39.1007L39.2827 31.8438H38.1873L38.358 31.2895H39.4499L39.6525 30.6059H36.3969L36.1978 31.2895ZM26.3174 33.6375L26.5904 32.7127H27.7126L27.9176 32.0248H26.7944L26.9659 31.4556H28.0635L28.2669 30.7895H25.5205L25.3213 31.4556H25.9452L25.7788 32.0248H25.1532L24.9458 32.7245H25.5696L25.2057 33.948C25.1565 34.11 25.2287 34.1718 25.2745 34.247C25.3213 34.3203 25.3687 34.3688 25.4753 34.3964C25.5853 34.4214 25.6607 34.4363 25.7631 34.4363H27.0282L27.2536 33.6743L26.6928 33.7527C26.5845 33.7527 26.2846 33.7395 26.3174 33.6375ZM26.4461 29.2102L26.1617 29.7335C26.1008 29.8478 26.0461 29.9188 25.9967 29.9515C25.9533 29.979 25.8672 29.9906 25.7426 29.9906H25.5942L25.3959 30.6601H25.8886C26.1256 30.6601 26.3076 30.5716 26.3944 30.5274C26.4878 30.4765 26.5124 30.5056 26.5846 30.4346L26.751 30.2878H28.2898L28.494 29.5908H27.3676L27.5643 29.2102H26.4461ZM28.7178 33.651C28.6916 33.6125 28.7105 33.5448 28.7505 33.4038L29.1711 31.9864H30.6673C30.8854 31.9832 31.0428 31.9806 31.1452 31.9731C31.2552 31.9614 31.3748 31.9214 31.5051 31.8496C31.6396 31.7744 31.7085 31.6951 31.7666 31.6041C31.8315 31.5133 31.9356 31.3145 32.025 31.0081L32.5536 29.2144L31.001 29.2236C31.001 29.2236 30.5229 29.2954 30.3124 29.3747C30.1 29.4631 29.7966 29.7102 29.7966 29.7102L29.9367 29.2185H28.9776L27.6349 33.7527C27.5872 33.9288 27.5553 34.0566 27.548 34.1333C27.5455 34.216 27.6504 34.2978 27.7184 34.3596C27.7988 34.4213 27.9176 34.4113 28.0315 34.4213C28.1514 34.4305 28.3218 34.4363 28.557 34.4363H29.2941L29.5204 33.6585L28.8605 33.7219C28.79 33.7219 28.739 33.6835 28.7178 33.651ZM29.4425 31.029H31.014L30.9141 31.3479C30.9001 31.3553 30.8665 31.332 30.7066 31.3513H29.3457L29.4425 31.029ZM29.7573 29.9597H31.342L31.2281 30.3437C31.2281 30.3437 30.4812 30.3363 30.3615 30.3587C29.8352 30.4514 29.5277 30.7378 29.5277 30.7378L29.7573 29.9597ZM30.9493 32.4155C30.9363 32.4632 30.9157 32.4922 30.887 32.514C30.8551 32.535 30.8034 32.5424 30.7264 32.5424H30.5025L30.5157 32.1542H29.5843L29.5465 34.0524C29.545 34.1893 29.5581 34.2686 29.6565 34.3321C29.7549 34.4114 30.0582 34.4214 30.4664 34.4214H31.05L31.2607 33.7109L30.7526 33.7393L30.5837 33.7493C30.5606 33.7393 30.5386 33.7301 30.514 33.7051C30.4926 33.6835 30.4565 33.6968 30.4624 33.5598L30.4664 33.0732L30.9992 33.0508C31.287 33.0508 31.41 32.9555 31.5149 32.8647C31.615 32.7777 31.6477 32.6777 31.6855 32.5424L31.7749 32.1116H31.0427L30.9493 32.4155Z" fill="#FEFEFE"/>
</svg>
