<svg id="icon" width="52" height="17" fill="none" xmlns="http://www.w3.org/2000/svg"><path d="M18.37 16.407 21 .729h4.206l-2.632 15.678h-4.205ZM37.77 1.067C36.939.75 35.633.41 34 .41c-4.156 0-7.084 2.126-7.109 5.173-.023 2.253 2.09 3.51 3.686 4.26 1.638.768 2.188 1.258 2.18 1.944-.01 1.051-1.307 1.531-2.516 1.531-1.684 0-2.579-.238-3.96-.823l-.542-.249-.59 3.51c.982.437 2.799.816 4.685.836 4.422 0 7.293-2.102 7.325-5.356.016-1.784-1.105-3.14-3.532-4.26-1.47-.725-2.37-1.209-2.36-1.943 0-.652.762-1.349 2.408-1.349a7.655 7.655 0 0 1 3.149.601l.377.18.57-3.397ZM48.595.729h-3.25c-1.007 0-1.761.28-2.203 1.3l-6.248 14.367h4.418s.722-1.932.885-2.356l5.388.007c.126.549.511 2.35.511 2.35H52L48.595.728Zm-5.157 10.123c.348-.903 1.676-4.382 1.676-4.382-.025.041.345-.908.558-1.497l.284 1.352.974 4.527h-3.492ZM.054.73 0 1.055c1.663.409 3.148 1 4.448 1.737l3.733 13.589 4.45-.005L19.255.729h-4.456L10.68 11.42l-.439-2.172a7.126 7.126 0 0 0-.066-.202L8.744 2.053C8.489 1.06 7.75.764 6.837.729H.054Z" fill="#0E4595"/></svg>