<svg id="icon" width="56" height="56" viewBox="0 0 56 56" fill="none" xmlns="http://www.w3.org/2000/svg">
<rect width="56" height="56" fill="white"/>
<path d="M20.3691 35.4068L22.9991 19.7295H27.2057L24.5738 35.4068H20.3691Z" fill="#0E4595"/>
<path d="M39.7709 20.0671C38.9376 19.7495 37.6317 19.4087 36.0008 19.4087C31.8442 19.4087 28.9163 21.535 28.8913 24.5824C28.8679 26.835 30.9816 28.0917 32.5773 28.8416C34.2147 29.6101 34.7651 30.1002 34.7572 30.7862C34.7467 31.8372 33.4497 32.3171 32.2405 32.3171C30.5569 32.3171 29.6624 32.0795 28.2809 31.4943L27.7388 31.2451L27.1484 34.7546C28.131 35.1923 29.9478 35.5713 31.8343 35.591C36.2562 35.591 39.1268 33.489 39.1594 30.2348C39.1751 28.4513 38.0545 27.0942 35.6275 25.9753C34.1572 25.2501 33.2567 24.7662 33.2663 24.0318C33.2663 23.3802 34.0285 22.6834 35.6754 22.6834C37.0509 22.6617 38.0475 22.9664 38.8238 23.284L39.2008 23.4649L39.7709 20.0671Z" fill="#0E4595"/>
<path d="M50.595 19.729H47.3446C46.3376 19.729 45.584 20.0082 45.1418 21.0291L38.8945 35.3961H43.3118C43.3118 35.3961 44.0339 33.4644 44.1973 33.0402C44.68 33.0402 48.9712 33.0469 49.5846 33.0469C49.7105 33.5958 50.0964 35.3961 50.0964 35.3961H53.9998L50.595 19.729ZM45.4378 29.8521C45.7858 28.9489 47.1138 25.4697 47.1138 25.4697C47.0891 25.5114 47.4592 24.562 47.6715 23.9734L47.9559 25.325C47.9559 25.325 48.7614 29.0672 48.9297 29.8519H45.4378V29.8521Z" fill="#0E4595"/>
<path d="M2.05374 19.7295L2 20.0556C3.66289 20.4645 5.14809 21.0563 6.44839 21.7926L10.1809 35.3816L14.6316 35.3766L21.2542 19.7295H16.798L12.6797 30.4202L12.241 28.2475C12.2205 28.1804 12.1981 28.1132 12.1753 28.0458L10.7436 21.053C10.489 20.0603 9.75052 19.7641 8.83688 19.7295H2.05374Z" fill="#0E4595"/>
</svg>
