<svg width="24" height="12" fill="none" xmlns="http://www.w3.org/2000/svg">
  <path
    fill-rule="evenodd"
    clip-rule="evenodd"
    d="M23.45.813c.166-.468 0-.813-.796-.813H20.03c-.668 0-.976.297-1.143.626 0 0-1.335 2.74-3.226 4.519-.612.516-.89.68-1.224.68-.167 0-.418-.164-.418-.633V.812c0-.562-.184-.812-.74-.812H9.15c-.417 0-.668.26-.668.508 0 .533.946.656 1.043 2.154v3.256c0 .714-.153.843-.487.843-.89 0-3.055-2.752-4.34-5.901C4.449.247 4.198 0 3.527 0H.9C.15 0 0 .297 0 .626c0 .584.89 3.488 4.145 7.33C6.315 10.577 9.37 12 12.153 12c1.669 0 1.875-.315 1.875-.86V9.158c0-.632.158-.758.687-.758.39 0 1.057.165 2.615 1.429C19.11 11.328 19.403 12 20.405 12h2.624c.75 0 1.127-.315.91-.94-.238-.62-1.087-1.52-2.215-2.59-.611-.608-1.53-1.264-1.808-1.592-.39-.421-.278-.609 0-.983 0 0 3.2-3.794 3.532-5.082h.002Z"
    fill="#1C1C1C"
  />
</svg>
