<svg id="icon" width="24" height="24" fill="none" xmlns="http://www.w3.org/2000/svg"><path d="M20 12.063V11a2 2 0 0 0-2-2H4a2 2 0 0 0-2 2v10a2 2 0 0 0 2 2h14a2 2 0 0 0 2-2v-1.063" stroke="#1C1C1C" stroke-width="2" stroke-linecap="round" stroke-linejoin="round"/><path d="m5 7 8.571-5L15 4.308M10 7l8-4 2 2.91" stroke="#42AB44" stroke-width="2" stroke-linecap="round" stroke-linejoin="round"/><path d="M16.56 18H21a1 1 0 0 0 1-1v-2a1 1 0 0 0-1-1h-7a1 1 0 0 0-1 1v3" stroke="#1C1C1C" stroke-width="2" stroke-linecap="round"/></svg>
