<svg width="70" height="70" fill="none" xmlns="http://www.w3.org/2000/svg"><g filter="url(#a)"><path d="M59.145 63.875c0 11.25-11.403 9.752-25.469 9.752S8.207 75.126 8.207 63.875c0-11.25 11.403-30.99 25.47-30.99 14.065 0 25.468 19.74 25.468 30.99Z" fill="url(#b)"/></g><rect x="2.963" y="35.763" width="60.447" height="36.456" rx="7" transform="rotate(-15 2.963 35.763)" fill="url(#c)"/><rect x="2.963" y="35.763" width="60.447" height="36.456" rx="7" transform="rotate(-15 2.963 35.763)" fill="url(#d)"/><rect x=".816" y="34.438" width="60.447" height="36.456" rx="7" transform="rotate(-15 .816 34.438)" fill="#fff"/><rect x=".078" y="34" width="60.448" height="36.456" rx="7" transform="rotate(-15 .078 34)" fill="url(#e)"/><rect x=".078" y="34" width="60.448" height="36.456" rx="7" transform="rotate(-15 .078 34)" fill="url(#f)"/><mask id="h" style="mask-type:alpha" maskUnits="userSpaceOnUse" x="1" y="19" width="66" height="49"><rect x=".078" y="33.999" width="60.447" height="36.456" rx="7" transform="rotate(-15 .078 33.999)" fill="#64C07D"/><rect x=".078" y="33.999" width="60.447" height="36.456" rx="7" transform="rotate(-15 .078 33.999)" fill="url(#g)"/></mask><g mask="url(#h)"><path transform="rotate(45 63.697 31.309)" fill="url(#i)" d="M63.697 31.309h1.769v50.992h-1.769z" style="mix-blend-mode:color-dodge"/><path d="m26.131 16.275 1.251 1.25-36.057 36.058-9.68-13.205 44.487-24.103Z" fill="url(#j)" style="mix-blend-mode:color-dodge"/><path transform="rotate(45 65.594 35.176)" fill="url(#k)" d="M65.594 35.176h13.412v50.386H65.594z" style="mix-blend-mode:color-dodge"/></g><path d="M48.044 29.87 9.654 40.158l.631 2.355 38.39-10.286-.631-2.355Z" fill="url(#l)" style="mix-blend-mode:screen"/><path d="m50.018 37.237-38.39 10.286.632 2.355 38.39-10.286-.632-2.355Z" fill="url(#m)" style="mix-blend-mode:screen"/><path d="m10.66 43.91 37.995-10.181M12.703 51.534l37.995-10.18" stroke="#1C1C1C" stroke-miterlimit="10"/><path d="m54.62 46.423-9.47 2.538a2.251 2.251 0 0 0-1.577 2.746 2.25 2.25 0 0 0 2.74 1.59l9.47-2.537a2.251 2.251 0 0 0 1.577-2.747 2.235 2.235 0 0 0-2.74-1.59Z" fill="url(#n)"/><path d="m18.627 44.627 8.989 6.78 26.32-15.53-23.101-19.99v-.078l-.01.08-10.053 5.057-1.041 11.494-.017-.014-.002.224-1.085 11.977Z" fill="url(#o)" style="mix-blend-mode:overlay"/><path d="m33.08 10.264-4.162 10.447 21.932 21.22 13.168-27.528.074-.02-.08.012-7.533-8.337-11.357 2.041.01-.02-.218.058-11.835 2.127Z" fill="url(#p)" style="mix-blend-mode:overlay"/><path d="m8.355 36.54 8.882 6.898 23.932-6.234L20.92 7.967l.001-.077-.01.08-10.1 4.923L9.617 24.37l-.016-.015-.005.225-1.242 11.96Z" fill="url(#q)" style="mix-blend-mode:overlay"/><path d="m52.487 70.372 5.99-9.517-8.558-23.202L22.816 60.68l-.077.006.08.003 5.894 9.567 11.539.056-.013.018.224-.017 12.024.058Z" fill="url(#r)" style="mix-blend-mode:overlay"/><path d="M45.668 17.241 39.932 7.57l-6.148 9.419 11.884.253Z" fill="url(#s)"/><path d="m57.553 17.494-5.736-9.672-6.148 9.419 11.884.253Z" fill="url(#t)"/><path d="m57.554 17.495-6.475 24.634-5.407-24.888 11.882.254Z" fill="url(#u)"/><path d="m69.438 17.753-5.736-9.672-6.148 9.418 11.884.254Z" fill="url(#v)"/><path d="m69.438 17.753-5.736-9.672-6.148 9.418 11.884.254Z" fill="url(#w)"/><path d="m51.816 7.826 5.736 9.672L63.7 8.08l-11.884-.254Z" fill="url(#x)"/><path d="m39.934 7.57 5.736 9.672 6.147-9.418-11.883-.254Z" fill="url(#y)"/><path d="m33.787 16.988 11.883.254 5.408 24.889-17.29-25.143Z" fill="url(#z)"/><path d="m69.44 17.749-11.883-.254L51.08 42.13l18.36-24.38Z" fill="url(#A)"/><g filter="url(#B)"><path d="m56.737 17.43-5.292 24.074 7.748-23.953-2.456-.12Z" fill="#fff"/></g><path d="m56.737 17.43-5.292 24.074 7.748-23.953-2.456-.12Z" fill="#fff"/><g filter="url(#C)"><path d="m44.923 17.146 6.215 24.85-4.273-24.782-1.942-.068Z" fill="#fff"/></g><g filter="url(#D)"><path d="m45.329 18.1-11.394-1.113 11.124-.444 14.042.704 10.508.488-10.709.7-13.57-.335Z" fill="#fff"/></g><path d="m44.923 17.146 6.215 24.85-4.273-24.782-1.942-.068Z" fill="#fff"/><path d="m45.329 18.1-11.394-1.113 11.124-.444 14.042.704 10.508.488-10.709.7-13.57-.335Z" fill="#fff"/><path d="m51.37 7.859-5.885 9.24 6.788-9.295-.903.055Z" fill="#fff"/><circle cx="16.478" cy="58.423" fill="#fff" r="3.775"/><circle cx="20.978" cy="57.267" fill="#EE7248" r="3.775"/><circle cx="20.978" cy="57.267" fill="url(#E)" r="3.775"/><path fill-rule="evenodd" clip-rule="evenodd" d="M17.99 54.963a3.776 3.776 0 0 1 1.477 5.768 3.776 3.776 0 0 1-1.477-5.768Z" fill="url(#F)"/><defs><linearGradient id="b" x1="33.676" y1="32.885" x2="33.676" y2="73.627" gradientUnits="userSpaceOnUse"><stop stop-color="#fff" stop-opacity="0"/><stop offset="1" stop-color="#fff"/></linearGradient><linearGradient id="c" x1="66.969" y1="58.94" x2="67.703" y2="67.895" gradientUnits="userSpaceOnUse"><stop stop-color="#EA8B60"/><stop offset="1" stop-color="#201B37"/></linearGradient><linearGradient id="d" x1="52.409" y1="33.145" x2="44.038" y2="84.583" gradientUnits="userSpaceOnUse"><stop stop-color="#42AB44"/><stop offset="1" stop-color="#201B37"/></linearGradient><linearGradient id="e" x1="35.011" y1="34.652" x2="-1.761" y2="63.23" gradientUnits="userSpaceOnUse"><stop stop-color="#FFEF9F"/><stop offset="1" stop-color="#42AB44"/></linearGradient><linearGradient id="f" x1="47.519" y1="66.318" x2="34.981" y2="51.574" gradientUnits="userSpaceOnUse"><stop stop-color="#fff"/><stop offset="1" stop-color="#fff" stop-opacity="0"/></linearGradient><linearGradient id="g" x1="46.477" y1="68.238" x2="31.445" y2="38.053" gradientUnits="userSpaceOnUse"><stop stop-color="#9DC1F7"/><stop offset="1" stop-color="#9DC1F7" stop-opacity="0"/></linearGradient><linearGradient id="i" x1="64.582" y1="31.309" x2="64.582" y2="82.301" gradientUnits="userSpaceOnUse"><stop stop-color="#fff" stop-opacity="0"/><stop offset="1" stop-color="#C9EAFF"/></linearGradient><linearGradient id="j" x1="21.661" y1="11.804" x2="-14.396" y2="47.861" gradientUnits="userSpaceOnUse"><stop stop-color="#fff" stop-opacity="0"/><stop offset="1" stop-color="#C9EAFF"/></linearGradient><linearGradient id="k" x1="72.3" y1="35.176" x2="72.3" y2="85.562" gradientUnits="userSpaceOnUse"><stop stop-color="#fff" stop-opacity="0"/><stop offset="1" stop-color="#C9EAFF"/></linearGradient><linearGradient id="l" x1="18.837" y1="36.191" x2="41.151" y2="36.191" gradientUnits="userSpaceOnUse"><stop stop-color="#fff"/><stop offset="1" stop-color="#276EC8"/></linearGradient><linearGradient id="m" x1="20.812" y1="43.558" x2="43.126" y2="43.558" gradientUnits="userSpaceOnUse"><stop stop-color="#fff"/><stop offset="1" stop-color="#276EC8"/></linearGradient><linearGradient id="n" x1="45.747" y1="49.368" x2="47.361" y2="52.594" gradientUnits="userSpaceOnUse"><stop stop-color="#FEE54F"/><stop offset="1" stop-color="#fff"/></linearGradient><linearGradient id="o" x1="23.564" y1="39.855" x2="50.923" y2="39.755" gradientUnits="userSpaceOnUse"><stop stop-color="#fff" stop-opacity="0"/><stop offset="1" stop-color="#C9EAFF"/></linearGradient><linearGradient id="p" x1="38.985" y1="13.752" x2="46.314" y2="40.058" gradientUnits="userSpaceOnUse"><stop stop-color="#fff" stop-opacity="0"/><stop offset="1" stop-color="#C9EAFF"/></linearGradient><linearGradient id="q" x1="13.346" y1="31.835" x2="40.652" y2="32.096" gradientUnits="userSpaceOnUse"><stop stop-color="#fff" stop-opacity="0"/><stop offset="1" stop-color="#E0F3FF"/></linearGradient><linearGradient id="r" x1="47.314" y1="65.869" x2="44.886" y2="38.669" gradientUnits="userSpaceOnUse"><stop stop-color="#fff" stop-opacity="0"/><stop offset="1" stop-color="#E0F3FF"/></linearGradient><linearGradient id="s" x1="39.932" y1="7.569" x2="39.728" y2="17.114" gradientUnits="userSpaceOnUse"><stop stop-color="#C06F64"/><stop offset="1" stop-color="#E48E28"/></linearGradient><linearGradient id="t" x1="50.074" y1="9.753" x2="51.705" y2="14.869" gradientUnits="userSpaceOnUse"><stop stop-color="#FFF84D"/><stop offset="1" stop-color="#fff"/></linearGradient><linearGradient id="u" x1="51.613" y1="17.368" x2="49.403" y2="26.381" gradientUnits="userSpaceOnUse"><stop offset=".521" stop-color="#EEEA8E"/><stop offset="1" stop-color="#fff"/></linearGradient><linearGradient id="v" x1="63.702" y1="8.081" x2="63.498" y2="17.626" gradientUnits="userSpaceOnUse"><stop stop-color="#8ACDEA"/><stop offset="1" stop-color="#AADF74"/></linearGradient><linearGradient id="w" x1="63.702" y1="8.081" x2="63.498" y2="17.626" gradientUnits="userSpaceOnUse"><stop stop-color="#C06F64"/><stop offset="1" stop-color="#E48E28"/></linearGradient><linearGradient id="x" x1="56.672" y1="9.392" x2="57.555" y2="17.498" gradientUnits="userSpaceOnUse"><stop stop-color="#fff"/><stop offset="1" stop-color="#E49928"/></linearGradient><linearGradient id="y" x1="45.876" y1="7.697" x2="45.672" y2="17.242" gradientUnits="userSpaceOnUse"><stop stop-color="#FBEC63"/><stop offset="1" stop-color="#FFDAA4"/></linearGradient><linearGradient id="z" x1="40.731" y1="16.11" x2="37.461" y2="31.195" gradientUnits="userSpaceOnUse"><stop stop-color="#EBA741"/><stop offset="1" stop-color="#fff"/></linearGradient><linearGradient id="A" x1="60.528" y1="17.558" x2="60.423" y2="33.722" gradientUnits="userSpaceOnUse"><stop stop-color="#DCFFE5"/><stop offset="1" stop-color="#EBE78C"/></linearGradient><linearGradient id="E" x1="19.789" y1="54.472" x2="22.412" y2="55.578" gradientUnits="userSpaceOnUse"><stop stop-color="#FFB876"/><stop offset="1" stop-color="#F26141" stop-opacity="0"/></linearGradient><linearGradient id="F" x1="17.781" y1="55.666" x2="20.096" y2="57.546" gradientUnits="userSpaceOnUse"><stop stop-color="#FEE54F"/><stop offset="1" stop-color="#fff"/></linearGradient><filter id="a" x="4.207" y="28.885" width="58.938" height="48.809" filterUnits="userSpaceOnUse" color-interpolation-filters="sRGB"><feFlood flood-opacity="0" result="BackgroundImageFix"/><feBlend in="SourceGraphic" in2="BackgroundImageFix" result="shape"/><feGaussianBlur stdDeviation="2" result="effect1_foregroundBlur_5889_14877"/></filter><filter id="B" x="49.445" y="15.431" width="11.748" height="28.073" filterUnits="userSpaceOnUse" color-interpolation-filters="sRGB"><feFlood flood-opacity="0" result="BackgroundImageFix"/><feBlend in="SourceGraphic" in2="BackgroundImageFix" result="shape"/><feGaussianBlur stdDeviation="1" result="effect1_foregroundBlur_5889_14877"/></filter><filter id="C" x="41.924" y="14.146" width="12.215" height="30.85" filterUnits="userSpaceOnUse" color-interpolation-filters="sRGB"><feFlood flood-opacity="0" result="BackgroundImageFix"/><feBlend in="SourceGraphic" in2="BackgroundImageFix" result="shape"/><feGaussianBlur stdDeviation="1.5" result="effect1_foregroundBlur_5889_14877"/></filter><filter id="D" x="31.936" y="14.543" width="39.674" height="5.893" filterUnits="userSpaceOnUse" color-interpolation-filters="sRGB"><feFlood flood-opacity="0" result="BackgroundImageFix"/><feBlend in="SourceGraphic" in2="BackgroundImageFix" result="shape"/><feGaussianBlur stdDeviation="1" result="effect1_foregroundBlur_5889_14877"/></filter></defs></svg>