<svg width="24" height="24" fill="none" xmlns="http://www.w3.org/2000/svg"><path d="M2 12.83V15c0 5 2 7 7 7h6c5 0 7-2 7-7V9c0-5-2-7-7-7H9C4 2 2 4 2 9" stroke="#1C1C1C" stroke-width="2" stroke-linecap="round" stroke-linejoin="round"/><path d="M16 9.08c0 .496-.156.953-.425 1.35-.659.964-2.01 1.57-3.575 1.57-1.564 0-2.916-.616-3.575-1.57A2.394 2.394 0 0 1 8 9.08c0-.855.447-1.62 1.162-2.176.726-.566 1.72-.904 2.827-.904 1.106 0 2.1.348 2.827.904C15.553 7.45 16 8.225 16 9.079Z" stroke="#42AB44" stroke-width="2" stroke-linecap="round" stroke-linejoin="round"/><path d="M16 9.18v2.813C16 13.753 14.21 15 12.006 15 9.8 15 8 13.742 8 11.993V9.181C8 7.42 9.79 6 12.006 6c1.107 0 2.103.358 2.83.93C15.552 7.504 16 8.302 16 9.18Z" stroke="#42AB44" stroke-width="2" stroke-linecap="round" stroke-linejoin="round"/><path d="M16 12.18v2.813C16 16.753 14.21 18 12.006 18 9.8 18 8 16.742 8 14.993v-2.812" stroke="#42AB44" stroke-width="2" stroke-linecap="round" stroke-linejoin="round"/></svg>