<svg id="icon" width="70" height="70" fill="none" xmlns="http://www.w3.org/2000/svg"><path d="M39.5 67C54.688 67 67 65.21 67 63s-12.312-4-27.5-4S12 60.79 12 63s12.312 4 27.5 4Z" fill="#050304"/><path d="M39.5 67C54.688 67 67 65.21 67 63s-12.312-4-27.5-4S12 60.79 12 63s12.312 4 27.5 4Z" fill="url(#paint0_linear_2517_330)"/><path d="M39.5 67C54.688 67 67 65.21 67 63s-12.312-4-27.5-4S12 60.79 12 63s12.312 4 27.5 4Z" fill="#050304"/><path d="M39.5 67C54.688 67 67 65.21 67 63s-12.312-4-27.5-4S12 60.79 12 63s12.312 4 27.5 4Z" fill="url(#paint1_linear_2517_330)"/><path d="M33.27 9.951h3.68c12.993 0 23.53 10.538 23.53 23.53 0 12.994-10.537 23.532-23.536 23.532h-3.681c-12.993 0-23.53-10.538-23.53-23.531 0-12.993 10.537-23.53 23.536-23.53Z" fill="#42AB44"/><path d="M33.27 9.951h3.68c12.993 0 23.53 10.538 23.53 23.53 0 12.994-10.537 23.532-23.536 23.532h-3.681c-12.993 0-23.53-10.538-23.53-23.531 0-12.993 10.537-23.53 23.536-23.53Z" fill="url(#paint2_radial_2517_330)"/><path d="M33.27 9.951h3.68c12.993 0 23.53 10.538 23.53 23.53 0 12.994-10.537 23.532-23.536 23.532h-3.681c-12.993 0-23.53-10.538-23.53-23.531 0-12.993 10.537-23.53 23.536-23.53Z" fill="url(#paint3_linear_2517_330)"/><path d="M36.944 9.951h-3.68c12.992 0 23.53 10.538 23.53 23.53 0 12.994-10.531 23.532-23.53 23.532h3.673c12.993 0 23.53-10.538 23.53-23.531 0-12.993-10.524-23.53-23.523-23.53Z" fill="url(#paint4_linear_2517_330)"/><path d="M30.342 3.107H38.028a2.238 2.238 0 0 1 2.239 2.239 2.238 2.238 0 0 1-2.239 2.239H30.342a2.238 2.238 0 0 1-2.24-2.24 2.238 2.238 0 0 1 2.24-2.238Z" fill="#FFCA42"/><path d="M30.342 3.107H38.028a2.238 2.238 0 0 1 2.239 2.239 2.238 2.238 0 0 1-2.239 2.239H30.342a2.238 2.238 0 0 1-2.24-2.24 2.238 2.238 0 0 1 2.24-2.238Z" fill="url(#paint5_linear_2517_330)"/><path d="M38.035 3.107h-1.36c.9.35 1.532 1.218 1.532 2.239 0 1.02-.638 1.888-1.531 2.239h1.358a2.238 2.238 0 0 0 2.24-2.24 2.238 2.238 0 0 0-2.24-2.238Z" fill="#2A473B"/><path d="M32.351 5.48c1.825 0 3.304-.377 3.304-.842 0-.465-1.48-.842-3.304-.842-1.825 0-3.304.377-3.304.842 0 .465 1.48.842 3.304.842Z" fill="#fff"/><path d="M31.05 7.591h6.276c0 1.218.766 1.997 1.32 2.398.148.109.071.338-.108.338h-8.693a.185.185 0 0 1-.11-.338c.55-.408 1.315-1.186 1.315-2.398Z" fill="#ABBC43"/><path d="M37.371 10.327h1.16c.186 0 .262-.23.11-.338-.556-.402-1.321-1.18-1.321-2.398h-6.27c0 .223-.026.427-.07.619 1.275.006 3.227.044 3.91.236 1.04.293 1.658.625 1.639 1.326a4.888 4.888 0 0 1-.064.562h.906v-.007Z" fill="#050304"/><path d="M33.27 53.026c10.793 0 19.543-8.75 19.543-19.544s-8.75-19.544-19.544-19.544-19.544 8.75-19.544 19.544 8.75 19.544 19.544 19.544Z" fill="#FFCA42"/><path d="M33.27 53.026c10.793 0 19.543-8.75 19.543-19.544s-8.75-19.544-19.544-19.544-19.544 8.75-19.544 19.544 8.75 19.544 19.544 19.544Z" fill="url(#paint6_linear_2517_330)"/><path d="M39.643 36.015a5.454 5.454 0 1 0 0-10.91 5.454 5.454 0 0 0 0 10.91Z" fill="#FFCA42"/><path d="M36.19 46.386c-5.236 0-9.848-2.673-12.546-6.723L20.321 41.8a1.325 1.325 0 0 0-.326 1.926c3.069 3.967 7.872 6.519 13.274 6.519 7.24 0 13.414-4.593 15.755-11.029-2.653 4.306-7.405 7.17-12.833 7.17Z" fill="url(#paint7_linear_2517_330)"/><path d="M33.748 30.56a2.928 2.928 0 0 0-2.928 2.928c0 .28.045.549.115.804l-10.55 7.22a.333.333 0 0 0-.09.453.33.33 0 0 0 .453.102l10.965-6.487a2.927 2.927 0 0 0 4.969-2.098 2.94 2.94 0 0 0-2.934-2.922ZM33.27 50.245a.569.569 0 0 1-.569-.568v-1.594c0-.313.256-.568.568-.568.313 0 .562.261.562.574v1.595a.562.562 0 0 1-.562.56Zm0-30.802a.569.569 0 0 1-.569-.568V17.28c0-.312.256-.567.568-.567.313 0 .562.261.562.574v1.594a.558.558 0 0 1-.562.562ZM21.812 45.499a.581.581 0 0 1-.402-.166.558.558 0 0 1 0-.797l1.13-1.129a.558.558 0 0 1 .797 0 .558.558 0 0 1 0 .797l-1.13 1.13a.52.52 0 0 1-.395.165Zm21.783-21.776a.581.581 0 0 1-.402-.166.558.558 0 0 1 0-.797l1.13-1.13a.558.558 0 0 1 .797 0 .558.558 0 0 1 0 .798l-1.13 1.129a.567.567 0 0 1-.395.166Zm5.868 10.327H47.87a.569.569 0 0 1 0-1.136h1.594a.569.569 0 0 1 0 1.135Zm-30.802 0h-1.594a.569.569 0 0 1 0-1.136h1.594a.569.569 0 0 1 0 1.135ZM44.72 45.5a.581.581 0 0 1-.402-.167l-1.13-1.129a.558.558 0 0 1 0-.797.558.558 0 0 1 .798 0l1.13 1.13a.558.558 0 0 1 0 .796.52.52 0 0 1-.396.166ZM22.942 23.722a.581.581 0 0 1-.402-.166l-1.129-1.13a.558.558 0 0 1 0-.796.558.558 0 0 1 .798 0l1.129 1.129a.558.558 0 0 1 0 .797.555.555 0 0 1-.396.166Z" fill="#050304"/><path d="m55.842 15.096-1.962-1.989-2.725 2.688 1.962 1.989 2.725-2.688Z" fill="#253139"/><path d="m56.647 15.909-3.572-3.623a1.326 1.326 0 0 1 .013-1.87l.841-.835a1.326 1.326 0 0 1 1.87.013l3.572 3.623c.51.517.503 1.352-.013 1.869l-.842.835a1.326 1.326 0 0 1-1.87-.012Z" fill="#FFCA42"/><path d="m56.647 15.909-3.572-3.623a1.326 1.326 0 0 1 .013-1.87l.841-.835a1.326 1.326 0 0 1 1.87.013l3.572 3.623c.51.517.503 1.352-.013 1.869l-.842.835a1.326 1.326 0 0 1-1.87-.012Z" fill="url(#paint8_linear_2517_330)"/><path d="M56.42 12.24c.321-.32.117-1.045-.456-1.618-.573-.573-1.298-.777-1.619-.456-.321.321-.117 1.046.456 1.62.572.572 1.297.776 1.619.455Z" fill="#fff"/><defs><linearGradient id="paint0_linear_2517_330" x1="67" y1="67" x2="12.059" y2="67" gradientUnits="userSpaceOnUse"><stop offset=".135" stop-color="#0057D6"/><stop offset=".516" stop-color="#0057D6" stop-opacity="0"/><stop offset=".74" stop-color="#FA552D" stop-opacity="0"/><stop offset="1" stop-color="#FA552D"/></linearGradient><linearGradient id="paint1_linear_2517_330" x1="67" y1="67" x2="12.059" y2="67" gradientUnits="userSpaceOnUse"><stop stop-color="#04D600"/><stop offset=".297" stop-color="#00D63C" stop-opacity="0"/><stop offset=".833" stop-color="#FA552D" stop-opacity="0"/><stop offset="1" stop-color="#FA552D"/></linearGradient><linearGradient id="paint3_linear_2517_330" x1="48.793" y1="52.012" x2="38.497" y2="33.482" gradientUnits="userSpaceOnUse"><stop stop-color="#93BE4C"/><stop offset="1" stop-color="#93BE4C" stop-opacity="0"/></linearGradient><linearGradient id="paint4_linear_2517_330" x1="77.215" y1="39.36" x2="42.132" y2="25.691" gradientUnits="userSpaceOnUse"><stop stop-color="#42AB44"/><stop offset="1" stop-color="#201B37"/></linearGradient><linearGradient id="paint5_linear_2517_330" x1="28.103" y1="7.585" x2="31.779" y2="7.585" gradientUnits="userSpaceOnUse"><stop stop-color="#FA552D"/><stop offset="1" stop-color="#FA552D" stop-opacity="0"/></linearGradient><linearGradient id="paint6_linear_2517_330" x1="28.738" y1="31.666" x2="21.229" y2="15.896" gradientUnits="userSpaceOnUse"><stop stop-color="#FEFFCF"/><stop offset="1" stop-color="#FEFFCF" stop-opacity="0"/></linearGradient><linearGradient id="paint7_linear_2517_330" x1="23.067" y1="42.046" x2="45.849" y2="50.245" gradientUnits="userSpaceOnUse"><stop stop-color="#CBE482"/><stop offset="1" stop-color="#7DC15D"/></linearGradient><linearGradient id="paint8_linear_2517_330" x1="52.696" y1="13.314" x2="54.341" y2="9.202" gradientUnits="userSpaceOnUse"><stop stop-color="#FA552D"/><stop offset="1" stop-color="#FA552D" stop-opacity="0"/></linearGradient><radialGradient id="paint2_radial_2517_330" cx="0" cy="0" r="1" gradientUnits="userSpaceOnUse" gradientTransform="matrix(15.8233 19.9412 -20.78072 16.48944 36.068 34.761)"><stop offset=".892" stop-color="#FFCA42" stop-opacity="0"/><stop offset="1" stop-color="#FFCA42"/></radialGradient></defs></svg>