<svg width="70" height="70" fill="none" xmlns="http://www.w3.org/2000/svg"><path d="M37.091 67c16.454 0 29.792-1.756 29.792-3.923s-13.338-3.923-29.792-3.923C20.638 59.154 7.3 60.91 7.3 63.077S20.638 67 37.091 67z" fill="#050304"/><path d="M37.091 67c16.454 0 29.792-1.756 29.792-3.923s-13.338-3.923-29.792-3.923C20.638 59.154 7.3 60.91 7.3 63.077S20.638 67 37.091 67z" fill="url(#a)"/><path d="M59.223 26.546h-5.434l2.285-14.784C56.784 7.16 53.219 3 48.56 3H25.923c-4.652 0-8.217 4.14-7.52 8.742l2.247 14.861a6.212 6.212 0 0 0-.775-.057h-9.33a5.646 5.646 0 0 0 0 11.29c.434 0 .85-.052 1.254-.148l3.552 15.565a2.07 2.07 0 0 0 1.484 1.536l.538.077h35.021l.493-.064a2.072 2.072 0 0 0 1.53-1.55l3.551-15.558v-.006c.403.09.826.147 1.255.147a5.646 5.646 0 0 0 5.644-5.645 5.638 5.638 0 0 0-5.644-5.644z" fill="#050304"/><path d="M59.223 26.546h-5.434l2.285-14.784C56.784 7.16 53.219 3 48.56 3H25.923c-4.652 0-8.217 4.14-7.52 8.742l2.247 14.861a6.212 6.212 0 0 0-.775-.057h-9.33a5.646 5.646 0 0 0 0 11.29c.434 0 .85-.052 1.254-.148l3.552 15.565a2.07 2.07 0 0 0 1.484 1.536l.538.077h35.021l.493-.064a2.072 2.072 0 0 0 1.53-1.55l3.551-15.558v-.006c.403.09.826.147 1.255.147a5.646 5.646 0 0 0 5.644-5.645 5.638 5.638 0 0 0-5.644-5.644z" fill="url(#b)"/><path d="M59.223 26.546h-5.434l2.285-14.784C56.784 7.16 53.219 3 48.56 3H25.923c-4.652 0-8.217 4.14-7.52 8.742l2.247 14.861a6.212 6.212 0 0 0-.775-.057h-9.33a5.646 5.646 0 0 0 0 11.29c.434 0 .85-.052 1.254-.148l3.552 15.565a2.07 2.07 0 0 0 1.484 1.536l.538.077h35.021l.493-.064a2.072 2.072 0 0 0 1.53-1.55l3.551-15.558v-.006c.403.09.826.147 1.255.147a5.646 5.646 0 0 0 5.644-5.645 5.638 5.638 0 0 0-5.644-5.644z" fill="url(#c)"/><path d="M59.223 26.546h-5.434l2.285-14.784C56.784 7.16 53.219 3 48.56 3H25.923c-4.652 0-8.217 4.14-7.52 8.742l2.247 14.861a6.212 6.212 0 0 0-.775-.057h-9.33a5.646 5.646 0 0 0 0 11.29c.434 0 .85-.052 1.254-.148l3.552 15.565a2.07 2.07 0 0 0 1.484 1.536l.538.077h35.021l.493-.064a2.072 2.072 0 0 0 1.53-1.55l3.551-15.558v-.006c.403.09.826.147 1.255.147a5.646 5.646 0 0 0 5.644-5.645 5.638 5.638 0 0 0-5.644-5.644z" fill="#050304"/><path d="M59.223 26.546h-5.434l2.285-14.784C56.784 7.16 53.219 3 48.56 3H25.923c-4.652 0-8.217 4.14-7.52 8.742l2.247 14.861a6.212 6.212 0 0 0-.775-.057h-9.33a5.646 5.646 0 0 0 0 11.29c.434 0 .85-.052 1.254-.148l3.552 15.565a2.07 2.07 0 0 0 1.484 1.536l.538.077h35.021l.493-.064a2.072 2.072 0 0 0 1.53-1.55l3.551-15.558v-.006c.403.09.826.147 1.255.147a5.646 5.646 0 0 0 5.644-5.645 5.638 5.638 0 0 0-5.644-5.644z" fill="url(#d)"/><mask id="e" style="mask-type:alpha" maskUnits="userSpaceOnUse" x="19" y="4" width="34" height="37"><path d="M44.904 4.082H26.658c-4.39 0-7.744 3.904-7.091 8.243l4.153 28.537h24.032l4.237-28.518c.672-4.345-2.688-8.262-7.085-8.262z" fill="#91BD65"/></mask><g mask="url(#e)"><path d="M45.103 4.082H26.857c-4.39 0-7.744 3.904-7.091 8.243l4.154 28.538h24.032l4.236-28.519C52.86 8 49.5 4.082 45.103 4.082z" fill="#42AB44"/><path fill-rule="evenodd" clip-rule="evenodd" d="M71.722 18.11c2.5-2.465 1.3-7.737-2.682-11.777-3.981-4.04-9.236-5.316-11.736-2.852-2.5 2.465-1.3 7.737 2.681 11.777 3.982 4.04 9.236 5.316 11.737 2.852zM51.78 10.508c-1.228-2.455-2.355-3.765-6.63-3.765H31.452c-3.211 0-7.316 2.587-6.56 7.313.204 1.273 1.607 10.883 2.892 19.684l1.04 7.122H22.93c-1.31-9.058-4.006-27.833-4.137-29.535-.163-2.128.655-4.502 2.374-5.975 1.719-1.474 3.438-1.883 7.612-1.883h19.972c1.883 0 4.283 1.8 4.774 3.274.393 1.179-.872 3.274-1.745 3.765z" fill="#CBE482"/><path fill-rule="evenodd" clip-rule="evenodd" d="M71.722 18.11c2.5-2.465 1.3-7.737-2.682-11.777-3.981-4.04-9.236-5.316-11.736-2.852-2.5 2.465-1.3 7.737 2.681 11.777 3.982 4.04 9.236 5.316 11.737 2.852zM51.78 10.508c-1.228-2.455-2.355-3.765-6.63-3.765H31.452c-3.211 0-7.316 2.587-6.56 7.313.204 1.273 1.607 10.883 2.892 19.684l1.04 7.122H22.93c-1.31-9.058-4.006-27.833-4.137-29.535-.163-2.128.655-4.502 2.374-5.975 1.719-1.474 3.438-1.883 7.612-1.883h19.972c1.883 0 4.283 1.8 4.774 3.274.393 1.179-.872 3.274-1.745 3.765z" fill="#B5E2FF"/><path fill-rule="evenodd" clip-rule="evenodd" d="M71.722 18.11c2.5-2.465 1.3-7.737-2.682-11.777-3.981-4.04-9.236-5.316-11.736-2.852-2.5 2.465-1.3 7.737 2.681 11.777 3.982 4.04 9.236 5.316 11.737 2.852zM51.78 10.508c-1.228-2.455-2.355-3.765-6.63-3.765H31.452c-3.211 0-7.316 2.587-6.56 7.313.204 1.273 1.607 10.883 2.892 19.684l1.04 7.122H22.93c-1.31-9.058-4.006-27.833-4.137-29.535-.163-2.128.655-4.502 2.374-5.975 1.719-1.474 3.438-1.883 7.612-1.883h19.972c1.883 0 4.283 1.8 4.774 3.274.393 1.179-.872 3.274-1.745 3.765z" fill="url(#f)"/></g><path d="m28.523 16.985 1.724 23.863h6.09l1.55-19.37A6 6 0 0 0 31.907 15h-1.61l-1.774 1.985z" fill="#B5E2FF"/><path d="m28.523 16.985 1.724 23.863h6.09l1.55-19.37A6 6 0 0 0 31.907 15h-1.61l-1.774 1.985z" fill="url(#g)"/><path d="m28.523 16.985 1.724 23.863h6.09l1.55-19.37A6 6 0 0 0 31.907 15h-1.61l-1.774 1.985z" fill="url(#h)"/><path d="M16.189 32.197a5.646 5.646 0 0 0-11.29 0 5.646 5.646 0 0 0 5.645 5.645 5.38 5.38 0 0 0 1.255-.147L15.35 53.26a2.08 2.08 0 0 0 2.022 1.612h2.112l-3.296-22.675z" fill="#7DC15D"/><path d="M16.189 32.197a5.646 5.646 0 0 0-11.29 0 5.646 5.646 0 0 0 5.645 5.645 5.38 5.38 0 0 0 1.255-.147L15.35 53.26a2.08 2.08 0 0 0 2.022 1.612h2.112l-3.296-22.675z" fill="#88BBFB"/><path d="M16.189 32.197a5.646 5.646 0 0 0-11.29 0 5.646 5.646 0 0 0 5.645 5.645 5.38 5.38 0 0 0 1.255-.147L15.35 53.26a2.08 2.08 0 0 0 2.022 1.612h2.112l-3.296-22.675z" fill="url(#i)"/><path d="M49.745 26.546A5.646 5.646 0 0 0 44.1 32.19l-3.296 22.682h2.112a2.08 2.08 0 0 0 2.023-1.613l3.551-15.565c.404.09.826.148 1.255.148a5.646 5.646 0 0 0 5.645-5.645 5.647 5.647 0 0 0-5.645-5.652z" fill="#7DC15D"/><path d="M49.745 26.546A5.646 5.646 0 0 0 44.1 32.19l-3.296 22.682h2.112a2.08 2.08 0 0 0 2.023-1.613l3.551-15.565c.404.09.826.148 1.255.148a5.646 5.646 0 0 0 5.645-5.645 5.647 5.647 0 0 0-5.645-5.652z" fill="#88BBFB"/><path d="M49.745 26.546A5.646 5.646 0 0 0 44.1 32.19l-3.296 22.682h2.112a2.08 2.08 0 0 0 2.023-1.613l3.551-15.565c.404.09.826.148 1.255.148a5.646 5.646 0 0 0 5.645-5.645 5.647 5.647 0 0 0-5.645-5.652z" fill="url(#j)"/><path d="M40.19 40.862H20.156c-.845 0-1.491.75-1.37 1.581l1.805 12.435h19.156l1.804-12.435a1.372 1.372 0 0 0-1.363-1.58z" fill="#88BBFB"/><path d="M40.19 40.862H20.156c-.845 0-1.491.75-1.37 1.581l1.805 12.435h19.156l1.804-12.435a1.372 1.372 0 0 0-1.363-1.58z" fill="url(#k)"/><path d="M40.19 40.862H20.156c-.845 0-1.491.75-1.37 1.581l1.805 12.435h19.156l1.804-12.435a1.372 1.372 0 0 0-1.363-1.58z" fill="url(#l)"/><path d="M10.544 37.034a4.837 4.837 0 1 0 0-9.674 4.837 4.837 0 0 0 0 9.674z" fill="#FFCA42"/><path d="M10.544 37.034a4.837 4.837 0 1 0 0-9.674 4.837 4.837 0 0 0 0 9.674z" fill="url(#m)"/><path d="M49.847 37.034a4.837 4.837 0 1 0 0-9.674 4.837 4.837 0 0 0 0 9.674z" fill="#FFCA42"/><path d="M49.847 37.034a4.837 4.837 0 1 0 0-9.674 4.837 4.837 0 0 0 0 9.674z" fill="url(#n)"/><path d="M13.584 29.15a4.286 4.286 0 0 0-3.04-1.26 4.302 4.302 0 0 0-4.3 4.3c0 1.19.48 2.266 1.26 3.04l6.08-6.08z" fill="#fff"/><path d="M13.584 29.15a4.286 4.286 0 0 0-3.04-1.26 4.302 4.302 0 0 0-4.3 4.3c0 1.19.48 2.266 1.26 3.04l6.08-6.08z" fill="#FFCA42"/><path d="M52.887 29.15a4.286 4.286 0 0 0-3.04-1.26 4.302 4.302 0 0 0-4.301 4.3c0 1.19.48 2.266 1.26 3.04l6.08-6.08z" fill="#fff"/><path d="M52.887 29.15a4.286 4.286 0 0 0-3.04-1.26 4.302 4.302 0 0 0-4.301 4.3c0 1.19.48 2.266 1.26 3.04l6.08-6.08z" fill="#FFCA42"/><path d="M49.847 33.176a.98.98 0 1 0 0-1.958.98.98 0 0 0 0 1.958zm-39.302 0a.98.98 0 1 0 0-1.958.98.98 0 0 0 0 1.958zM33.91 49.247a.691.691 0 1 0 0-1.383.691.691 0 0 0 0 1.383zm-9.555 0a.691.691 0 1 0 0-1.383.691.691 0 0 0 0 1.383zM39.39 14.52h-1.038a2.972 2.972 0 0 1 2.938 3.43l-3.142 22.906h1.036l3.143-22.906a2.975 2.975 0 0 0-2.938-3.43z" fill="#050304"/><path d="M29.642 19.186a2.972 2.972 0 0 1 2.944-3.418h7.571c.224 0 .442.026.647.07-.532-.78-1.415-1.318-2.452-1.318h-7.57a2.979 2.979 0 0 0-2.945 3.418l2.413 22.918s.34-8.838-.083-12.813c-.423-3.974-.525-8.857-.525-8.857z" fill="#FFCA42"/><path d="M48.56 3H25.925c-4.653 0-8.218 4.14-7.52 8.742l2.24 14.804h.813l-2.074-14.221c-.646-4.34 2.707-8.243 7.098-8.243h18.246a7.136 7.136 0 0 1 5.709 2.848l3.955-1.197A7.558 7.558 0 0 0 48.561 3z" fill="#FFCA42"/><path d="M48.56 3H25.925c-4.653 0-8.218 4.14-7.52 8.742l2.24 14.804h.813l-2.074-14.221c-.646-4.34 2.707-8.243 7.098-8.243h18.246a7.136 7.136 0 0 1 5.709 2.848l3.955-1.197A7.558 7.558 0 0 0 48.561 3z" fill="url(#o)"/><path d="m18.788 42.443.057.39h11.066c4.41 0 3.987-1.97 3.987-1.97h-13.74a1.38 1.38 0 0 0-1.37 1.58z" fill="url(#p)"/><path d="M36.58 48.555c0-.979.23-1.85.582-2.451-.525.448-.89 1.37-.89 2.451 0 1.082.365 2.003.89 2.451-.358-.601-.582-1.472-.582-2.45z" fill="#fff"/><path d="M41.86 14.987c-1.031-1.03-1.812-2.15-2.068-3.161-.083 1.024.505 2.387 1.645 3.526 1.139 1.14 2.496 1.728 3.526 1.645-1.017-.263-2.074-.973-3.104-2.01z" fill="#050304"/><path d="M27.024 48.555c0-.979.23-1.85.583-2.451-.525.448-.89 1.37-.89 2.451 0 1.082.365 2.003.89 2.451-.358-.601-.582-1.472-.582-2.45z" fill="#fff"/><path d="M17.757 63.051h-.884l.621-8.179h1.99l-1.727 8.18zm24.87 0h.883l-.62-8.179H40.9l1.727 8.18z" fill="#42AB44"/><path d="M27.133 63.051h-.884l.621-8.179h1.99l-1.727 8.18zm24.87 0h.883l-.62-8.179h-1.991l1.728 8.18z" fill="#050304"/><path d="M49.7 26.552c.044 0 .09-.007.14-.007 1.018 0 1.971.276 2.797.75h9.383a5.603 5.603 0 0 0-2.797-.75h-5.434l-4.09.007z" fill="url(#q)"/><defs><linearGradient id="a" x1="66.883" y1="67" x2="7.364" y2="67" gradientUnits="userSpaceOnUse"><stop stop-color="#04D600"/><stop offset=".297" stop-color="#00D63C" stop-opacity="0"/><stop offset=".833" stop-color="#FA552D" stop-opacity="0"/><stop offset="1" stop-color="#FA552D"/></linearGradient><linearGradient id="b" x1="58.724" y1="54.81" x2="58.724" y2="47.053" gradientUnits="userSpaceOnUse"><stop stop-color="#0057D6"/><stop offset="1" stop-color="#0057D6" stop-opacity="0"/></linearGradient><linearGradient id="c" x1="69.443" y1="40.44" x2="52.803" y2="35.64" gradientUnits="userSpaceOnUse"><stop stop-color="#5F1A58"/><stop offset="1" stop-color="#5F1A58" stop-opacity="0"/></linearGradient><linearGradient id="d" x1="64.868" y1="54.866" x2="4.964" y2="54.866" gradientUnits="userSpaceOnUse"><stop stop-color="#04D600"/><stop offset=".297" stop-color="#00D63C" stop-opacity="0"/><stop offset=".833" stop-color="#FA552D" stop-opacity="0"/><stop offset="1" stop-color="#FA552D"/></linearGradient><linearGradient id="f" x1="33.923" y1="11.359" x2="40.237" y2="42.028" gradientUnits="userSpaceOnUse"><stop stop-color="#7DC15D"/><stop offset="1" stop-color="#FEE54F"/></linearGradient><linearGradient id="g" x1="35.976" y1="44.633" x2="28.52" y2="38.069" gradientUnits="userSpaceOnUse"><stop stop-color="#0057D6"/><stop offset="1" stop-color="#0057D6" stop-opacity="0"/></linearGradient><linearGradient id="h" x1="31.283" y1="21.11" x2="41.571" y2="34.719" gradientUnits="userSpaceOnUse"><stop stop-color="#7DC15D"/><stop offset="1" stop-color="#FEE54F"/></linearGradient><linearGradient id="i" x1="8.973" y1="33.246" x2="18.974" y2="51.066" gradientUnits="userSpaceOnUse"><stop stop-color="#7DC15D"/><stop offset="1" stop-color="#FEE54F"/></linearGradient><linearGradient id="j" x1="44.877" y1="33.241" x2="54.882" y2="51.063" gradientUnits="userSpaceOnUse"><stop stop-color="#7DC15D"/><stop offset="1" stop-color="#FEE54F"/></linearGradient><linearGradient id="k" x1="38.909" y1="54.878" x2="33.668" y2="43.769" gradientUnits="userSpaceOnUse"><stop stop-color="#93BE4C"/><stop offset="1" stop-color="#93BE4C" stop-opacity="0"/></linearGradient><linearGradient id="l" x1="25.139" y1="44.175" x2="27.137" y2="55.417" gradientUnits="userSpaceOnUse"><stop stop-color="#7DC15D"/><stop offset="1" stop-color="#FEE54F"/></linearGradient><linearGradient id="m" x1="6.53" y1="27.758" x2="14.453" y2="36.78" gradientUnits="userSpaceOnUse"><stop stop-color="#FA552D"/><stop offset="1" stop-color="#FA552D" stop-opacity="0"/></linearGradient><linearGradient id="n" x1="45.832" y1="27.758" x2="53.755" y2="36.78" gradientUnits="userSpaceOnUse"><stop stop-color="#FA552D"/><stop offset="1" stop-color="#FA552D" stop-opacity="0"/></linearGradient><linearGradient id="o" x1="16.208" y1="26.546" x2="27.261" y2="14.773" gradientUnits="userSpaceOnUse"><stop stop-color="#FA552D"/><stop offset="1" stop-color="#FA552D" stop-opacity="0"/></linearGradient><linearGradient id="p" x1="32.619" y1="45.431" x2="21.192" y2="37.803" gradientUnits="userSpaceOnUse"><stop stop-color="#DCFFE5"/><stop offset="1" stop-color="#EBE78C"/></linearGradient><linearGradient id="q" x1="60.803" y1="26.68" x2="60.642" y2="25.385" gradientUnits="userSpaceOnUse"><stop stop-color="#CBE482"/><stop offset="1" stop-color="#FEC0FF"/></linearGradient></defs></svg>