<svg width="24" height="24" fill="none" xmlns="http://www.w3.org/2000/svg"><path d="M12 24c6.627 0 12-5.373 12-12S18.627 0 12 0 0 5.373 0 12s5.373 12 12 12Z" fill="#46B448"/><path d="M14.58 14.52c0-2.465-6.739-.999-6.739-4.992 0-1.45 1.295-2.698 3.276-3.01V5.27h1.793v1.216c1.42.141 2.621.702 3.432 1.514l-1.03 1.34c-.935-.78-1.933-1.138-3.244-1.138-1.154 0-2.277.359-2.277 1.279 0 2.2 6.738.89 6.738 4.897 0 1.763-1.59 3.012-3.618 3.198v1.342h-1.794v-1.42c-1.513-.265-2.855-1.015-3.588-1.888l1.123-1.325c.936.982 2.325 1.56 3.853 1.56 1.31 0 2.074-.5 2.074-1.327l.001.001Z" fill="#fff"/></svg>