<svg id="icon" width="24" height="24" fill="none" xmlns="http://www.w3.org/2000/svg"><path d="M12 24c6.627 0 12-5.373 12-12S18.627 0 12 0 0 5.373 0 12s5.373 12 12 12Z" fill="#3060BF"/><path d="m6.192 11.476.578-1.45h1.006c.681-1.94 2.413-3.316 4.782-3.316 1.095 0 1.998.237 2.634.68l-.636 1.348c-.518-.31-1.17-.489-1.998-.489-1.288 0-2.325.666-2.858 1.776h4.545l-.547 1.45H9.27c-.015.194-.03.505-.03.727 0 .088 0 .148.015.251h4.16l-.473 1.45H9.597c.444 1.156 1.672 1.88 3.123 1.88.517 0 1.332-.162 1.806-.473l.444 1.377c-.415.34-1.422.622-2.295.622-2.517 0-4.278-1.229-4.973-3.405H6.221l.547-1.45c.696 0 .696-.016.696-.016 0-.044-.015-.163-.015-.266 0-.326.015-.518.03-.696H6.192Z" fill="#fff"/></svg>