<svg fill="none" xmlns="http://www.w3.org/2000/svg" viewBox="0 0 63 63"><g clip-path="url(#a)"><path d="M63 60.987c0-.13-.172-.259-.505-.382-3.072-.812-12.836-1.398-24.405-1.398-14.04 0-25.427.873-25.427 1.944 0 .13.172.26.505.382 3.083.812 12.837 1.399 24.406 1.399 14.04 0 25.426-.873 25.426-1.945Z" fill="#050304"/><path d="M63 60.987c0-.13-.172-.259-.505-.382-3.072-.812-12.836-1.398-24.405-1.398-14.04 0-25.427.873-25.427 1.944 0 .13.172.26.505.382 3.083.812 12.837 1.399 24.406 1.399 14.04 0 25.426-.873 25.426-1.945Z" fill="url(#b)"/><path d="M63 60.987c0-.13-.172-.259-.505-.382-3.072-.812-12.836-1.398-24.405-1.398-14.04 0-25.427.873-25.427 1.944 0 .13.172.26.505.382 3.083.812 12.837 1.399 24.406 1.399 14.04 0 25.426-.873 25.426-1.945Z" fill="#050304"/><path d="M63 60.987c0-.13-.172-.259-.505-.382-3.072-.812-12.836-1.398-24.405-1.398-14.04 0-25.427.873-25.427 1.944 0 .13.172.26.505.382 3.083.812 12.837 1.399 24.406 1.399 14.04 0 25.426-.873 25.426-1.945Z" fill="url(#c)"/><path d="M53.554 40.447a.31.31 0 0 0-.609 0l-.269 1.279a1.153 1.153 0 0 1-.89.89l-1.28.27a.31.31 0 0 0 0 .608l1.28.27c.447.093.796.443.89.89l.27 1.28a.31.31 0 0 0 .608 0l.269-1.28a1.15 1.15 0 0 1 .89-.89l1.28-.27a.31.31 0 0 0 0-.608l-1.28-.27a1.153 1.153 0 0 1-.89-.89l-.27-1.279Z" fill="#FFCA42"/><path d="M48.658 53.298H15.076a.827.827 0 0 1-.824-.824v-2.213c0-.454.37-.825.824-.825h33.582c.453 0 .824.371.824.825v2.213a.827.827 0 0 1-.824.824Z" fill="#FA552D"/><path d="M48.658 53.298H15.076a.827.827 0 0 1-.824-.824v-2.213c0-.454.37-.825.824-.825h33.582c.453 0 .824.371.824.825v2.213a.827.827 0 0 1-.824.824Z" fill="#42AB44"/><path d="M26.19 52.168h-.597v.552h.597v-.552Zm1.196-.42h-.598v.972h.598v-.972Zm1.195-.643h-.598v1.615h.598v-1.615Zm1.195.26h-.598v1.355h.598v-1.356Zm1.191-1.357h-.598v2.436h.598v-2.436Zm1.195 0h-.597v2.712h.597v-2.712Zm1.196 0h-.598v2.712h.598v-2.712Zm1.195 0h-.598v2.712h.598v-2.712Zm1.19 0h-.597v2.712h.598v-2.712Zm1.196 0h-.597v2.712h.597v-2.712Zm1.195 0h-.597v2.712h.597v-2.712Zm1.196 0h-.598v1.904h.598v-1.904Zm1.19 0h-.597v2.712h.598v-2.712Zm1.196 0h-.598v2.712h.598v-2.712Zm1.195 0h-.598v2.712h.598v-2.712Zm1.195 0h-.597v2.712h.597v-2.712Zm1.191 0H44.7v2.712h.597v-2.712Zm1.196 0h-.598v2.712h.597v-2.712Zm1.195 0h-.598v2.712h.598v-2.712Zm1.195 0h-.598v2.712h.598v-2.712Z" fill="#5F1A58"/><path d="M26.19 52.168h-.597v.552h.597v-.552Zm1.196-.42h-.598v.972h.598v-.972Zm1.195-.643h-.598v1.615h.598v-1.615Zm1.195.26h-.598v1.355h.598v-1.356Zm1.191-1.357h-.598v2.436h.598v-2.436Zm1.195 0h-.597v2.712h.597v-2.712Zm1.196 0h-.598v2.712h.598v-2.712Zm1.195 0h-.598v2.712h.598v-2.712Zm1.19 0h-.597v2.712h.598v-2.712Zm1.196 0h-.597v2.712h.597v-2.712Zm1.195 0h-.597v2.712h.597v-2.712Zm1.196 0h-.598v1.904h.598v-1.904Zm1.19 0h-.597v2.712h.598v-2.712Zm1.196 0h-.598v2.712h.598v-2.712Zm1.195 0h-.598v2.712h.598v-2.712Zm1.195 0h-.597v2.712h.597v-2.712Zm1.191 0H44.7v2.712h.597v-2.712Zm1.196 0h-.598v2.712h.597v-2.712Zm1.195 0h-.598v2.712h.598v-2.712Zm1.195 0h-.598v2.712h.598v-2.712Z" fill="#050304"/><path d="M26.19 52.168h-.597v.552h.597v-.552Zm1.196-.42h-.598v.972h.598v-.972Zm1.195-.643h-.598v1.615h.598v-1.615Zm1.195.26h-.598v1.355h.598v-1.356Zm1.191-1.357h-.598v2.436h.598v-2.436Zm1.195 0h-.597v2.712h.597v-2.712Zm1.196 0h-.598v2.712h.598v-2.712Zm1.195 0h-.598v2.712h.598v-2.712Zm1.19 0h-.597v2.712h.598v-2.712Zm1.196 0h-.597v2.712h.597v-2.712Zm1.195 0h-.597v2.712h.597v-2.712Zm1.196 0h-.598v1.904h.598v-1.904Zm1.19 0h-.597v2.712h.598v-2.712Zm1.196 0h-.598v2.712h.598v-2.712Zm1.195 0h-.598v2.712h.598v-2.712Zm1.195 0h-.597v2.712h.597v-2.712Zm1.191 0H44.7v2.712h.597v-2.712Zm1.196 0h-.598v2.712h.597v-2.712Zm1.195 0h-.598v2.712h.598v-2.712Zm1.195 0h-.598v2.712h.598v-2.712Z" fill="url(#d)"/><path d="M48.657 53.298H40.11v-3.862h8.544c.453 0 .824.371.824.824v2.214a.82.82 0 0 1-.82.824Z" fill="#050304"/><path d="M48.657 53.298H40.11v-3.862h8.544c.453 0 .824.371.824.824v2.214a.82.82 0 0 1-.82.824Z" fill="url(#e)"/><path d="M48.657 53.298H40.11v-3.862h8.544c.453 0 .824.371.824.824v2.214a.82.82 0 0 1-.82.824Z" fill="#050304"/><path d="M48.657 53.298H40.11v-3.862h8.544c.453 0 .824.371.824.824v2.214a.82.82 0 0 1-.82.824Z" fill="url(#f)"/><path d="M54.117 57.162H20.54a.827.827 0 0 1-.824-.824v-2.213c0-.454.37-.825.824-.825h33.582c.453 0 .824.371.824.825v2.213a.83.83 0 0 1-.829.824Z" fill="#42AB44"/><path d="M54.117 57.162H40.43l-20.714-2.176v-.861c0-.454.37-.825.824-.825h33.582c.453 0 .824.371.824.825v2.213a.83.83 0 0 1-.829.824Z" fill="#050304"/><path d="M54.117 57.162H40.43l-20.714-2.176v-.861c0-.454.37-.825.824-.825h33.582c.453 0 .824.371.824.825v2.213a.83.83 0 0 1-.829.824Z" fill="url(#g)"/><path d="M51.198 61.021H17.616a.827.827 0 0 1-.824-.824v-2.214c0-.453.37-.824.824-.824h33.582c.453 0 .824.371.824.825v2.213a.824.824 0 0 1-.824.824Z" fill="#050304"/><path d="M51.198 61.021H17.616a.827.827 0 0 1-.824-.824v-2.214c0-.453.37-.824.824-.824h33.582c.453 0 .824.371.824.825v2.213a.824.824 0 0 1-.824.824Z" fill="url(#h)"/><path d="M51.198 61.021H17.616a.827.827 0 0 1-.824-.824v-2.214c0-.453.37-.824.824-.824h33.582c.453 0 .824.371.824.825v2.213a.824.824 0 0 1-.824.824Z" fill="#050304"/><path d="M51.198 61.021H17.616a.827.827 0 0 1-.824-.824v-2.214c0-.453.37-.824.824-.824h33.582c.453 0 .824.371.824.825v2.213a.824.824 0 0 1-.824.824Z" fill="url(#i)"/><path d="M51.198 61.021h-8.544v-3.862h8.544c.453 0 .824.371.824.825v2.213c0 .457-.37.824-.824.824Z" fill="#050304"/><path d="M51.198 61.021h-8.544v-3.862h8.544c.453 0 .824.371.824.825v2.213c0 .457-.37.824-.824.824Z" fill="url(#j)"/><path d="M51.198 61.021h-8.544v-3.862h8.544c.453 0 .824.371.824.825v2.213c0 .457-.37.824-.824.824Z" fill="#050304"/><path d="M51.198 61.021h-8.544v-3.862h8.544c.453 0 .824.371.824.825v2.213c0 .457-.37.824-.824.824Z" fill="url(#k)"/><path d="M24.704 57.763h-.598v2.658h.598v-2.658Zm1.195.334h-.597v1.99h.597v-1.99Zm1.191.614h-.597v.762h.597v-.762Zm1.196.56h-.598v1.15h.598v-1.15Zm1.195-1.137h-.598v.956h.598v-.956Zm2.386.383h-.598v1.15h.598v-1.15Z" fill="#5F1A58"/><path d="M24.704 57.763h-.598v2.658h.598v-2.658Zm1.195.334h-.597v1.99h.597v-1.99Zm1.191.614h-.597v.762h.597v-.762Zm1.196.56h-.598v1.15h.598v-1.15Zm1.195-1.137h-.598v.956h.598v-.956Zm2.386.383h-.598v1.15h.598v-1.15Z" fill="#050304"/><path d="M24.704 57.763h-.598v2.658h.598v-2.658Zm1.195.334h-.597v1.99h.597v-1.99Zm1.191.614h-.597v.762h.597v-.762Zm1.196.56h-.598v1.15h.598v-1.15Zm1.195-1.137h-.598v.956h.598v-.956Zm2.386.383h-.598v1.15h.598v-1.15Z" fill="url(#l)"/><path d="M32.922 49.437c9.144 0 16.556-7.412 16.556-16.556 0-9.143-7.413-16.556-16.556-16.556s-16.556 7.413-16.556 16.556c0 9.144 7.413 16.556 16.556 16.556Z" fill="#050304"/><path d="M32.922 49.437c9.144 0 16.556-7.412 16.556-16.556 0-9.143-7.413-16.556-16.556-16.556s-16.556 7.413-16.556 16.556c0 9.144 7.413 16.556 16.556 16.556Z" fill="url(#m)"/><mask id="n" style="mask-type:alpha" maskUnits="userSpaceOnUse" x="14" y="16" width="34" height="34"><path d="M30.804 49.436c9.143 0 16.556-7.412 16.556-16.556 0-9.143-7.413-16.555-16.556-16.555-9.144 0-16.556 7.412-16.556 16.555 0 9.144 7.412 16.556 16.556 16.556Z" fill="#91BD65"/></mask><g mask="url(#n)"><path d="M30.804 49.436c9.143 0 16.556-7.412 16.556-16.556 0-9.143-7.413-16.555-16.556-16.555-9.144 0-16.556 7.412-16.556 16.555 0 9.144 7.412 16.556 16.556 16.556Z" fill="url(#o)"/><path d="m24.416 27.667-7.386-8.172-2.827 1.636 6.256 6.714 3.957-.178Z" fill="#FFCA42"/><path d="m24.416 27.667-7.386-8.172-2.827 1.636 6.256 6.714 3.957-.178Z" fill="url(#p)"/><mask id="q" style="mask-type:alpha" maskUnits="userSpaceOnUse" x="17" y="19" width="28" height="28"><path d="M30.803 46.495c7.519 0 13.614-6.095 13.614-13.613S38.322 19.27 30.803 19.27c-7.518 0-13.613 6.095-13.613 13.613s6.095 13.613 13.613 13.613Z" fill="#91BD65"/></mask><g mask="url(#q)"><path d="M30.803 46.495c7.519 0 13.614-6.095 13.614-13.613S38.322 19.27 30.803 19.27c-7.518 0-13.613 6.095-13.613 13.613s6.095 13.613 13.613 13.613Z" fill="#FA552D"/><path d="M30.803 46.495c7.519 0 13.614-6.095 13.614-13.613S38.322 19.27 30.803 19.27c-7.518 0-13.613 6.095-13.613 13.613s6.095 13.613 13.613 13.613Z" fill="url(#r)"/><path d="M30.803 46.495c7.519 0 13.614-6.095 13.614-13.613S38.322 19.27 30.803 19.27c-7.518 0-13.613 6.095-13.613 13.613s6.095 13.613 13.613 13.613Z" fill="url(#s)"/><path d="M15.888 49.14h29.369l-2.3-11.803a3.147 3.147 0 0 0-3.087-2.543H21.274a3.147 3.147 0 0 0-3.087 2.543l-2.3 11.804Z" fill="#FFCA42"/><path d="M15.888 49.14h29.369l-2.3-11.803a3.147 3.147 0 0 0-3.087-2.543H21.274a3.147 3.147 0 0 0-3.087 2.543l-2.3 11.804Z" fill="url(#t)"/></g><path d="M27.029 27.451c2.39-1.986.944-5.06-2.477-2.72-3.825 2.622-.532 5.222 2.477 2.72Z" fill="#FFCA42"/><path d="M27.029 27.451c2.39-1.986.944-5.06-2.477-2.72-3.825 2.622-.532 5.222 2.477 2.72Z" fill="url(#u)"/><path d="M31.34 20.876c-7.517 0-13.613 6.096-13.613 13.613 0 1.204.157 2.37.45 3.483a13.57 13.57 0 0 1-.986-5.09c0-7.517 6.096-13.613 13.614-13.613 6.313 0 11.622 4.303 13.163 10.135-2.02-5-6.911-8.528-12.628-8.528Z" fill="#FA552D"/><path d="M31.34 20.876c-7.517 0-13.613 6.096-13.613 13.613 0 1.204.157 2.37.45 3.483a13.57 13.57 0 0 1-.986-5.09c0-7.517 6.096-13.613 13.614-13.613 6.313 0 11.622 4.303 13.163 10.135-2.02-5-6.911-8.528-12.628-8.528Z" fill="url(#v)"/><path d="M31.34 20.876c-7.517 0-13.613 6.096-13.613 13.613 0 1.204.157 2.37.45 3.483a13.57 13.57 0 0 1-.986-5.09c0-7.517 6.096-13.613 13.614-13.613 6.313 0 11.622 4.303 13.163 10.135-2.02-5-6.911-8.528-12.628-8.528Z" fill="#050304"/><path d="M31.34 20.876c-7.517 0-13.613 6.096-13.613 13.613 0 1.204.157 2.37.45 3.483a13.57 13.57 0 0 1-.986-5.09c0-7.517 6.096-13.613 13.614-13.613 6.313 0 11.622 4.303 13.163 10.135-2.02-5-6.911-8.528-12.628-8.528Z" fill="url(#w)"/></g><path d="M21.614 6.16a.425.425 0 0 0-.833 0l-.368 1.75a1.578 1.578 0 0 1-1.22 1.22l-1.75.368a.425.425 0 0 0 0 .832l1.75.368a1.58 1.58 0 0 1 1.22 1.22l.368 1.75a.425.425 0 0 0 .833 0l.368-1.75a1.578 1.578 0 0 1 1.219-1.22l1.75-.368a.425.425 0 0 0 0-.832l-1.75-.368a1.578 1.578 0 0 1-1.22-1.22l-.367-1.75ZM8.279 39.569a.64.64 0 0 0-1.252 0l-.553 2.632a2.372 2.372 0 0 1-1.833 1.833l-2.632.553a.64.64 0 0 0 0 1.252l2.632.553c.92.194 1.64.913 1.833 1.833l.553 2.633a.64.64 0 0 0 1.252 0l.553-2.633c.194-.92.913-1.64 1.833-1.833l2.632-.553a.64.64 0 0 0 0-1.252l-2.632-.553A2.372 2.372 0 0 1 8.832 42.2l-.553-2.632Z" fill="#FFCA42"/></g><defs><linearGradient id="b" x1="12.663" y1="61.069" x2="63" y2="61.069" gradientUnits="userSpaceOnUse"><stop stop-color="#FA552D"/><stop offset=".104" stop-color="#FA552D" stop-opacity="0"/><stop offset=".81" stop-color="#5F1A58" stop-opacity="0"/><stop offset="1" stop-color="#5F1A58"/></linearGradient><linearGradient id="c" x1="63" y1="62.932" x2="12.717" y2="62.932" gradientUnits="userSpaceOnUse"><stop stop-color="#04D600"/><stop offset=".297" stop-color="#00D63C" stop-opacity="0"/><stop offset=".833" stop-color="#FA552D" stop-opacity="0"/><stop offset="1" stop-color="#FA552D"/></linearGradient><linearGradient id="d" x1="62.165" y1="54.392" x2="15.354" y2="51.029" gradientUnits="userSpaceOnUse"><stop stop-color="#04D600"/><stop offset=".7" stop-color="#00D63C" stop-opacity="0"/></linearGradient><linearGradient id="e" x1="46.244" y1="51.847" x2="40.039" y2="51.847" gradientUnits="userSpaceOnUse"><stop stop-color="#5F1A58"/><stop offset="1" stop-color="#5F1A58" stop-opacity="0"/></linearGradient><linearGradient id="f" x1="54.82" y1="55.679" x2="35.901" y2="55.295" gradientUnits="userSpaceOnUse"><stop stop-color="#04D600"/><stop offset=".7" stop-color="#00D63C" stop-opacity="0"/></linearGradient><linearGradient id="g" x1="75.037" y1="59.543" x2="4.274" y2="54.143" gradientUnits="userSpaceOnUse"><stop stop-color="#04D600"/><stop offset=".7" stop-color="#00D63C" stop-opacity="0"/></linearGradient><linearGradient id="h" x1="16.792" y1="59.265" x2="21.944" y2="59.265" gradientUnits="userSpaceOnUse"><stop stop-color="#FA552D"/><stop offset="1" stop-color="#FA552D" stop-opacity="0"/></linearGradient><linearGradient id="i" x1="72.113" y1="63.402" x2="1.35" y2="58.002" gradientUnits="userSpaceOnUse"><stop stop-color="#04D600"/><stop offset=".7" stop-color="#00D63C" stop-opacity="0"/></linearGradient><linearGradient id="j" x1="42.757" y1="59.059" x2="48.94" y2="59.059" gradientUnits="userSpaceOnUse"><stop stop-color="#5F1A58"/><stop offset="1" stop-color="#5F1A58" stop-opacity="0"/></linearGradient><linearGradient id="k" x1="57.365" y1="63.402" x2="38.447" y2="63.018" gradientUnits="userSpaceOnUse"><stop stop-color="#04D600"/><stop offset=".7" stop-color="#00D63C" stop-opacity="0"/></linearGradient><linearGradient id="l" x1="36.293" y1="62.06" x2="20.623" y2="61.677" gradientUnits="userSpaceOnUse"><stop stop-color="#04D600"/><stop offset=".7" stop-color="#00D63C" stop-opacity="0"/></linearGradient><linearGradient id="m" x1="55.687" y1="41.093" x2="29.024" y2="16.325" gradientUnits="userSpaceOnUse"><stop stop-color="#04D600"/><stop offset=".297" stop-color="#00D63C" stop-opacity="0"/><stop offset=".833" stop-color="#FA552D" stop-opacity="0"/><stop offset="1" stop-color="#FA552D"/></linearGradient><linearGradient id="o" x1="23.849" y1="45.931" x2="26.662" y2="14.768" gradientUnits="userSpaceOnUse"><stop stop-color="#7DC15D"/><stop offset="1" stop-color="#FEE54F"/></linearGradient><linearGradient id="p" x1="18.119" y1="22.174" x2="19.561" y2="25.265" gradientUnits="userSpaceOnUse"><stop stop-color="#FEFFCF"/><stop offset="1" stop-color="#FEFFCF" stop-opacity="0"/></linearGradient><linearGradient id="r" x1="28.215" y1="46.697" x2="28.215" y2="21.144" gradientUnits="userSpaceOnUse"><stop stop-color="#FFCA42"/><stop offset="1" stop-color="#FFCA42" stop-opacity="0"/></linearGradient><linearGradient id="s" x1="24.794" y1="25.705" x2="30.803" y2="46.495" gradientUnits="userSpaceOnUse"><stop stop-color="#7DC15D"/><stop offset="1" stop-color="#FEE54F"/></linearGradient><linearGradient id="t" x1="30.572" y1="34.794" x2="30.572" y2="40.927" gradientUnits="userSpaceOnUse"><stop stop-color="#FEFFCF"/><stop offset="1" stop-color="#FEFFCF" stop-opacity="0"/></linearGradient><linearGradient id="u" x1="24.301" y1="28.354" x2="24.919" y2="25.469" gradientUnits="userSpaceOnUse"><stop stop-color="#FEFFCF"/><stop offset="1" stop-color="#FEFFCF" stop-opacity="0"/></linearGradient><linearGradient id="v" x1="24.301" y1="20.32" x2="26.98" y2="30.005" gradientUnits="userSpaceOnUse"><stop stop-color="#5F1A58"/><stop offset="1" stop-color="#5F1A58" stop-opacity="0"/></linearGradient><linearGradient id="w" x1="59.239" y1="49.504" x2="5.149" y2="48.856" gradientUnits="userSpaceOnUse"><stop stop-color="#04D600"/><stop offset=".7" stop-color="#00D63C" stop-opacity="0"/></linearGradient><clipPath id="a"><path fill="#fff" d="M0 0h63v63H0z"/></clipPath></defs></svg>