<svg id="icon" width="36" height="26" fill="none" xmlns="http://www.w3.org/2000/svg"><path d="M35.045 20.651c0 2.874-2.375 5.214-5.293 5.214H.953V5.215C.953 2.34 3.33 0 6.246 0h28.8v20.651Z" fill="#fff"/><path d="M25.668 15.355h2.188c.063 0 .208-.02.27-.02a.965.965 0 0 0 .772-.965 1 1 0 0 0-.771-.965c-.063-.02-.188-.02-.271-.02h-2.188v1.97Z" fill="url(#a)"/><path d="M27.607 1.744c-2.084 0-3.793 1.663-3.793 3.736v3.88h5.355c.125 0 .271 0 .375.02 1.21.062 2.105.678 2.105 1.745 0 .842-.604 1.56-1.73 1.704v.041c1.23.082 2.168.76 2.168 1.807 0 1.129-1.042 1.868-2.418 1.868h-5.876v7.595h5.564c2.084 0 3.793-1.663 3.793-3.736V1.744h-5.543Z" fill="url(#b)"/><path d="M28.627 11.372c0-.493-.354-.821-.771-.883-.042 0-.146-.02-.208-.02h-1.98v1.806h1.98c.062 0 .187 0 .208-.02.417-.062.771-.39.771-.883Z" fill="url(#c)"/><path d="M6.642 1.744c-2.084 0-3.793 1.663-3.793 3.736v9.217c1.063.514 2.167.842 3.272.842 1.312 0 2.021-.78 2.021-1.848V9.34h3.25v4.332c0 1.683-1.062 3.059-4.667 3.059-2.188 0-3.897-.473-3.897-.473v7.863h5.564c2.084 0 3.793-1.663 3.793-3.736V1.744H6.642Z" fill="url(#d)"/><path d="M17.123 1.744c-2.084 0-3.793 1.663-3.793 3.736v4.886c.959-.8 2.626-1.314 5.314-1.19 1.438.06 2.98.45 2.98.45v1.582c-.771-.39-1.688-.74-2.876-.822-2.042-.143-3.272.842-3.272 2.566 0 1.745 1.23 2.73 3.272 2.566 1.188-.082 2.105-.451 2.876-.82v1.58s-1.521.39-2.98.452c-2.688.123-4.355-.39-5.314-1.191v8.622h5.564c2.084 0 3.793-1.663 3.793-3.736V1.745h-5.564Z" fill="url(#e)"/><defs><linearGradient id="a" x1="23.81" y1="14.372" x2="33.174" y2="14.372" gradientUnits="userSpaceOnUse"><stop stop-color="#007940"/><stop offset=".229" stop-color="#00873F"/><stop offset=".743" stop-color="#40A737"/><stop offset="1" stop-color="#5CB531"/></linearGradient><linearGradient id="b" x1="23.81" y1="12.933" x2="33.175" y2="12.933" gradientUnits="userSpaceOnUse"><stop stop-color="#007940"/><stop offset=".229" stop-color="#00873F"/><stop offset=".743" stop-color="#40A737"/><stop offset="1" stop-color="#5CB531"/></linearGradient><linearGradient id="c" x1="23.81" y1="11.369" x2="33.174" y2="11.369" gradientUnits="userSpaceOnUse"><stop stop-color="#007940"/><stop offset=".229" stop-color="#00873F"/><stop offset=".743" stop-color="#40A737"/><stop offset="1" stop-color="#5CB531"/></linearGradient><linearGradient id="d" x1="2.845" y1="12.933" x2="12.354" y2="12.933" gradientUnits="userSpaceOnUse"><stop stop-color="#1F286F"/><stop offset=".475" stop-color="#004E94"/><stop offset=".826" stop-color="#0066B1"/><stop offset="1" stop-color="#006FBC"/></linearGradient><linearGradient id="e" x1="13.276" y1="12.933" x2="22.512" y2="12.933" gradientUnits="userSpaceOnUse"><stop stop-color="#6C2C2F"/><stop offset=".173" stop-color="#882730"/><stop offset=".573" stop-color="#BE1833"/><stop offset=".859" stop-color="#DC0436"/><stop offset="1" stop-color="#E60039"/></linearGradient></defs></svg>