<svg id="icon" width="56" height="56" fill="none" xmlns="http://www.w3.org/2000/svg"><path fill="#fff" d="M0 0h56v56H0z"/><path d="M45.045 35.651c0 2.874-2.375 5.214-5.293 5.214H10.953v-20.65c0-2.875 2.376-5.215 5.293-5.215h28.8v20.651Z" fill="#fff"/><path d="M35.668 30.355h2.188c.063 0 .208-.02.27-.02a.965.965 0 0 0 .772-.965 1 1 0 0 0-.771-.965c-.063-.02-.188-.02-.271-.02h-2.188v1.97Z" fill="url(#paint0_linear_3410_161865)"/><path d="M37.606 16.744c-2.083 0-3.792 1.663-3.792 3.736v3.88h5.355c.125 0 .271 0 .376.02 1.208.062 2.104.678 2.104 1.745 0 .842-.604 1.56-1.73 1.704v.041c1.23.082 2.168.76 2.168 1.807 0 1.129-1.042 1.868-2.418 1.868h-5.876v7.595h5.564c2.084 0 3.793-1.663 3.793-3.736v-18.66h-5.544Z" fill="url(#paint1_linear_3410_161865)"/><path d="M38.627 26.372c0-.493-.354-.821-.771-.883-.042 0-.146-.02-.208-.02h-1.98v1.806h1.98c.062 0 .187 0 .208-.02.417-.062.771-.39.771-.883Z" fill="url(#paint2_linear_3410_161865)"/><path d="M16.642 16.744c-2.084 0-3.793 1.663-3.793 3.736v9.217c1.063.514 2.167.842 3.272.842 1.313 0 2.021-.78 2.021-1.848V24.34h3.25v4.33c0 1.684-1.062 3.06-4.667 3.06-2.188 0-3.897-.473-3.897-.473v7.863h5.564c2.084 0 3.793-1.663 3.793-3.736v-18.64h-5.543Z" fill="url(#paint3_linear_3410_161865)"/><path d="M27.123 16.744c-2.084 0-3.793 1.663-3.793 3.736v4.886c.959-.8 2.626-1.314 5.314-1.19 1.438.06 2.98.45 2.98.45v1.581c-.771-.39-1.688-.739-2.876-.82-2.042-.144-3.271.841-3.271 2.565 0 1.745 1.229 2.73 3.271 2.566 1.188-.082 2.105-.451 2.876-.82v1.58s-1.521.39-2.98.452c-2.688.123-4.355-.39-5.314-1.191v8.622h5.564c2.084 0 3.793-1.663 3.793-3.736v-18.68h-5.564Z" fill="url(#paint4_linear_3410_161865)"/><defs><linearGradient id="paint0_linear_3410_161865" x1="33.81" y1="29.372" x2="43.174" y2="29.372" gradientUnits="userSpaceOnUse"><stop stop-color="#007940"/><stop offset=".229" stop-color="#00873F"/><stop offset=".743" stop-color="#40A737"/><stop offset="1" stop-color="#5CB531"/></linearGradient><linearGradient id="paint1_linear_3410_161865" x1="33.81" y1="27.933" x2="43.175" y2="27.933" gradientUnits="userSpaceOnUse"><stop stop-color="#007940"/><stop offset=".229" stop-color="#00873F"/><stop offset=".743" stop-color="#40A737"/><stop offset="1" stop-color="#5CB531"/></linearGradient><linearGradient id="paint2_linear_3410_161865" x1="33.81" y1="26.369" x2="43.174" y2="26.369" gradientUnits="userSpaceOnUse"><stop stop-color="#007940"/><stop offset=".229" stop-color="#00873F"/><stop offset=".743" stop-color="#40A737"/><stop offset="1" stop-color="#5CB531"/></linearGradient><linearGradient id="paint3_linear_3410_161865" x1="12.845" y1="27.933" x2="22.354" y2="27.933" gradientUnits="userSpaceOnUse"><stop stop-color="#1F286F"/><stop offset=".475" stop-color="#004E94"/><stop offset=".826" stop-color="#0066B1"/><stop offset="1" stop-color="#006FBC"/></linearGradient><linearGradient id="paint4_linear_3410_161865" x1="23.276" y1="27.933" x2="32.512" y2="27.933" gradientUnits="userSpaceOnUse"><stop stop-color="#6C2C2F"/><stop offset=".173" stop-color="#882730"/><stop offset=".573" stop-color="#BE1833"/><stop offset=".859" stop-color="#DC0436"/><stop offset="1" stop-color="#E60039"/></linearGradient></defs></svg>