<svg id="icon" width="56" height="56" fill="none" xmlns="http://www.w3.org/2000/svg"><path fill="#fff" d="M0 0h56v56H0z"/><path d="M32.74 18.852h-9.508v17.296h9.508V18.852Z" fill="#FF5F00"/><path d="M23.837 27.5a11.093 11.093 0 0 1 1.09-4.808 10.957 10.957 0 0 1 3.06-3.84 10.75 10.75 0 0 0-11.463-1.246 10.914 10.914 0 0 0-4.463 4.058 11.102 11.102 0 0 0-1.655 5.836 11.1 11.1 0 0 0 1.655 5.836 10.914 10.914 0 0 0 4.462 4.058 10.75 10.75 0 0 0 11.463-1.246 10.958 10.958 0 0 1-3.06-3.84 11.093 11.093 0 0 1-1.09-4.808Z" fill="#EB001B"/><path d="M45.566 27.5a11.1 11.1 0 0 1-1.655 5.836 10.911 10.911 0 0 1-4.461 4.058 10.749 10.749 0 0 1-5.909 1.043 10.793 10.793 0 0 1-5.555-2.289 10.977 10.977 0 0 0 3.058-3.84 11.114 11.114 0 0 0 0-9.615 10.978 10.978 0 0 0-3.058-3.841 10.75 10.75 0 0 1 11.463-1.246 10.912 10.912 0 0 1 4.462 4.058 11.1 11.1 0 0 1 1.655 5.836Z" fill="#F79E1B"/></svg>