<svg width="56" height="56" fill="none" xmlns="http://www.w3.org/2000/svg"><path fill="#fff" d="M0 0h56v56H0z"/><path fill-rule="evenodd" clip-rule="evenodd" d="M16.743 20v.007c-.006 0-1.992-.007-2.521 1.965-.486 1.808-1.854 6.799-1.892 6.936h-.378s-1.4-5.102-1.891-6.943C9.53 19.993 7.539 20 7.539 20H3v15h4.539v-8.908h.378L10.565 35h3.152l2.648-8.902h.378V35h4.54V20h-4.54ZM33.323 20s-1.33.125-1.954 1.572l-3.215 7.337h-.379V20h-4.539v15h4.287s1.393-.13 2.018-1.572l3.152-7.336h.378V35h4.539V20h-4.287ZM39.627 26.812V35h4.539v-4.782h4.917c2.144 0 3.96-1.421 4.634-3.406h-14.09Z" fill="#4DB45E"/><path fill-rule="evenodd" clip-rule="evenodd" d="M49.083 20H38.99c.505 2.856 2.566 5.149 5.233 5.895.605.17 1.242.262 1.897.262h7.78c.07-.34.1-.687.1-1.048C54 22.286 51.8 20 49.084 20Z" fill="url(#paint0_linear_3410_161850)"/><defs><linearGradient id="paint0_linear_3410_161850" x1="38.992" y1="23.079" x2="54.001" y2="23.079" gradientUnits="userSpaceOnUse"><stop offset=".3" stop-color="#00B4E6"/><stop offset="1" stop-color="#088CCB"/></linearGradient></defs></svg>