<svg id="icon" width="51" height="15" fill="none" xmlns="http://www.w3.org/2000/svg"><path fill-rule="evenodd" clip-rule="evenodd" d="M13.743 0v.007c-.006 0-1.992-.007-2.521 1.965C10.736 3.78 9.367 8.77 9.33 8.909h-.378s-1.4-5.103-1.891-6.944C6.53-.007 4.539 0 4.539 0H0v15h4.539V6.092h.378L7.565 15h3.152l2.648-8.902h.378V15h4.54V0h-4.54Zm16.58 0s-1.33.124-1.954 1.572L25.154 8.91h-.379V0h-4.539v15h4.287s1.393-.13 2.018-1.572l3.152-7.336h.378V15h4.539V0h-4.287Zm6.304 6.812V15h4.539v-4.782h4.917c2.144 0 3.96-1.421 4.634-3.406h-14.09Z" fill="#4DB45E"/><path fill-rule="evenodd" clip-rule="evenodd" d="M46.083 0H35.99c.505 2.856 2.566 5.149 5.233 5.895.605.17 1.242.262 1.897.262h7.78c.07-.34.1-.687.1-1.048C51 2.286 48.8 0 46.084 0Z" fill="url(#a)"/><defs><linearGradient id="a" x1="35.992" y1="3.079" x2="51.001" y2="3.079" gradientUnits="userSpaceOnUse"><stop offset=".3" stop-color="#00B4E6"/><stop offset="1" stop-color="#088CCB"/></linearGradient></defs></svg>