<svg width="70" height="66" fill="none" xmlns="http://www.w3.org/2000/svg"><path d="M65.463 25.995 11.618.934.932 23.892l53.845 25.061 10.686-22.958Z" fill="#fff"/><path d="M65.105 26.561 11.261 1.5.575 24.458 54.419 49.52l10.687-22.96Z" fill="#F7BA99"/><path d="M65.105 26.561 11.261 1.5.575 24.458 54.419 49.52l10.687-22.96Z" fill="#42AB44"/><path d="M30.301 30.968c8.006 3.727 15.634 4.305 17.037 1.29 1.403-3.013-3.95-8.478-11.957-12.204-8.006-3.726-15.634-4.304-17.036-1.29-1.403 3.014 3.95 8.478 11.956 12.204Z" fill="url(#a)" style="mix-blend-mode:soft-light"/><path d="M11.193 18.87a3.114 3.114 0 1 0 2.63-5.647 3.114 3.114 0 0 0-2.63 5.646Zm40.854 19.014a3.114 3.114 0 1 0 2.63-5.647 3.114 3.114 0 0 0-2.63 5.647Zm-22.01-15.706 1.694.789 3.329-7.151 4.142 1.928c.753.35 1.506.7 1.983 1.152.477.45.954.902 1.344 1.541.201.552.403 1.104.516 1.843-.074.652-.149 1.305-.499 2.057-.35.753-.801 1.23-1.252 1.707-.451.477-1.003.678-1.743.791-.552.202-1.204.127-2.045-.036-.652-.074-1.405-.425-2.158-.775l-2.26-1.052-1.05 2.258 3.577 1.665-.701 1.506-3.577-1.665-1.752 3.764-1.883-.877 1.49-3.199-1.695-.788.7-1.506 1.695.789 1.051-2.258-1.694-.79.788-1.693Zm5.968 3.007c1.13.526 1.838.398 2.666.096.828-.301 1.467-.69 1.905-1.632.438-.94.412-1.869.022-2.508-.39-.64-1.243-1.265-2.185-1.704l-2.259-1.051-2.628 5.645 2.26 1.052.22.102Z" fill="#fff"/><path d="m54.42 49.52 10.685-22.96-26.922-12.53L9.739 5.09.575 24.458 54.419 49.52Z" fill="url(#b)"/><path d="M63.723 23.724 6.061 9.5-.005 34.086l57.663 14.225 6.065-24.587Z" fill="#fff"/><path d="M63.48 24.35 5.819 10.124-.247 34.711l57.663 14.225 6.065-24.587Z" fill="#F7BA99"/><path d="M63.48 24.35 5.819 10.124-.247 34.711l57.663 14.225 6.065-24.587Z" fill="#42AB44"/><path d="M30.177 35.375c8.574 2.115 16.17 1.213 16.967-2.015.796-3.228-5.51-7.559-14.083-9.674-8.574-2.115-16.17-1.213-16.967 2.015-.796 3.227 5.51 7.559 14.083 9.674Z" fill="url(#c)" style="mix-blend-mode:soft-light"/><path d="M9.096 27.181a3.114 3.114 0 1 0 1.493-6.047 3.114 3.114 0 0 0-1.493 6.047Zm43.75 10.793a3.114 3.114 0 1 0 1.493-6.047 3.114 3.114 0 0 0-1.493 6.047ZM28.225 26.8l1.815.447 1.889-7.658 4.435 1.094c.807.2 1.613.398 2.169.749.555.35 1.11.702 1.615 1.254.304.502.608 1.005.862 1.709.052.654.105 1.308-.094 2.115-.199.806-.55 1.36-.9 1.915-.351.555-.854.859-1.558 1.113-.503.303-1.157.356-2.014.358-.654.052-1.46-.146-2.267-.345l-2.42-.597-.596 2.418 3.83.945-.397 1.612-3.83-.945-.995 4.03-2.016-.497.845-3.425-1.815-.448.398-1.612 1.815.447.596-2.418-1.814-.448.447-1.813Zm6.436 1.801c1.21.298 1.88.036 2.634-.42.754-.454 1.306-.96 1.555-1.967.249-1.008.044-1.913-.461-2.466-.506-.552-1.464-1.002-2.472-1.25l-2.42-.598-1.49 6.046 2.419.597.235.058Z" fill="#fff"/><path d="m57.416 48.936 6.065-24.587-28.831-7.112H4.36L-.247 34.711l57.663 14.225Z" fill="url(#d)"/><g style="mix-blend-mode:multiply"><path d="M65.463 21.915H6.073v25.323h59.39V21.915Z" fill="#F7BA99"/><path d="M65.463 21.915H6.073v25.323h59.39V21.915Z" fill="#42AB44"/></g><path d="M66.172 22.624H6.782v25.323h59.39V22.624Z" fill="#fff"/><path d="M67.03 23.633H7.639v25.323h59.39V23.633Z" fill="#42AB44"/><path d="M67.03 23.633H7.639v25.323h59.39V23.633Z" fill="url(#e)"/><path d="M37.336 42.314c8.83 0 15.99-2.695 15.99-6.02 0-3.324-7.16-6.019-15.99-6.019-8.831 0-15.99 2.695-15.99 6.02 0 3.324 7.159 6.02 15.99 6.02Z" fill="url(#f)" style="mix-blend-mode:soft-light"/><path d="M14.906 39.407a3.114 3.114 0 1 0 .002-6.229 3.114 3.114 0 0 0-.002 6.229Zm45.062 0a3.114 3.114 0 1 0 .001-6.229 3.114 3.114 0 0 0-.002 6.229Zm-26.582-4.952h1.869v-7.888h4.568c.83 0 1.661 0 2.285.208.623.208 1.245.415 1.869.83.415.415.83.83 1.245 1.453.208.623.416 1.246.416 2.076 0 .83-.208 1.453-.416 2.076-.207.622-.623 1.037-1.245 1.453-.416.415-1.039.622-1.87.83-.623.207-1.453.207-2.284.207h-2.492v2.491h3.946v1.66H37.33v4.152h-2.076v-3.529h-1.87v-1.66h1.87v-2.49h-1.87v-1.869Zm6.68.208c1.245 0 1.834-.416 2.457-1.038.623-.623 1.038-1.246 1.038-2.284 0-1.037-.415-1.868-1.038-2.283-.623-.415-1.662-.622-2.7-.622h-2.492v6.227h2.734Z" fill="#fff"/><mask id="h" style="mask-type:alpha" maskUnits="userSpaceOnUse" x="7" y="22" width="61" height="27"><path d="M67.029 22.988H7.638v25.324h59.39V22.988Z" fill="#42AB44"/><path d="M67.029 22.988H7.638v25.324h59.39V22.988Z" fill="url(#g)"/></mask><g mask="url(#h)"><path d="M56.509 60.323c7.45 0 13.49-6.04 13.49-13.49 0-7.451-6.04-13.491-13.49-13.491s-13.49 6.04-13.49 13.49 6.04 13.49 13.49 13.49Z" fill="url(#i)"/></g><path d="M57.749 36.944s-.24 0 0 0h-3.603v.48c-4.804 1.442-8.408 6.006-8.408 11.531s3.604 9.849 8.408 11.53v.48h3.843c6.726 0 12.01-5.284 12.01-12.01s-5.764-12.01-12.25-12.01Z" fill="url(#j)"/><path d="M55.348 60.966c6.633 0 12.01-5.378 12.01-12.011 0-6.633-5.377-12.01-12.01-12.01-6.634 0-12.011 5.377-12.011 12.01s5.377 12.01 12.01 12.01Z" fill="#F6F6F6"/><path d="M54.146 60.967c6.634 0 12.011-5.378 12.011-12.011 0-6.633-5.377-12.01-12.01-12.01-6.634 0-12.011 5.377-12.011 12.01s5.377 12.01 12.01 12.01Z" fill="#DADADA"/><path d="M54.146 60.966c6.634 0 12.011-5.378 12.011-12.011 0-6.633-5.377-12.01-12.01-12.01-6.634 0-12.011 5.377-12.011 12.01s5.377 12.01 12.01 12.01Z" fill="url(#k)"/><path d="m45.506 48.193 6.484-6.59v4.027h11.372v2.615H51.166v-.052h-5.66Z" fill="url(#l)"/><path d="m56.827 56.798 6.484-6.59H45.506v2.616h11.32v3.974Z" fill="url(#m)"/><path d="M43.577 50.639c0-6.726 5.285-12.011 12.01-12.011 1.202 0 2.403.24 3.604.48a11.167 11.167 0 0 0-5.044-1.2c-6.006 0-11.05 5.044-11.05 11.05 0 1.68.48 3.362.96 4.563-.24-.96-.48-1.922-.48-2.882Z" fill="#F6F6F6"/><defs><linearGradient id="a" x1="27.78" y1="19.655" x2="24.598" y2="29.033" gradientUnits="userSpaceOnUse"><stop stop-color="#7DC15D"/><stop offset="1" stop-color="#FEE54F"/></linearGradient><linearGradient id="b" x1="52.341" y1="7.935" x2="50.191" y2="34.616" gradientUnits="userSpaceOnUse"><stop stop-color="#42AB44"/><stop offset="1" stop-color="#201B37"/></linearGradient><linearGradient id="c" x1="25.525" y1="24.758" x2="24.207" y2="34.573" gradientUnits="userSpaceOnUse"><stop stop-color="#7DC15D"/><stop offset="1" stop-color="#FEE54F"/></linearGradient><linearGradient id="d" x1="53.422" y1="19.995" x2="40.709" y2="54.141" gradientUnits="userSpaceOnUse"><stop stop-color="#42AB44"/><stop offset="1" stop-color="#201B37"/></linearGradient><linearGradient id="e" x1="7.639" y1="23.633" x2="35.111" y2="40.022" gradientUnits="userSpaceOnUse"><stop stop-color="#FFCA42"/><stop offset="1" stop-color="#FFCA42" stop-opacity="0"/></linearGradient><linearGradient id="f" x1="30.276" y1="33.121" x2="31.348" y2="42.966" gradientUnits="userSpaceOnUse"><stop stop-color="#7DC15D"/><stop offset="1" stop-color="#FEE54F"/></linearGradient><linearGradient id="g" x1="7.638" y1="22.988" x2="35.11" y2="39.377" gradientUnits="userSpaceOnUse"><stop stop-color="#42AB44"/><stop offset="1" stop-color="#42AB44" stop-opacity="0"/></linearGradient><linearGradient id="i" x1="65.089" y1="31.404" x2="52.278" y2="50.208" gradientUnits="userSpaceOnUse"><stop stop-color="#42AB44"/><stop offset="1" stop-color="#201B37"/></linearGradient><linearGradient id="j" x1="57.869" y1="36.944" x2="57.869" y2="60.966" gradientUnits="userSpaceOnUse"><stop stop-color="#3B4B81"/><stop offset="1" stop-color="#42AB44"/></linearGradient><linearGradient id="k" x1="48.844" y1="42.623" x2="54.146" y2="60.966" gradientUnits="userSpaceOnUse"><stop stop-color="#7DC15D"/><stop offset="1" stop-color="#FEE54F"/></linearGradient><linearGradient id="l" x1="62.055" y1="48.343" x2="45.506" y2="45.285" gradientUnits="userSpaceOnUse"><stop offset=".469" stop-color="#fff"/><stop offset="1" stop-color="#C9EAFF"/></linearGradient><linearGradient id="m" x1="62.055" y1="48.343" x2="45.506" y2="45.285" gradientUnits="userSpaceOnUse"><stop offset=".469" stop-color="#fff"/><stop offset="1" stop-color="#C9EAFF"/></linearGradient></defs></svg>