<svg id="icon" width="48" height="48" viewBox="0 0 49 48" fill="none" xmlns="http://www.w3.org/2000/svg"><path d="M38.5 45.554c0-.112-.108-.224-.316-.33-1.918-.7-8.015-1.205-15.24-1.205-8.766 0-15.876.753-15.876 1.676 0 .112.108.224.316.33 1.925.7 8.015 1.205 15.239 1.205 8.766 0 15.876-.753 15.876-1.676z" fill="#39486D"/><path d="M38.5 45.554c0-.112-.108-.224-.316-.33-1.918-.7-8.015-1.205-15.24-1.205-8.766 0-15.876.753-15.876 1.676 0 .112.108.224.316.33 1.925.7 8.015 1.205 15.239 1.205 8.766 0 15.876-.753 15.876-1.676z" fill="url(#paint0_linear_2530_15290)"/><path d="M38.5 45.554c0-.112-.108-.224-.316-.33-1.918-.7-8.015-1.205-15.24-1.205-8.766 0-15.876.753-15.876 1.676 0 .112.108.224.316.33 1.925.7 8.015 1.205 15.239 1.205 8.766 0 15.876-.753 15.876-1.676z" fill="#050304"/><path d="M38.5 45.554c0-.112-.108-.224-.316-.33-1.918-.7-8.015-1.205-15.24-1.205-8.766 0-15.876.753-15.876 1.676 0 .112.108.224.316.33 1.925.7 8.015 1.205 15.239 1.205 8.766 0 15.876-.753 15.876-1.676z" fill="url(#paint1_linear_2530_15290)"/><mask id="mask0_2530_15290" style="mask-type:alpha" maskUnits="userSpaceOnUse" x="6" y="0" width="31" height="40"><path d="M30 .77H6.497v38.74H36.68V7.45L30 .77z" fill="#fff"/></mask><g mask="url(#mask0_2530_15290)"><path d="M30 .77H6.497v38.74H36.68V7.45L30 .77z" fill="#B5E2FF"/><path d="M30 .77H6.497v38.74H36.68V7.45L30 .77z" fill="url(#paint2_linear_2530_15290)"/><path d="M30 .77H6.497v38.74H36.68V7.45L30 .77z" fill="url(#paint3_linear_2530_15290)"/><path d="M31.205.77h5.474v7.869l-5.474 2.392V.77z" fill="#39486D"/><path d="M31.205.77h5.474v7.869l-5.474 2.392V.77z" fill="url(#paint4_linear_2530_15290)"/><path d="M31.205.77h5.474v7.869l-5.474 2.392V.77z" fill="#050304"/><path d="M31.205.77h5.474v7.869l-5.474 2.392V.77z" fill="url(#paint5_linear_2530_15290)"/><path fill="#FEFFCF" d="M29.998.77h6.681v6.68H30z"/><path d="M25.791 20.14h-1.36c-4.255 0-7.71 3.422-7.71 7.651 0 4.23 3.455 7.646 7.71 7.646h1.36c4.255 0 7.709-3.423 7.709-7.652 0-4.23-3.454-7.645-7.709-7.645z" fill="#050304"/><path d="M25.791 20.14h-1.36c-4.255 0-7.71 3.422-7.71 7.651 0 4.23 3.455 7.646 7.71 7.646h1.36c4.255 0 7.709-3.423 7.709-7.652 0-4.23-3.454-7.645-7.709-7.645z" fill="url(#paint6_linear_2530_15290)"/></g><path d="M22.338 13h-1.504c-4.7 0-8.517 3.78-8.517 8.453s3.816 8.448 8.517 8.448h1.504c4.7 0 8.517-3.782 8.517-8.455 0-4.672-3.816-8.447-8.517-8.447z" fill="#39486D"/><path d="M22.338 13h-1.504c-4.7 0-8.517 3.78-8.517 8.453s3.816 8.448 8.517 8.448h1.504c4.7 0 8.517-3.782 8.517-8.455 0-4.672-3.816-8.447-8.517-8.447z" fill="url(#paint7_linear_2530_15290)"/><path d="M22.338 13h-1.504c-4.7 0-8.517 3.78-8.517 8.453s3.816 8.448 8.517 8.448h1.504c4.7 0 8.517-3.782 8.517-8.455 0-4.672-3.816-8.447-8.517-8.447z" fill="#050304"/><path d="M22.338 13h-1.504c-4.7 0-8.517 3.78-8.517 8.453s3.816 8.448 8.517 8.448h1.504c4.7 0 8.517-3.782 8.517-8.455 0-4.672-3.816-8.447-8.517-8.447z" fill="url(#paint8_linear_2530_15290)"/><path d="M20.835 29.893c4.704 0 8.517-3.785 8.517-8.454 0-4.669-3.813-8.454-8.517-8.454-4.704 0-8.517 3.785-8.517 8.454 0 4.67 3.813 8.454 8.517 8.454z" fill="#fff"/><path d="M29.35 21.445c0-.57-.055-1.135-.167-1.671-1.03-3.517-4.303-6.087-8.175-6.087-4.7 0-8.517 3.782-8.517 8.455 0 .57.056 1.135.167 1.67 1.03 3.518 4.304 6.087 8.176 6.087 4.707 0 8.517-3.781 8.517-8.454z" fill="#FFCA42"/><path d="M29.35 21.445c0-.57-.055-1.135-.167-1.671-1.03-3.517-4.303-6.087-8.175-6.087-4.7 0-8.517 3.782-8.517 8.455 0 .57.056 1.135.167 1.67 1.03 3.518 4.304 6.087 8.176 6.087 4.707 0 8.517-3.781 8.517-8.454z" fill="url(#paint9_linear_2530_15290)"/><path d="M25.541 20.976H22.15v-3.391a.811.811 0 0 0-.815-.815h-.933a.811.811 0 0 0-.815.815v3.391h-3.392a.811.811 0 0 0-.814.815c0 .223.09.425.236.578a.81.81 0 0 0 .578.237h3.392v3.391c0 .223.09.425.237.578a.782.782 0 0 0 .578.237h.933a.811.811 0 0 0 .815-.815v-3.391h3.391a.816.816 0 0 0 0-1.63z" fill="#39486D"/><path d="M25.541 20.976H22.15v-3.391a.811.811 0 0 0-.815-.815h-.933a.811.811 0 0 0-.815.815v3.391h-3.392a.811.811 0 0 0-.814.815c0 .223.09.425.236.578a.81.81 0 0 0 .578.237h3.392v3.391c0 .223.09.425.237.578a.782.782 0 0 0 .578.237h.933a.811.811 0 0 0 .815-.815v-3.391h3.391a.816.816 0 0 0 0-1.63z" fill="url(#paint10_linear_2530_15290)"/><path d="M25.541 20.976H22.15v-3.391a.811.811 0 0 0-.815-.815h-.933a.811.811 0 0 0-.815.815v3.391h-3.392a.811.811 0 0 0-.814.815c0 .223.09.425.236.578a.81.81 0 0 0 .578.237h3.392v3.391c0 .223.09.425.237.578a.782.782 0 0 0 .578.237h.933a.811.811 0 0 0 .815-.815v-3.391h3.391a.816.816 0 0 0 0-1.63z" fill="#050304"/><path d="M25.541 20.976H22.15v-3.391a.811.811 0 0 0-.815-.815h-.933a.811.811 0 0 0-.815.815v3.391h-3.392a.811.811 0 0 0-.814.815c0 .223.09.425.236.578a.81.81 0 0 0 .578.237h3.392v3.391c0 .223.09.425.237.578a.782.782 0 0 0 .578.237h.933a.811.811 0 0 0 .815-.815v-3.391h3.391a.816.816 0 0 0 0-1.63z" fill="url(#paint11_linear_2530_15290)"/><path d="M21.216 22.606h3.392a.811.811 0 0 0 .815-.815.811.811 0 0 0-.815-.815h-3.392v-3.391a.811.811 0 0 0-.814-.815.811.811 0 0 0-.815.815v3.391h-3.392a.811.811 0 0 0-.814.815c0 .223.09.425.236.578a.782.782 0 0 0 .578.237h3.392v3.391a.81.81 0 0 0 .815.815.811.811 0 0 0 .814-.815v-3.391z" fill="#fff"/><defs><linearGradient id="paint0_linear_2530_15290" x1="37.464" y1="45.624" x2="7.068" y2="45.624" gradientUnits="userSpaceOnUse"><stop offset=".178" stop-color="#0057D6"/><stop offset=".433" stop-color="#0057D6" stop-opacity="0"/><stop offset=".854" stop-color="#7DC15D" stop-opacity="0"/><stop offset="1" stop-color="#7DC15D"/></linearGradient><linearGradient id="paint1_linear_2530_15290" x1="38.499" y1="47.23" x2="7.102" y2="47.23" gradientUnits="userSpaceOnUse"><stop stop-color="#04D600"/><stop offset=".297" stop-color="#00D63C" stop-opacity="0"/><stop offset=".833" stop-color="#FA552D" stop-opacity="0"/><stop offset="1" stop-color="#FA552D"/></linearGradient><linearGradient id="paint2_linear_2530_15290" x1="10.393" y1="7.218" x2="35.784" y2="29.715" gradientUnits="userSpaceOnUse"><stop stop-color="#FEFFCF"/><stop offset=".401" stop-color="#FFE7DA"/><stop offset="1" stop-color="#FFE7DA" stop-opacity="0"/></linearGradient><linearGradient id="paint3_linear_2530_15290" x1="21.59" y1=".77" x2="21.938" y2="26.05" gradientUnits="userSpaceOnUse"><stop stop-color="#DCFFE5"/><stop offset="1" stop-color="#EBE78C"/></linearGradient><linearGradient id="paint4_linear_2530_15290" x1="32.57" y1="10.118" x2="33.942" y2="6.824" gradientUnits="userSpaceOnUse"><stop stop-color="#0057D6"/><stop offset="1" stop-color="#0057D6" stop-opacity="0"/></linearGradient><linearGradient id="paint5_linear_2530_15290" x1="36.679" y1="11.031" x2="31.211" y2="11.031" gradientUnits="userSpaceOnUse"><stop stop-color="#04D600"/><stop offset=".297" stop-color="#00D63C" stop-opacity="0"/><stop offset=".833" stop-color="#FA552D" stop-opacity="0"/><stop offset="1" stop-color="#FA552D"/></linearGradient><linearGradient id="paint6_linear_2530_15290" x1="33.5" y1="35.437" x2="-10.039" y2="16.534" gradientUnits="userSpaceOnUse"><stop stop-color="#04D600"/><stop offset=".297" stop-color="#00D63C" stop-opacity="0"/></linearGradient><linearGradient id="paint7_linear_2530_15290" x1="28.855" y1="29.901" x2="28.855" y2="21.45" gradientUnits="userSpaceOnUse"><stop stop-color="#0057D6"/><stop offset="1" stop-color="#0057D6" stop-opacity="0"/></linearGradient><linearGradient id="paint8_linear_2530_15290" x1="30.855" y1="29.901" x2="12.337" y2="29.901" gradientUnits="userSpaceOnUse"><stop stop-color="#04D600"/><stop offset=".297" stop-color="#00D63C" stop-opacity="0"/><stop offset=".833" stop-color="#FA552D" stop-opacity="0"/><stop offset="1" stop-color="#FA552D"/></linearGradient><linearGradient id="paint9_linear_2530_15290" x1="29.351" y1="29.899" x2="12.491" y2="13.688" gradientUnits="userSpaceOnUse"><stop stop-color="#7DC15D"/><stop offset=".858" stop-color="#7DC15D" stop-opacity="0"/></linearGradient><linearGradient id="paint10_linear_2530_15290" x1="20.868" y1="16.77" x2="20.868" y2="26.812" gradientUnits="userSpaceOnUse"><stop stop-color="#0057D6"/><stop offset=".139" stop-color="#0057D6" stop-opacity="0"/><stop offset=".473" stop-color="#0057D6" stop-opacity="0"/><stop offset=".58" stop-color="#0057D6"/><stop offset=".585" stop-color="#0057D6" stop-opacity="0"/><stop offset=".84" stop-color="#0057D6" stop-opacity=".109"/><stop offset="1" stop-color="#0057D6"/></linearGradient><linearGradient id="paint11_linear_2530_15290" x1="26.356" y1="26.812" x2="15.393" y2="26.812" gradientUnits="userSpaceOnUse"><stop stop-color="#04D600"/><stop offset=".297" stop-color="#00D63C" stop-opacity="0"/><stop offset=".833" stop-color="#FA552D" stop-opacity="0"/><stop offset="1" stop-color="#FA552D"/></linearGradient></defs></svg>