<svg width="49" height="47" fill="none" xmlns="http://www.w3.org/2000/svg"><path d="M48.5 44.744c0-.15-.164-.3-.482-.442-2.93-.94-12.24-1.62-23.272-1.62C11.358 42.683.5 43.695.5 44.935c0 .15.164.3.481.442 2.94.94 12.241 1.62 23.273 1.62 13.388 0 24.246-1.012 24.246-2.252Z" fill="#1C1C1C"/><path d="M31.869 22.125H6.335v18.03h25.534v-18.03Z" fill="#D6C94F"/><path d="M6.338 25.302h25.534v-3.18H6.338v3.18Z" fill="#71A549"/><path d="M7.863 40.15h1.65V22.12h-1.65v18.03Z" fill="#71A549"/><path d="M7.863 40.15h1.65V22.12h-1.65v18.03Z" fill="url(#a)"/><path d="M14.706 40.15h1.65V22.12h-1.65v18.03Z" fill="#71A549"/><path d="M14.706 40.15h1.65V22.12h-1.65v18.03Z" fill="url(#b)"/><path d="M23.835 40.15h1.65V22.12h-1.65v18.03Z" fill="#71A549"/><path d="M23.835 40.15h1.65V22.12h-1.65v18.03Z" fill="url(#c)"/><path d="M30.572 40.15h1.65V22.12h-1.65v18.03Z" fill="#71A549"/><path d="M30.572 40.15h1.65V22.12h-1.65v18.03Z" fill="url(#d)"/><path d="M17.094 40.151h4.023v-6.375a.778.778 0 0 0-.776-.776h-2.467a.778.778 0 0 0-.776.776v6.375h-.004Z" fill="#71A549"/><path d="M8.169 39.13H4.835a.411.411 0 0 0-.413.413v.608h4.16v-.608a.411.411 0 0 0-.413-.412Z" fill="#fff"/><path fill-rule="evenodd" clip-rule="evenodd" d="M5.142 23.145h2.72V39.13h.307c.228 0 .412.184.412.412v.608H5.397v-.608a.41.41 0 0 1 .407-.412h-.662V23.145Z" fill="#C2F5AA"/><path fill-rule="evenodd" clip-rule="evenodd" d="M5.142 23.145h2.72V39.13h.307c.228 0 .412.184.412.412v.608H5.397v-.608a.41.41 0 0 1 .407-.412h-.662V23.145Z" fill="url(#e)"/><path d="M5.967 23.145h-.825v15.987h.825V23.146Z" fill="#fff"/><path d="m7.861 24.503-2.719-.679v-.679h2.72v1.358Z" fill="#71A549"/><path d="M8.169 23.145H4.835a.411.411 0 0 1-.413-.412v-.608h4.16v.608a.411.411 0 0 1-.413.412Z" fill="#71A549"/><path d="M15.012 39.13H11.68a.411.411 0 0 0-.413.413v.608h4.159v-.608a.411.411 0 0 0-.413-.412Z" fill="#fff"/><path fill-rule="evenodd" clip-rule="evenodd" d="M11.986 23.145h2.719V39.13h.307c.23 0 .413.184.413.412v.608H12.24v-.608a.41.41 0 0 1 .407-.412h-.662V23.145Z" fill="#C2F5AA"/><path fill-rule="evenodd" clip-rule="evenodd" d="M11.986 23.145h2.719V39.13h.307c.23 0 .413.184.413.412v.608H12.24v-.608a.41.41 0 0 1 .407-.412h-.662V23.145Z" fill="url(#f)"/><path d="M12.811 23.145h-.825v15.987h.825V23.146Z" fill="#fff"/><path d="m14.705 24.503-2.719-.679v-.679h2.719v1.358Z" fill="#71A549"/><path d="M15.012 23.145H11.68a.411.411 0 0 1-.413-.412v-.608h4.159v.608a.411.411 0 0 1-.413.412Z" fill="#71A549"/><path d="M24.14 39.13h-3.334a.411.411 0 0 0-.412.413v.608h4.158v-.608a.411.411 0 0 0-.412-.412Z" fill="#fff"/><path fill-rule="evenodd" clip-rule="evenodd" d="M21.114 23.145h2.718V39.13h.308a.41.41 0 0 1 .412.412v.608H21.37v-.608a.41.41 0 0 1 .406-.412h-.661V23.145Z" fill="#C2F5AA"/><path fill-rule="evenodd" clip-rule="evenodd" d="M21.114 23.145h2.718V39.13h.308a.41.41 0 0 1 .412.412v.608H21.37v-.608a.41.41 0 0 1 .406-.412h-.661V23.145Z" fill="url(#g)"/><path d="M21.939 23.145h-.825v15.987h.825V23.146Z" fill="#fff"/><path d="m23.832 24.503-2.718-.679v-.679h2.718v1.358Z" fill="#71A549"/><path d="M24.14 23.145h-3.334a.411.411 0 0 1-.412-.412v-.608h4.158v.608a.411.411 0 0 1-.412.412Z" fill="#71A549"/><path d="M30.984 39.13H27.65a.411.411 0 0 0-.413.413v.608h4.16v-.608a.411.411 0 0 0-.413-.412Z" fill="#fff"/><path fill-rule="evenodd" clip-rule="evenodd" d="M27.957 23.145h2.72V39.13h.306c.23 0 .413.184.413.412v.608h-3.184v-.608a.41.41 0 0 1 .407-.412h-.662V23.145Z" fill="#C2F5AA"/><path fill-rule="evenodd" clip-rule="evenodd" d="M27.957 23.145h2.72V39.13h.306c.23 0 .413.184.413.412v.608h-3.184v-.608a.41.41 0 0 1 .407-.412h-.662V23.145Z" fill="url(#h)"/><path d="M28.782 23.145h-.825v15.987h.825V23.146Z" fill="#fff"/><path d="m30.676 24.503-2.719-.679v-.679h2.72v1.358Z" fill="#71A549"/><path d="M30.984 23.145H27.65a.411.411 0 0 1-.413-.412v-.608h4.16v.608a.411.411 0 0 1-.413.412Zm12.738 19.118H3.252v-1.287c0-.453.368-.825.825-.825h38.82c.454 0 .825.368.825.825v1.287Z" fill="#71A549"/><path d="M43.722 42.263H3.252v-1.287c0-.453.368-.825.825-.825h38.82c.454 0 .825.368.825.825v1.287Z" fill="url(#i)"/><path d="M32.694 42.263H3.252v-1.287c0-.453.368-.825.825-.825H31.87c.453 0 .825.368.825.825v1.287Z" fill="#C2F5AA"/><path d="M26.262 40.2a.778.778 0 0 1-.776.776H3.252c0-.453.368-.825.825-.825h22.185v.05Z" fill="#fff"/><path d="M26.262 40.2a.778.778 0 0 1-.776.776H3.252c0-.453.368-.825.825-.825h22.185v.05Z" fill="url(#j)"/><path d="M45.44 44.37H1.535v-1.286c0-.454.367-.825.825-.825h42.259c.453 0 .825.367.825.825v1.286h-.004Z" fill="#71A549"/><path d="M45.44 44.37H1.535v-1.286c0-.454.367-.825.825-.825h42.259c.453 0 .825.367.825.825v1.286h-.004Z" fill="url(#k)"/><path d="M34.854 44.37H1.534v-1.286c0-.454.368-.825.826-.825h31.669c.453 0 .825.367.825.825v1.286Z" fill="#C2F5AA"/><path d="M34.854 44.37H1.534v-1.286c0-.454.368-.825.826-.825h31.669c.453 0 .825.367.825.825v1.286Z" fill="url(#l)"/><path d="M20.394 42.31a.778.778 0 0 1-.777.777H1.535c0-.454.367-.825.825-.825h18.037v.048h-.003Z" fill="#fff"/><path d="M20.394 42.31a.778.778 0 0 1-.777.777H1.535c0-.454.367-.825.825-.825h18.037v.048h-.003Z" fill="url(#m)"/><path d="M45.44 22.125H3.222l15.882-9.709h10.455l15.88 9.709Z" fill="#D6C94F"/><path d="M45.44 22.125H3.222l15.882-9.709h10.455l15.88 9.709Z" fill="url(#n)"/><path d="m39.425 21 2.366 1.125h3.649l-3.518-2.152L39.425 21Z" fill="#71A549"/><mask id="o" style="mask-type:alpha" maskUnits="userSpaceOnUse" x="3" y="12" width="32" height="11"><path d="M34.985 22.125H3.222l15.882-9.709 15.88 9.709Z" fill="#fff"/></mask><g mask="url(#o)"><path d="M34.985 22.125H3.222l15.882-9.709 15.88 9.709Z" fill="#C2F5AA"/><path d="M23.566 12.416h-4.462L3.222 22.125h4.463l15.881-9.709Zm27.938 0H29.229l-15.882 9.709h22.275l15.882-9.709Z" fill="#fff"/><path d="M51.504 12.416H29.229l-15.882 9.709h22.275l15.882-9.709Z" fill="url(#p)"/></g><path d="M30.901 21.071H7.306l11.798-7.601 11.796 7.6Z" fill="#C2F5AA"/><path d="M30.901 21.071H7.306l11.798-7.601 11.796 7.6Z" fill="url(#q)"/><path d="m19.865 14.76 9.799 6.311H30.9L19.104 13.47l-11.798 7.6h2.764l9.795-6.311Z" fill="#71A549"/><path d="m19.865 14.76 9.799 6.311H30.9L19.104 13.47l-11.798 7.6h2.764l9.795-6.311Z" fill="url(#r)"/><mask id="s" style="mask-type:alpha" maskUnits="userSpaceOnUse" x="31" y="22" width="12" height="19"><path d="M42.327 22.125H31.872v18.03h10.455v-18.03Z" fill="#fff"/></mask><g mask="url(#s)"><path d="M42.327 22.125H31.872v18.03h10.455v-18.03Z" fill="#71A549"/><path d="M42.327 22.125H31.872v3.18h10.455v-3.18Z" fill="#71A549"/><g opacity=".3"><path d="M42.327 40.151H31.872v-7.665l10.455-5.062V40.15Z" fill="#71A549"/><path d="M42.327 40.151H31.872v-7.665l10.455-5.062V40.15Z" fill="#DDDC53"/></g><path d="M35.615 33h-1.35v-3.105a.39.39 0 0 1 .39-.39h.574a.39.39 0 0 1 .39.39V33h-.004Zm4.316 0h-1.35v-3.105a.39.39 0 0 1 .39-.39h.574a.39.39 0 0 1 .39.39V33h-.004Z" fill="#FEFFCF"/></g><mask id="t" style="mask-type:alpha" maskUnits="userSpaceOnUse" x="32" y="0" width="17" height="21"><path d="M41.472 0H39.43c-3.885 0-7.032 2.711-7.032 7.009 0 4.297 3.09 9.307 7.028 13.991h2.044c3.94-4.684 7.03-9.694 7.03-13.991C48.5 2.71 45.354 0 41.472 0Z" fill="#fff"/></mask><g mask="url(#t)"><path d="M41.472 0H39.43c-3.885 0-7.032 2.711-7.032 7.009 0 4.297 3.09 9.307 7.028 13.991h2.044c3.94-4.684 7.03-9.694 7.03-13.991C48.5 2.71 45.354 0 41.472 0Z" fill="#42AB44"/><path d="M48.5 6.754h-9.075v12.69H48.5V6.754Z" fill="#71A549"/><path d="M48.5 6.754h-9.075v12.69H48.5V6.754Z" fill="url(#u)"/><path d="M48.5 2.527h-5.036V4.73H48.5V2.527Z" fill="#71A549"/></g><path d="M39.425 0c-3.881 0-7.027 2.711-7.027 7.009 0 4.297 3.09 9.307 7.027 13.991 3.938-4.684 7.028-9.694 7.028-13.991C46.456 2.71 43.306 0 39.425 0Z" fill="#fff"/><mask id="v" style="mask-type:alpha" maskUnits="userSpaceOnUse" x="32" y="0" width="15" height="21"><path d="M39.136.765c-2.846 0-5.295 1.462-6.397 3.937a7.787 7.787 0 0 0-.338 2.306c0 4.298 3.09 9.308 7.028 13.992 2.554-3.042 4.747-6.214 5.977-9.244.484-1.373.762-2.708.762-3.983-.004-4.297-3.15-7.008-7.032-7.008Z" fill="#fff"/></mask><g mask="url(#v)"><path d="M39.136.765c-2.846 0-5.295 1.462-6.397 3.937a7.787 7.787 0 0 0-.338 2.306c0 4.298 3.09 9.308 7.028 13.992 2.554-3.042 4.747-6.214 5.977-9.244.484-1.373.762-2.708.762-3.983-.004-4.297-3.15-7.008-7.032-7.008Z" fill="#C2F5AA"/><path d="M39.136.765c-2.846 0-5.295 1.462-6.397 3.937a7.787 7.787 0 0 0-.338 2.306c0 4.298 3.09 9.308 7.028 13.992 2.554-3.042 4.747-6.214 5.977-9.244.484-1.373.762-2.708.762-3.983-.004-4.297-3.15-7.008-7.032-7.008Z" fill="url(#w)"/><path d="M41.454 21.356H32.22L47.795 8.148h9.232L41.454 21.356Z" fill="#fff"/></g><path d="M39.811 9.881a3.127 3.127 0 1 0 0-6.255 3.127 3.127 0 0 0 0 6.255Z" fill="#71A549"/><path d="M39.166 9.881a3.127 3.127 0 1 0 0-6.255 3.127 3.127 0 0 0 0 6.255Z" fill="#fff"/><defs><linearGradient id="a" x1="8.688" y1="40.15" x2="8.688" y2="31.135" gradientUnits="userSpaceOnUse"><stop stop-color="#E1DE53"/><stop offset="1" stop-color="#7EC25E"/></linearGradient><linearGradient id="b" x1="15.531" y1="40.15" x2="15.531" y2="31.135" gradientUnits="userSpaceOnUse"><stop stop-color="#E5DF52"/><stop offset="1" stop-color="#7EC25E"/></linearGradient><linearGradient id="c" x1="24.66" y1="40.15" x2="24.66" y2="31.135" gradientUnits="userSpaceOnUse"><stop stop-color="#E5DF52"/><stop offset="1" stop-color="#82C35E"/></linearGradient><linearGradient id="d" x1="31.397" y1="40.15" x2="31.397" y2="31.135" gradientUnits="userSpaceOnUse"><stop stop-color="#DDDC53"/><stop offset="1" stop-color="#7FC25E"/></linearGradient><linearGradient id="e" x1="8.581" y1="40.151" x2="6.862" y2="31.648" gradientUnits="userSpaceOnUse"><stop stop-color="#7DC15D"/><stop offset="1" stop-color="#7DC15D" stop-opacity="0"/></linearGradient><linearGradient id="f" x1="15.425" y1="40.151" x2="13.706" y2="31.648" gradientUnits="userSpaceOnUse"><stop stop-color="#7DC15D"/><stop offset="1" stop-color="#7DC15D" stop-opacity="0"/></linearGradient><linearGradient id="g" x1="24.552" y1="40.151" x2="22.833" y2="31.648" gradientUnits="userSpaceOnUse"><stop stop-color="#7DC15D"/><stop offset="1" stop-color="#7DC15D" stop-opacity="0"/></linearGradient><linearGradient id="h" x1="31.396" y1="40.151" x2="29.677" y2="31.648" gradientUnits="userSpaceOnUse"><stop stop-color="#7DC15D"/><stop offset="1" stop-color="#7DC15D" stop-opacity="0"/></linearGradient><linearGradient id="i" x1="23.487" y1="40.151" x2="23.487" y2="41.207" gradientUnits="userSpaceOnUse"><stop stop-color="#CFD955"/><stop offset="1" stop-color="#5F1A58" stop-opacity="0"/></linearGradient><linearGradient id="j" x1="26.262" y1="40.976" x2="3.252" y2="40.976" gradientUnits="userSpaceOnUse"><stop stop-color="#FEFFCF"/><stop offset="1" stop-color="#FEFFCF" stop-opacity="0"/></linearGradient><linearGradient id="k" x1="23.489" y1="42.259" x2="23.489" y2="43.314" gradientUnits="userSpaceOnUse"><stop stop-color="#CBD856"/><stop offset="1" stop-color="#5F1A58" stop-opacity="0"/></linearGradient><linearGradient id="l" x1="35" y1="44.25" x2="1.625" y2="42.375" gradientUnits="userSpaceOnUse"><stop stop-color="#7DC15D"/><stop offset="1" stop-color="#7DC15D" stop-opacity="0"/></linearGradient><linearGradient id="m" x1="20.397" y1="43.087" x2="1.535" y2="43.087" gradientUnits="userSpaceOnUse"><stop stop-color="#FEFFCF"/><stop offset="1" stop-color="#FEFFCF" stop-opacity="0"/></linearGradient><linearGradient id="n" x1="45.44" y1="22.125" x2="30.447" y2="11.54" gradientUnits="userSpaceOnUse"><stop stop-color="#7DC15D"/><stop offset="1" stop-color="#7DC15D" stop-opacity="0"/></linearGradient><linearGradient id="p" x1="26.695" y1="22.125" x2="22.849" y2="16.572" gradientUnits="userSpaceOnUse"><stop stop-color="#FEFFCF"/><stop offset="1" stop-color="#FEFFCF" stop-opacity="0"/></linearGradient><linearGradient id="q" x1="32.37" y1="21.071" x2="16.157" y2="21.071" gradientUnits="userSpaceOnUse"><stop stop-color="#7DC15D"/><stop offset="1" stop-color="#7DC15D" stop-opacity="0"/></linearGradient><linearGradient id="r" x1="23.75" y1="21.071" x2="20.938" y2="13.5" gradientUnits="userSpaceOnUse"><stop stop-color="#DFDD53"/><stop offset="1" stop-color="#7EC25E"/></linearGradient><linearGradient id="u" x1="41.846" y1="19.444" x2="41.846" y2="13.099" gradientUnits="userSpaceOnUse"><stop stop-color="#E1DE53"/><stop offset="1" stop-color="#88C55D"/></linearGradient><linearGradient id="w" x1="32.401" y1=".765" x2="39.285" y2="10.882" gradientUnits="userSpaceOnUse"><stop stop-color="#FEFFCF"/><stop offset="1" stop-color="#FEFFCF" stop-opacity="0"/></linearGradient></defs></svg>