<svg id="icon" width="12" height="20" fill="none" xmlns="http://www.w3.org/2000/svg"><path d="M5.986 10.341C3.05 10.341.61 7.995.61 5.22.61 2.347 3.05 0 5.987 0c3.036 0 5.375 2.346 5.375 5.22a5.048 5.048 0 0 1-1.578 3.628 5.451 5.451 0 0 1-3.78 1.494h-.018Zm0-7.324A2.186 2.186 0 0 0 3.797 5.22c0 1.196.946 2.106 2.19 2.106 1.293 0 2.189-.91 2.189-2.106.001-1.199-.896-2.203-2.19-2.203Zm2.14 11.586 3.037 2.825c.598.621.598 1.531 0 2.106-.646.621-1.643.621-2.14 0l-3.036-2.873-2.937 2.873c-.298.287-.697.43-1.146.43-.348 0-.746-.144-1.095-.43-.597-.575-.597-1.485 0-2.107l3.086-2.825a14.303 14.303 0 0 1-3.182-1.339c-.747-.383-.896-1.34-.498-2.059.498-.718 1.393-.909 2.19-.43a7.08 7.08 0 0 0 3.583.97 7.08 7.08 0 0 0 3.583-.97c.797-.479 1.742-.288 2.19.43.448.72.248 1.675-.45 2.06-.944.574-2.039 1.005-3.184 1.34Z" fill="#1C1C1C"/></svg>