<svg id="icon" width="48" height="48" viewBox="0 0 49 48" fill="none" xmlns="http://www.w3.org/2000/svg"><path d="M45.5 43.13c0-.125-.123-.25-.36-.368-2.193-.78-9.16-1.345-17.414-1.345-10.018 0-18.142.84-18.142 1.87 0 .125.123.25.36.368 2.2.78 9.16 1.345 17.414 1.345 10.017 0 18.141-.84 18.141-1.87z" fill="#050304"/><path d="M45.5 43.13c0-.125-.123-.25-.36-.368-2.193-.78-9.16-1.345-17.414-1.345-10.018 0-18.142.84-18.142 1.87 0 .125.123.25.36.368 2.2.78 9.16 1.345 17.414 1.345 10.017 0 18.141-.84 18.141-1.87z" fill="url(#paint0_linear_2530_15314)"/><mask id="mask0_2530_15314" style="mask-type:alpha" maskUnits="userSpaceOnUse" x="19" y="3" width="25" height="41"><path d="M38.76 43.208H24.139a4.265 4.265 0 0 1-4.266-4.265V7.266A4.266 4.266 0 0 1 24.139 3h14.62a4.265 4.265 0 0 1 4.267 4.266v31.67a4.271 4.271 0 0 1-4.266 4.272z" fill="#fff"/></mask><g mask="url(#mask0_2530_15314)"><path d="M38.76 43.208H24.139a4.265 4.265 0 0 1-4.266-4.265V7.266A4.266 4.266 0 0 1 24.139 3h14.62a4.265 4.265 0 0 1 4.267 4.266v31.67a4.271 4.271 0 0 1-4.266 4.272z" fill="#043E0F"/><path d="M43.025 17.562h-2.087v21.38h2.087v-21.38z" fill="url(#paint1_linear_2530_15314)"/><path d="M43.025 8.296h-2.087v6.293h2.087V8.296z" fill="#050304"/></g><path d="M36.674 43.208H24.14a4.265 4.265 0 0 1-4.266-4.265V7.266A4.266 4.266 0 0 1 24.14 3h12.534a4.265 4.265 0 0 1 4.266 4.266v31.67a4.271 4.271 0 0 1-4.266 4.272z" fill="#42AB44"/><path d="M36.476 4.3h-.709a.71.71 0 0 0-.708.708c0 .663-.538 1.195-1.195 1.195h-6.91a1.195 1.195 0 0 1-1.195-1.195.71.71 0 0 0-.708-.708h-.709a3.56 3.56 0 0 0-3.557 3.557v30.489a3.56 3.56 0 0 0 3.557 3.557h12.14a3.56 3.56 0 0 0 3.557-3.557V7.856A3.57 3.57 0 0 0 36.476 4.3z" fill="#E5F1FF"/><path d="M36.476 4.3h-.709a.71.71 0 0 0-.708.708c0 .663-.538 1.195-1.195 1.195h-6.91a1.195 1.195 0 0 1-1.195-1.195.71.71 0 0 0-.708-.708h-.709a3.56 3.56 0 0 0-3.557 3.557v30.489a3.56 3.56 0 0 0 3.557 3.557h12.14a3.56 3.56 0 0 0 3.557-3.557V7.856A3.57 3.57 0 0 0 36.476 4.3z" fill="url(#paint2_linear_2530_15314)"/><path d="M34.711 40.59h-8.59a.36.36 0 0 1-.361-.361.36.36 0 0 1 .36-.361h8.591a.36.36 0 0 1 .361.36.356.356 0 0 1-.361.362z" fill="#42AB44"/><path d="M36.972 25.069H23.833a1.655 1.655 0 0 1-1.653-1.654v-7.041c0-.578.302-1.116.8-1.418l6.57-3.964a1.67 1.67 0 0 1 1.712 0l6.57 3.964c.498.302.8.84.8 1.418v7.035a1.666 1.666 0 0 1-1.66 1.66z" fill="#fff"/><path d="m19.249 26.287.211-1.78a1 1 0 0 0-.993-1.119h-5.754a1 1 0 0 0-.993.883l-.239 2.016" stroke="#39486D" stroke-width="2"/><mask id="mask1_2530_15314" style="mask-type:alpha" maskUnits="userSpaceOnUse" x="0" y="25" width="32" height="22"><path d="M3.663 27.65a2 2 0 0 1 1.973-1.675h20.888a2 2 0 0 1 1.973 1.675l2.747 16.719a2 2 0 0 1-2.138 2.317l-2.791-.23-5.397.442H2.855a2 2 0 0 1-1.973-2.324l2.78-16.924z" fill="#fff"/></mask><g mask="url(#mask1_2530_15314)"><path d="M3.663 27.65a2 2 0 0 1 1.973-1.675h20.888a2 2 0 0 1 1.973 1.675l2.747 16.72a2 2 0 0 1-2.137 2.318l-2.792-.23-5.397.44H2.855a2 2 0 0 1-1.973-2.324l2.78-16.924z" fill="#39486D"/><path fill="url(#paint3_linear_2530_15314)" d="M26.311 25.975h5.348v20.921h-5.348z"/><mask id="mask2_2530_15314" style="mask-type:alpha" maskUnits="userSpaceOnUse" x="-1" y="25" width="28" height="22"><path d="M3.359 25.975h22.936-.219a2 2 0 0 0-1.974 1.676l-2.745 16.732a3 3 0 0 1-2.96 2.515H-.065L3.36 25.975z" fill="#fff"/></mask><g mask="url(#mask2_2530_15314)"><path d="M3.359 25.975h22.936-.219a2 2 0 0 0-1.974 1.676l-2.745 16.732a3 3 0 0 1-2.96 2.515H-.065L3.36 25.975z" fill="#7DC15D"/><path d="M3.359 25.975h22.936-.219a2 2 0 0 0-1.974 1.676l-2.745 16.732a3 3 0 0 1-2.96 2.515H-.065L3.36 25.975z" fill="url(#paint4_linear_2530_15314)"/><path d="M24.916 56.149 9.06 51.543l19.073-15.216 15.854 4.601-19.07 15.22z" fill="#fff"/><path d="M24.916 56.149 9.06 51.543l19.073-15.216 15.854 4.601-19.07 15.22z" fill="#B5E2FF"/><path d="M24.916 56.149 9.06 51.543l19.073-15.216 15.854 4.601-19.07 15.22z" fill="url(#paint5_linear_2530_15314)"/></g><path d="M3.886 26.448h22.368c-.719 0-1.332.521-1.449 1.231l-1.701 10.372a3 3 0 0 1-2.96 2.515H3.933a2 2 0 0 1-1.974-2.323l1.927-11.795z" fill="#7DC15D"/><path d="M3.886 26.448h22.368c-.719 0-1.332.521-1.449 1.231l-1.701 10.372a3 3 0 0 1-2.96 2.515H3.933a2 2 0 0 1-1.974-2.323l1.927-11.795z" fill="#39486D"/><path d="M3.927 25.975h22.368-.22a2 2 0 0 0-1.973 1.676l-1.628 9.927a3 3 0 0 1-2.96 2.514H3.974A2 2 0 0 1 2 37.77l1.927-11.795z" fill="#7DC15D"/><path d="M3.927 25.975h22.368-.22a2 2 0 0 0-1.973 1.676l-1.628 9.927a3 3 0 0 1-2.96 2.514H3.974A2 2 0 0 1 2 37.77l1.927-11.795z" fill="url(#paint6_linear_2530_15314)"/><path fill-rule="evenodd" clip-rule="evenodd" d="M26.076 25.975H3.926L2 37.77a2.09 2.09 0 0 0-.022.192v-.005l2.226-9.707a2 2 0 0 1 1.95-1.554h18.383a2 2 0 0 1 1.539-.721z" fill="#fff"/><path fill-rule="evenodd" clip-rule="evenodd" d="M10.86 38.128a1 1 0 0 0-.986.838l-.252 1.536a1 1 0 0 0 .987 1.162h1.269a1 1 0 0 0 .987-.838l.252-1.536a1 1 0 0 0-.987-1.162h-1.27z" fill="#39486D"/><path d="M9.872 38.964a1 1 0 0 1 .987-.836h.815a1 1 0 0 1 .986 1.165l-.19 1.14a1 1 0 0 1-.986.837h-.815a1 1 0 0 1-.987-1.165l.19-1.14z" fill="#fff"/></g><defs><linearGradient id="paint0_linear_2530_15314" x1="45.499" y1="45" x2="9.623" y2="45" gradientUnits="userSpaceOnUse"><stop stop-color="#04D600"/><stop offset=".297" stop-color="#00D63C" stop-opacity="0"/><stop offset=".833" stop-color="#FA552D" stop-opacity="0"/><stop offset="1" stop-color="#FA552D"/></linearGradient><linearGradient id="paint1_linear_2530_15314" x1="41.982" y1="17.562" x2="41.982" y2="38.943" gradientUnits="userSpaceOnUse"><stop stop-color="#050304"/><stop offset="1" stop-color="#AA1F00" stop-opacity="0"/></linearGradient><linearGradient id="paint2_linear_2530_15314" x1="30.412" y1="4.3" x2="30.926" y2="28.832" gradientUnits="userSpaceOnUse"><stop stop-color="#DCFFE5"/><stop offset="1" stop-color="#EBE78C"/></linearGradient><linearGradient id="paint3_linear_2530_15314" x1="25.072" y1="46.23" x2="29.7" y2="45.064" gradientUnits="userSpaceOnUse"><stop stop-color="#0057D6"/><stop offset="1" stop-color="#0057D6" stop-opacity="0"/></linearGradient><linearGradient id="paint4_linear_2530_15314" x1="22.654" y1="38.324" x2="19.288" y2="48.549" gradientUnits="userSpaceOnUse"><stop stop-color="#0057D6"/><stop offset="1" stop-color="#0057D6" stop-opacity="0"/></linearGradient><linearGradient id="paint5_linear_2530_15314" x1="26.114" y1="39.478" x2="17.928" y2="43.708" gradientUnits="userSpaceOnUse"><stop stop-color="#0057D6"/><stop offset="1" stop-color="#0057D6" stop-opacity="0"/></linearGradient><linearGradient id="paint6_linear_2530_15314" x1="12.198" y1="34.782" x2="26.294" y2="19.514" gradientUnits="userSpaceOnUse"><stop stop-color="#FFCA42"/><stop offset="1" stop-color="#FFCA42" stop-opacity="0"/></linearGradient><clipPath id="clip0_2530_15314"><path fill="#fff" transform="translate(.5)" d="M0 0h48v48H0z"/></clipPath></defs></svg>