<svg width="24" height="24" fill="none" xmlns="http://www.w3.org/2000/svg"><path d="M12.68 3.96c.48.71.76 1.56.76 2.48-.01 2.4-1.9 4.35-4.28 4.43-.1-.01-.22-.01-.33 0a4.42 4.42 0 0 1-4.27-4.43C4.56 3.99 6.54 2 9 2" stroke="#1C1C1C" stroke-width="2" stroke-linecap="round" stroke-linejoin="round"/><path d="M16.41 4c1.94 0 3.5 1.57 3.5 3.5 0 1.89-1.5 3.43-3.37 3.5a1.13 1.13 0 0 0-.26 0" stroke="#42AB44" stroke-width="2" stroke-linecap="round" stroke-linejoin="round"/><path d="M4.16 14.56c-2.42 1.62-2.42 4.26 0 5.87 2.75 1.84 7.26 1.84 10.01 0 2.42-1.62 2.42-4.26 0-5.87-2.74-1.83-7.25-1.83-10.01 0Z" stroke="#1C1C1C" stroke-width="2" stroke-linecap="round" stroke-linejoin="round"/><path d="M18.34 20c.72-.15 1.4-.44 1.96-.87 1.56-1.17 1.56-3.1 0-4.27-.55-.42-1.22-.7-1.93-.86" stroke="#42AB44" stroke-width="2" stroke-linecap="round" stroke-linejoin="round"/></svg>