<svg id="icon" width="24" height="24" fill="none" xmlns="http://www.w3.org/2000/svg"><path d="M10.727 16v-3.765m0 0V9a1 1 0 0 1 1-1H12a2 2 0 0 1 2 2v.235a2 2 0 0 1-2 2h-1.273ZM10 14.588h2.546" stroke="#42AB44" stroke-width="1.5" stroke-linecap="round"/><circle cx="12" cy="12" r="10" stroke="#1C1C1C" stroke-width="2"/><path fill-rule="evenodd" clip-rule="evenodd" d="M14.588 18.384c.162.578.791.894 1.315.601a8 8 0 0 0-4.206-14.98c-.6.023-.97.63-.808 1.208.136.482.61.787 1.111.787a6 6 0 0 1 3.14 11.114c-.436.268-.69.778-.552 1.27ZM5.268 7.261c.773 0 1.216 1.01.857 1.695a6.6 6.6 0 0 0-.754 3.073 6.6 6.6 0 0 0 .903 3.34c.393.673-.043 1.745-.822 1.745a.79.79 0 0 1-.665-.348 8.588 8.588 0 0 1-1.416-4.737c0-1.598.435-3.094 1.192-4.377a.813.813 0 0 1 .705-.391ZM12 3.765c.421 0 .457-.363.035-.365a8.435 8.435 0 0 0-.07 0c-.422.002-.387.365.035.365Z" fill="#1C1C1C"/></svg>