<svg id="icon" width="70" height="70" fill="none" xmlns="http://www.w3.org/2000/svg"><path d="M48.68 62.735c0-.164-.13-.328-.379-.484-2.303-1.028-9.625-1.771-18.3-1.771-10.528 0-19.067 1.106-19.067 2.463 0 .164.13.328.379.484 2.312 1.028 9.626 1.771 18.3 1.771 10.529 0 19.067-1.106 19.067-2.463z" fill="#44384D"/><path d="M48.68 62.735c0-.164-.13-.328-.379-.484-2.303-1.028-9.625-1.771-18.3-1.771-10.528 0-19.067 1.106-19.067 2.463 0 .164.13.328.379.484 2.312 1.028 9.626 1.771 18.3 1.771 10.529 0 19.067-1.106 19.067-2.463z" fill="url(#paint0_linear_2530_3536)"/><path d="M48.68 62.735c0-.164-.13-.328-.379-.484-2.303-1.028-9.625-1.771-18.3-1.771-10.528 0-19.067 1.106-19.067 2.463 0 .164.13.328.379.484 2.312 1.028 9.626 1.771 18.3 1.771 10.529 0 19.067-1.106 19.067-2.463z" fill="#050304"/><path d="M48.68 62.735c0-.164-.13-.328-.379-.484-2.303-1.028-9.625-1.771-18.3-1.771-10.528 0-19.067 1.106-19.067 2.463 0 .164.13.328.379.484 2.312 1.028 9.626 1.771 18.3 1.771 10.529 0 19.067-1.106 19.067-2.463z" fill="url(#paint1_linear_2530_3536)"/><mask id="mask0_2530_3536" style="mask-type:alpha" maskUnits="userSpaceOnUse" x="11" y="6" width="44" height="53"><path d="m48.472 6.517-36.92 4.995 6.413 47.389 36.92-4.996-6.413-47.388z" fill="#898989"/></mask><g mask="url(#mask0_2530_3536)"><path d="m48.472 6.517-36.92 4.995 6.413 47.389 36.92-4.996-6.413-47.388z" fill="#B5E2FF"/><path d="m48.472 6.517-36.92 4.995 6.413 47.389 36.92-4.996-6.413-47.388z" fill="url(#paint2_linear_2530_3536)"/><path d="m44.856 6.054-37.94 8.913 11.462 48.788 37.94-8.913L44.856 6.054z" fill="url(#paint3_linear_2530_3536)"/></g><mask id="mask1_2530_3536" style="mask-type:alpha" maskUnits="userSpaceOnUse" x="4" y="6" width="49" height="56"><path d="M40.93 6.178 4.854 15.481l11.94 46.303L52.87 52.48 40.93 6.178z" fill="#898989"/></mask><g mask="url(#mask1_2530_3536)"><path d="M40.93 6.178 4.854 15.48l11.94 46.303 36.075-9.302L40.93 6.178z" fill="#FFCA42"/><path d="M40.93 6.178 4.854 15.48l11.94 46.303 36.075-9.302L40.93 6.178z" fill="url(#paint4_linear_2530_3536)"/><path d="m54.89 57.13-19.557 2.647 13.47-25.865 19.557-2.647L54.89 57.13zM7.798 35.507l-19.557 2.647L1.716 12.288l19.557-2.646L7.798 35.507zM30.94 63.24l-2.057.279 20.826-39.973 2.052-.278L30.94 63.24z" fill="#fff"/><path d="M36.521 14.436a.951.951 0 0 1-.552-.18 1.023 1.023 0 0 1-.382-.58l-1.863-7.228a.957.957 0 0 1 .684-1.165l.91-.236a.995.995 0 0 1 .651.037.952.952 0 0 1 .552.642l.387 1.41-.453.119-.386-1.411a.487.487 0 0 0-.59-.35l-.953.246a.485.485 0 0 0-.35.59l1.878 7.27a.479.479 0 0 0 .59.35l.217-.057a.479.479 0 0 0 .35-.59L36.19 9.36a.235.235 0 0 1 .17-.288.235.235 0 0 1 .288.17l1.005 3.907a.993.993 0 0 1-.038.65.952.952 0 0 1-.642.553l-.217.056a.977.977 0 0 1-.236.029z" fill="#44384D"/><path d="M32.426 54.517s1.825-5.736 5.259-9.012c2.659-2.544-1.594 7.435.53 6.917 2.31-.565 7.318-8.608 3.844-6.457-3.075 1.904-1.273 5.236 3.238 3.903 4.942-1.458 7.74-3.03 9.264-3.961" stroke="url(#paint5_linear_2530_3536)" stroke-width=".907" stroke-miterlimit="10" stroke-linecap="round"/></g><path d="M38.593 19.345 13.34 25.856a.94.94 0 0 1-1.142-.674.94.94 0 0 1 .675-1.142l25.247-6.511a.94.94 0 0 1 1.142.674.936.936 0 0 1-.67 1.142zm-8.172 6.97-15.905 4.1a.94.94 0 0 1-1.142-.675.94.94 0 0 1 .675-1.142l15.905-4.1a.94.94 0 0 1 1.141.674.942.942 0 0 1-.674 1.142zm9.346-2.412-5.874 1.515a.94.94 0 0 1-1.142-.675.94.94 0 0 1 .675-1.142l5.87-1.514a.94.94 0 0 1 1.141.674.936.936 0 0 1-.67 1.142zm1.175 4.558-25.247 6.511a.94.94 0 0 1-1.142-.675.94.94 0 0 1 .675-1.141l25.247-6.512a.94.94 0 0 1 1.142.675.942.942 0 0 1-.675 1.142zm-13.088 8.233L16.87 39.525a.94.94 0 0 1-1.142-.675.94.94 0 0 1 .675-1.142l10.984-2.83a.938.938 0 0 1 .467 1.816zm6.134-1.58-2.661.688a.94.94 0 0 1-1.142-.674.94.94 0 0 1 .675-1.142l2.66-.689a.94.94 0 0 1 1.142.675.933.933 0 0 1-.674 1.142zm8.13-2.095-4.658 1.198a.94.94 0 0 1-1.142-.675.94.94 0 0 1 .675-1.141l4.657-1.199a.94.94 0 0 1 1.142.675.942.942 0 0 1-.675 1.142zm-9.65 7.35-14.423 3.718a.94.94 0 0 1-1.142-.674.94.94 0 0 1 .675-1.142L32 38.553a.94.94 0 0 1 1.142.675.942.942 0 0 1-.675 1.142z" fill="#44384D"/><path d="M38.593 19.345 13.34 25.856a.94.94 0 0 1-1.142-.674.94.94 0 0 1 .675-1.142l25.247-6.511a.94.94 0 0 1 1.142.674.936.936 0 0 1-.67 1.142zm-8.172 6.97-15.905 4.1a.94.94 0 0 1-1.142-.675.94.94 0 0 1 .675-1.142l15.905-4.1a.94.94 0 0 1 1.141.674.942.942 0 0 1-.674 1.142zm9.346-2.412-5.874 1.515a.94.94 0 0 1-1.142-.675.94.94 0 0 1 .675-1.142l5.87-1.514a.94.94 0 0 1 1.141.674.936.936 0 0 1-.67 1.142zm1.175 4.558-25.247 6.511a.94.94 0 0 1-1.142-.675.94.94 0 0 1 .675-1.141l25.247-6.512a.94.94 0 0 1 1.142.675.942.942 0 0 1-.675 1.142zm-13.088 8.233L16.87 39.525a.94.94 0 0 1-1.142-.675.94.94 0 0 1 .675-1.142l10.984-2.83a.938.938 0 0 1 .467 1.816zm6.134-1.58-2.661.688a.94.94 0 0 1-1.142-.674.94.94 0 0 1 .675-1.142l2.66-.689a.94.94 0 0 1 1.142.675.933.933 0 0 1-.674 1.142zm8.13-2.095-4.658 1.198a.94.94 0 0 1-1.142-.675.94.94 0 0 1 .675-1.141l4.657-1.199a.94.94 0 0 1 1.142.675.942.942 0 0 1-.675 1.142zm-9.65 7.35-14.423 3.718a.94.94 0 0 1-1.142-.674.94.94 0 0 1 .675-1.142L32 38.553a.94.94 0 0 1 1.142.675.942.942 0 0 1-.675 1.142z" fill="#42AB44"/><path fill-rule="evenodd" clip-rule="evenodd" d="m11.803 19.924 7.549-1.949a.934.934 0 0 0 .67-1.142.94.94 0 0 0-1.142-.674l-7.544 1.948a.94.94 0 0 0-.675 1.142.94.94 0 0 0 1.142.675zM21.14 56.1l4.303-1.108a.942.942 0 0 0 .675-1.142.94.94 0 0 0-1.142-.675l-4.303 1.109a.94.94 0 0 0-.675 1.142.94.94 0 0 0 1.142.674zm-1.17-4.558 7.544-1.948a.934.934 0 0 0 .67-1.142.94.94 0 0 0-1.141-.675l-7.545 1.949a.94.94 0 0 0-.675 1.142c.133.5.642.802 1.147.674z" fill="#44384D"/><path d="M32.426 54.518s1.57-6.798 5.228-10.905c2.833-3.188-1.143 8.74 1.264 7.941 2.614-.87 7.645-10.631 3.833-7.82-3.374 2.488-.979 6.169 4.107 4.205 5.573-2.149 8.657-4.227 10.33-5.447" stroke="#44384D" stroke-width=".907" stroke-miterlimit="10" stroke-linecap="round"/><path d="M32.426 54.518s1.57-6.798 5.228-10.905c2.833-3.188-1.143 8.74 1.264 7.941 2.614-.87 7.645-10.631 3.833-7.82-3.374 2.488-.979 6.169 4.107 4.205 5.573-2.149 8.657-4.227 10.33-5.447" stroke="url(#paint6_linear_2530_3536)" stroke-width=".907" stroke-miterlimit="10" stroke-linecap="round"/><path d="m53.932 42.192.707.189s-.632 1.864-.863 1.802c-.231-.061.156-1.99.156-1.99z" fill="#0057D6"/><path d="m57.65 23.55 3.109.835c.09.024.141.114.118.203-2.157 7.998-5.082 15.745-5.823 17.675a.548.548 0 0 1-.65.33l-.369-.1a.546.546 0 0 1-.4-.608c.32-2.038 1.674-10.21 3.812-18.212a.167.167 0 0 1 .203-.123z" fill="#44384D"/><path d="m57.65 23.55 3.109.835c.09.024.141.114.118.203-2.157 7.998-5.082 15.745-5.823 17.675a.548.548 0 0 1-.65.33l-.369-.1a.546.546 0 0 1-.4-.608c.32-2.038 1.674-10.21 3.812-18.212a.167.167 0 0 1 .203-.123z" fill="url(#paint7_linear_2530_3536)"/><path d="M53.931 42.192c.368.103.86-1.661 1.472-3.563 1.142-3.538 3.067-11.54 3.265-12.323.232-.906.208-1.18-.236-1.322a8.32 8.32 0 0 0-.91-.245c-.26-.057-.406.175-.453.377-.028.123-1.194 3.945-2.156 8.583-.481 2.326-1.015 5.459-1.123 7.228-.156.953-.16 1.18.141 1.265z" fill="#B5E2FF"/><path d="M53.931 42.192c.368.103.86-1.661 1.472-3.563 1.142-3.538 3.067-11.54 3.265-12.323.232-.906.208-1.18-.236-1.322a8.32 8.32 0 0 0-.91-.245c-.26-.057-.406.175-.453.377-.028.123-1.194 3.945-2.156 8.583-.481 2.326-1.015 5.459-1.123 7.228-.156.953-.16 1.18.141 1.265z" fill="url(#paint8_linear_2530_3536)"/><path d="m63.23 7.108.925.25a.178.178 0 0 1 .128.222l-.09.335-1.274-.34.09-.335a.186.186 0 0 1 .222-.132z" fill="#7DC15D"/><path d="m62.938 7.301 1.378.368c.278.076.453.35.396.633-.377 1.85-1.77 8.549-3.543 15.188a.165.165 0 0 1-.203.117l-3.11-.835a.165.165 0 0 1-.117-.203c1.788-6.633 3.935-13.13 4.539-14.923a.55.55 0 0 1 .66-.345z" fill="#44384D"/><path d="m62.938 7.301 1.378.368c.278.076.453.35.396.633-.377 1.85-1.77 8.549-3.543 15.188a.165.165 0 0 1-.203.117l-3.11-.835a.165.165 0 0 1-.117-.203c1.788-6.633 3.935-13.13 4.539-14.923a.55.55 0 0 1 .66-.345z" fill="url(#paint9_linear_2530_3536)"/><path d="M62.405 8.198c.146-.41.269-.585.477-.538l.302.08c.198.07.23.236.108.731-.075.302-3.293 12.791-3.416 13.178-.222.717-.533.982-.92.897l-.264-.076c-.27-.085-.444-.377-.27-1.118.161-.67 3.804-12.65 3.983-13.154z" fill="#B5E2FF"/><path d="M62.405 8.198c.146-.41.269-.585.477-.538l.302.08c.198.07.23.236.108.731-.075.302-3.293 12.791-3.416 13.178-.222.717-.533.982-.92.897l-.264-.076c-.27-.085-.444-.377-.27-1.118.161-.67 3.804-12.65 3.983-13.154z" fill="url(#paint10_linear_2530_3536)"/><path d="m60.894 23.597-2.967-.796-.208.774 2.967.797.208-.775z" fill="#7DC15D"/><path d="m60.89 23.594-1.298-.348-.208.774 1.299.349.208-.775z" fill="#44384D"/><path d="M60.05 21.724c.34.09 2.086-6.133 2.799-8.785.712-2.647 1.005-3.75.599-3.86-.41-.108-.609.638-1.416 3.643-.811 3.006-2.326 8.913-1.981 9.002z" fill="#fff"/><path d="M55.007 37.493c-.212-.052-.09-1.288.269-2.755.363-1.468.825-2.619 1.043-2.567.212.052.09 1.288-.27 2.755-.363 1.468-.83 2.619-1.042 2.567zm1.972-6.738c.1-.405.052-.764-.113-.806-.165-.043-.373.254-.472.66-.099.406-.052.764.113.807.165.042.368-.26.472-.66z" fill="#FEFFCF"/><path d="M36.163 14.232a.95.95 0 0 1-.552-.179 1.023 1.023 0 0 1-.382-.58L33.36 6.24a.957.957 0 0 1 .684-1.166l.91-.235a.995.995 0 0 1 .651.037.952.952 0 0 1 .552.642l.458 1.765-.453.118-.457-1.765a.487.487 0 0 0-.59-.35l-.949.246a.484.484 0 0 0-.349.59l1.878 7.27a.479.479 0 0 0 .59.35l.217-.057a.48.48 0 0 0 .35-.59l-1.02-3.944a.235.235 0 0 1 .17-.288.235.235 0 0 1 .288.17l1.005 3.907a1.03 1.03 0 0 1-.033.65.952.952 0 0 1-.642.553l-.217.056a1.06 1.06 0 0 1-.24.034z" fill="#fff"/><defs><linearGradient id="paint0_linear_2530_3536" x1="10.934" y1="62.839" x2="48.68" y2="62.839" gradientUnits="userSpaceOnUse"><stop stop-color="#7DC15D"/><stop offset=".31" stop-color="#7DC15D" stop-opacity="0"/><stop offset=".666" stop-color="#0057D6" stop-opacity="0"/><stop offset="1" stop-color="#0057D6"/></linearGradient><linearGradient id="paint1_linear_2530_3536" x1="48.68" y1="65.198" x2="10.975" y2="65.198" gradientUnits="userSpaceOnUse"><stop stop-color="#04D600"/><stop offset=".297" stop-color="#00D63C" stop-opacity="0"/><stop offset=".833" stop-color="#FA552D" stop-opacity="0"/><stop offset="1" stop-color="#FA552D"/></linearGradient><linearGradient id="paint2_linear_2530_3536" x1="30.012" y1="9.015" x2="33.218" y2="32.709" gradientUnits="userSpaceOnUse"><stop stop-color="#7DC15D"/><stop offset="1" stop-color="#7DC15D" stop-opacity="0"/></linearGradient><linearGradient id="paint3_linear_2530_3536" x1="28" y1="-51.716" x2="11.639" y2="-45.894" gradientUnits="userSpaceOnUse"><stop stop-color="#42AB44"/><stop offset="1" stop-color="#201B37"/></linearGradient><linearGradient id="paint4_linear_2530_3536" x1="11.878" y1="21.791" x2="52.927" y2="52.695" gradientUnits="userSpaceOnUse"><stop stop-color="#FEFFCF"/><stop offset="1" stop-color="#FEFFCF" stop-opacity="0"/></linearGradient><linearGradient id="paint5_linear_2530_3536" x1="32.426" y1="54.631" x2="51.424" y2="47.508" gradientUnits="userSpaceOnUse"><stop stop-color="#0057D6"/><stop offset="1" stop-color="#0057D6" stop-opacity="0"/></linearGradient><linearGradient id="paint6_linear_2530_3536" x1="51.195" y1="45.117" x2="38.891" y2="51.679" gradientUnits="userSpaceOnUse"><stop stop-color="#FA552D"/><stop offset="1" stop-color="#FA552D" stop-opacity="0"/></linearGradient><linearGradient id="paint7_linear_2530_3536" x1="54.766" y1="42.611" x2="58.176" y2="30.856" gradientUnits="userSpaceOnUse"><stop stop-color="#0057D6"/><stop offset="1" stop-color="#0057D6" stop-opacity="0"/></linearGradient><linearGradient id="paint8_linear_2530_3536" x1="58.382" y1="24.981" x2="55.662" y2="37.289" gradientUnits="userSpaceOnUse"><stop stop-color="#7DC15D"/><stop offset="1" stop-color="#7DC15D" stop-opacity="0"/></linearGradient><linearGradient id="paint9_linear_2530_3536" x1="60.421" y1="23.451" x2="60.892" y2="21.637" gradientUnits="userSpaceOnUse"><stop stop-color="#0057D6"/><stop offset="1" stop-color="#0057D6" stop-opacity="0"/></linearGradient><linearGradient id="paint10_linear_2530_3536" x1="58.682" y1="22.304" x2="62.228" y2="10.572" gradientUnits="userSpaceOnUse"><stop stop-color="#7DC15D"/><stop offset="1" stop-color="#7DC15D" stop-opacity="0"/></linearGradient></defs></svg>