<svg id="icon" width="20" height="16" xmlns="http://www.w3.org/2000/svg"><path d="M1.226 6.968s8.846-3.512 11.913-4.749c1.177-.495 5.165-2.078 5.165-2.078s1.84-.692 1.687.99c-.051.692-.46 3.116-.87 5.738-.613 3.71-1.278 7.767-1.278 7.767s-.102 1.138-.971 1.336c-.87.197-2.3-.693-2.556-.891-.205-.148-3.835-2.374-5.165-3.463-.358-.297-.767-.89.051-1.583 1.841-1.632 4.04-3.66 5.37-4.947.613-.593 1.226-1.979-1.33-.297-3.63 2.424-7.21 4.7-7.21 4.7s-.818.495-2.352.05C2.146 9.094.357 8.5.357 8.5s-1.227-.741.87-1.533Z"/></svg>