<svg id="icon" width="36" height="22" fill="none" xmlns="http://www.w3.org/2000/svg"><path d="M7.467 0h8.61c1.202 0 1.95.997 1.67 2.225l-4.01 17.525c-.282 1.223-1.486 2.221-2.688 2.221h-8.61c-1.2 0-1.95-.998-1.67-2.221L4.78 2.225C5.06.997 6.263 0 7.467 0Z" fill="#E21836"/><path d="M15.36 0h9.902c1.202 0 .66.997.378 2.225L21.63 19.75c-.28 1.223-.193 2.221-1.397 2.221h-9.902c-1.204 0-1.95-.998-1.667-2.221l4.008-17.525C12.958.997 14.158 0 15.361 0Z" fill="#00447C"/><path d="M24.87 0h8.61c1.204 0 1.952.997 1.669 2.225L31.141 19.75c-.283 1.223-1.487 2.221-2.69 2.221h-8.607c-1.204 0-1.951-.998-1.67-2.221l4.01-17.525C22.464.997 23.666 0 24.87 0Z" fill="#007B84"/><path d="M9.715 5.616c-.886.01-1.147 0-1.23-.02-.033.155-.63 2.962-.632 2.964-.129.568-.222.972-.54 1.234a.952.952 0 0 1-.636.225c-.393 0-.621-.199-.66-.575l-.007-.13.12-.764s.627-2.558.739-2.896a.251.251 0 0 0 .009-.038c-1.22.01-1.437 0-1.452-.02a4.85 4.85 0 0 0-.038.186l-.64 2.882-.056.245-.106.8c0 .237.046.43.137.594.292.519 1.124.597 1.594.597.607 0 1.176-.131 1.56-.371.668-.402.842-1.03.998-1.587l.072-.286S9.593 6 9.703 5.654c.004-.019.006-.029.012-.038Zm2.197 2.143c-.155 0-.44.038-.695.166-.093.048-.18.104-.274.16l.084-.307-.046-.052c-.542.112-.663.127-1.164.199l-.042.028c-.058.49-.11.86-.325 1.825-.082.355-.167.714-.253 1.07l.023.044c.513-.027.67-.027 1.115-.02l.036-.04c.057-.295.064-.365.19-.963.059-.284.182-.908.242-1.13.112-.052.222-.104.327-.104.25 0 .22.222.21.31-.011.15-.102.634-.196 1.05l-.062.27c-.043.198-.091.391-.135.588l.02.04c.505-.028.66-.028 1.091-.02l.051-.04c.078-.463.101-.586.24-1.258l.07-.309c.135-.604.203-.91.1-1.16-.108-.28-.368-.347-.607-.347Zm2.456.632c-.269.053-.44.088-.61.11-.17.028-.335.053-.594.09l-.021.019-.019.015c-.027.197-.046.367-.082.568-.03.207-.077.442-.153.78-.06.259-.09.349-.123.44-.033.091-.069.18-.135.434l.015.024.013.021c.243-.012.402-.02.565-.021.163-.006.332 0 .594.001l.023-.019.024-.02c.038-.23.044-.292.067-.404.023-.12.062-.287.159-.73.046-.21.097-.417.144-.63l.15-.63-.007-.024-.01-.024Zm.006-.853c-.245-.147-.674-.1-.962.103-.288.199-.32.48-.077.63.24.142.67.1.956-.105.288-.203.323-.482.083-.628Zm1.477 3.4c.494 0 1-.139 1.382-.55.294-.334.428-.83.475-1.035.152-.678.033-.994-.115-1.187-.226-.294-.624-.388-1.037-.388-.249 0-.84.025-1.303.459-.332.313-.485.738-.578 1.145-.093.415-.2 1.162.474 1.44.208.091.509.116.702.116Zm-.039-1.525c.114-.513.249-.944.592-.944.27 0 .289.32.17.836-.022.114-.12.539-.253.72-.093.133-.203.214-.324.214-.036 0-.251 0-.254-.324-.002-.16.03-.324.07-.502Zm3.131 1.46.039-.04c.055-.296.064-.366.185-.964.06-.284.186-.907.245-1.13.112-.052.22-.104.328-.104.248 0 .218.222.208.31-.009.15-.1.634-.195 1.05l-.059.27c-.045.198-.094.39-.137.588l.018.04a11.79 11.79 0 0 1 1.09-.02l.053-.04c.076-.463.097-.586.24-1.258l.068-.309c.136-.604.204-.91.104-1.16-.112-.28-.373-.347-.608-.347-.156 0-.442.038-.697.166-.09.048-.182.104-.271.16l.078-.307-.042-.052c-.542.112-.666.127-1.166.199l-.038.028c-.06.491-.11.86-.326 1.825-.082.355-.167.714-.252 1.07l.023.044c.514-.027.667-.027 1.112-.02Zm3.729.02c.032-.16.221-1.1.223-1.1 0 0 .161-.689.171-.714 0 0 .05-.072.102-.1h.074c.705 0 1.501 0 2.125-.467.425-.32.715-.794.845-1.37.033-.14.058-.308.058-.476 0-.22-.043-.438-.169-.609-.318-.453-.952-.461-1.683-.465l-.36.004c-.937.012-1.312.008-1.467-.011l-.037.193-.336 1.585-.84 3.523c.817-.01 1.153-.01 1.294.006Zm.621-2.812.355-1.574.012-.08.005-.062.142.015.753.066c.29.114.41.409.326.793a1.15 1.15 0 0 1-.588.79c-.237.121-.527.131-.826.131h-.194l.015-.08Zm2.22 1.361c-.094.41-.202 1.156.47 1.423.213.092.405.12.6.11.206-.011.397-.117.573-.268l-.047.187.03.04c.483-.02.633-.02 1.156-.017l.047-.037c.077-.457.149-.9.347-1.776.097-.419.194-.834.293-1.251l-.016-.046c-.54.102-.684.124-1.204.199l-.04.032-.015.125a.746.746 0 0 0-.379-.318c-.23-.092-.774.027-1.24.46-.328.308-.485.732-.575 1.137Zm1.135.025c.116-.504.248-.93.593-.93.217 0 .332.204.308.553a20.82 20.82 0 0 1-.17.729c-.037.102-.08.198-.127.262-.088.128-.3.207-.42.207-.035 0-.247 0-.255-.319-.001-.159.03-.322.07-.502Zm5.925-1.664-.042-.049c-.535.11-.631.128-1.122.196l-.037.036-.005.024-.002-.008c-.366.858-.355.673-.652 1.35l-.004-.083-.074-1.466-.047-.049c-.56.11-.573.128-1.09.196l-.04.036c-.006.018-.006.037-.01.058l.004.008c.064.336.049.26.114.792.03.26.07.522.1.78.051.43.08.642.142 1.3-.349.586-.432.808-.768 1.323l.002.005-.236.381c-.027.04-.052.068-.086.08a.352.352 0 0 1-.155.022h-.132l-.195.66.67.012c.392-.001.639-.188.771-.44l.421-.734h-.007l.045-.051c.283-.62 2.435-4.38 2.435-4.38Zm-7.06 8.672h-.284l1.05-3.537h.35l.11-.364.01.405c-.013.25.18.472.69.436h.587l.202-.681h-.22c-.128 0-.187-.033-.18-.103l-.01-.412h-1.089v.002c-.352.007-1.403.034-1.616.092a1.89 1.89 0 0 0-.529.266l.107-.365h-1.018l-.212.724-1.065 3.59h-.206l-.203.677h2.028l-.068.226h1l.066-.226h.28l.22-.73Zm-.832-2.818a4.514 4.514 0 0 0-.466.185l.27-.904h.809l-.196.659s-.25.015-.417.06Zm.016 1.291s-.255.032-.422.071c-.165.05-.473.211-.473.211l.278-.94h.814l-.197.658Zm-.454 1.535h-.811l.235-.794h.809l-.233.794Zm1.955-2.194h1.17l-.168.555h-1.186l-.178.606h1.037l-.785 1.126a.325.325 0 0 1-.16.135.46.46 0 0 1-.21.062h-.288l-.197.663h.752c.392 0 .623-.18.793-.419l.539-.75.115.762a.357.357 0 0 0 .194.259c.075.038.153.104.263.114.118.005.203.01.26.01h.37l.222-.743h-.146c-.084 0-.228-.015-.253-.042-.024-.032-.024-.082-.037-.158l-.118-.764h-.48l.21-.255h1.184l.182-.606h-1.096l.171-.554h1.092l.203-.684h-3.256l-.2.684Zm-9.88 2.348.272-.924h1.123l.205-.688h-1.124l.172-.57h1.098l.203-.665H15.52l-.2.666h.624l-.166.569h-.626l-.207.7h.624l-.364 1.223c-.05.162.023.224.069.299a.301.301 0 0 0 .2.15c.11.024.186.04.288.04h1.265l.226-.763-.561.079c-.109 0-.408-.014-.376-.116Zm.128-4.427-.284.523a.606.606 0 0 1-.165.218c-.044.028-.13.04-.254.04h-.149l-.198.67h.493c.237 0 .419-.09.505-.134.094-.05.118-.021.19-.092l.167-.147h1.539l.204-.697h-1.126l.196-.38h-1.118Zm2.272 4.441c-.026-.038-.008-.106.032-.247l.421-1.418h1.496c.218-.003.376-.005.478-.013a.964.964 0 0 0 .36-.123.678.678 0 0 0 .262-.246c.064-.09.169-.29.258-.596l.529-1.794-1.553.01s-.478.071-.689.15c-.212.09-.515.336-.515.336l.14-.492h-.96l-1.342 4.535c-.048.176-.08.304-.087.38-.002.083.102.165.17.227.08.061.2.051.314.061.12.01.29.015.525.015h.737l.226-.777-.66.063a.173.173 0 0 1-.142-.071Zm.724-2.622h1.572l-.1.319c-.014.007-.048-.016-.207.003h-1.361l.096-.322Zm.315-1.07h1.585l-.114.385s-.747-.008-.867.015a1.744 1.744 0 0 0-.833.379l.23-.778Zm1.192 2.457a.17.17 0 0 1-.062.098c-.032.021-.084.028-.16.028h-.224l.013-.388h-.932l-.037 1.898c-.002.137.011.217.11.28.098.08.401.09.81.09h.583l.21-.711-.507.028-.17.01c-.022-.01-.044-.019-.069-.044-.021-.021-.058-.008-.052-.145l.004-.487.533-.022c.288 0 .411-.095.516-.186.1-.087.133-.187.17-.323l.09-.43h-.732l-.094.303Z" fill="#FEFEFE"/></svg>