<svg id="icon" width="56" height="56" fill="none" xmlns="http://www.w3.org/2000/svg"><path fill="#fff" d="M0 0h56v56H0z"/><path d="M20.37 35.407 23 19.73h4.206l-2.632 15.677h-4.205ZM39.77 20.067c-.832-.317-2.138-.658-3.77-.658-4.156 0-7.084 2.126-7.109 5.173-.023 2.253 2.09 3.51 3.686 4.26 1.638.768 2.188 1.258 2.18 1.944-.01 1.051-1.307 1.531-2.517 1.531-1.683 0-2.578-.237-3.96-.823l-.541-.249-.59 3.51c.982.437 2.799.816 4.685.836 4.422 0 7.293-2.102 7.325-5.356.016-1.784-1.105-3.14-3.532-4.26-1.47-.725-2.37-1.209-2.36-1.943 0-.652.761-1.349 2.408-1.349a7.655 7.655 0 0 1 3.149.601l.377.18.57-3.397ZM50.595 19.729h-3.25c-1.007 0-1.761.28-2.203 1.3l-6.248 14.367h4.418s.722-1.932.885-2.356l5.388.007c.126.549.511 2.35.511 2.35H54l-3.405-15.668Zm-5.157 10.123c.348-.903 1.676-4.382 1.676-4.382-.025.041.345-.908.558-1.497l.284 1.352.974 4.527h-3.492ZM2.054 19.73 2 20.056c1.663.409 3.148 1 4.448 1.737l3.733 13.589 4.45-.005 6.623-15.648h-4.456L12.68 30.42l-.439-2.173a7.164 7.164 0 0 0-.066-.201l-1.431-6.993c-.255-.993-.993-1.289-1.907-1.323H2.054Z" fill="#0E4595"/></svg>